<?xml version="1.0" standalone="no"?>
<!DOCTYPE svg PUBLIC "-//W3C//DTD SVG 20010904//EN"
 "http://www.w3.org/TR/2001/REC-SVG-20010904/DTD/svg10.dtd">
<svg version="1.0" xmlns="http://www.w3.org/2000/svg"
 width="108.000000pt" height="108.000000pt" viewBox="0 0 108.000000 108.000000"
 preserveAspectRatio="xMidYMid meet">
<metadata>
Created by potrace 1.11, written by Peter Selinger 2001-2013
</metadata>
<g transform="translate(0.000000,108.000000) scale(0.100000,-0.100000)"
fill="#000000" stroke="none">
<path d="M272 933 c-77 -37 -118 -109 -110 -194 7 -66 41 -114 105 -145 44
-22 61 -25 99 -19 95 14 155 79 162 175 5 72 -22 126 -82 166 -49 33 -126 40
-174 17z m148 -72 c38 -27 57 -89 42 -140 -23 -75 -100 -105 -174 -68 -76 39
-90 139 -27 198 45 42 110 46 159 10z"/>
<path d="M637 944 c-4 -4 -7 -62 -7 -130 0 -149 11 -169 91 -173 13 -1 16 -10
14 -46 -2 -25 1 -48 6 -51 6 -3 42 18 81 46 70 51 73 52 141 52 60 0 73 3 94
24 23 23 23 28 21 151 l-3 128 -216 3 c-118 1 -218 -1 -222 -4z"/>
<path d="M226 524 c-8 -20 -8 -138 0 -158 10 -27 38 -18 79 24 l39 40 42 -41
c26 -25 49 -40 60 -37 17 3 19 13 19 93 0 80 -2 90 -19 93 -11 3 -34 -12 -60
-37 l-42 -41 -39 40 c-41 42 -69 51 -79 24z"/>
<path d="M65 458 c-47 -37 -65 -91 -65 -200 0 -53 3 -103 6 -112 5 -14 44 -16
334 -16 271 0 330 2 339 14 18 21 13 213 -6 251 -21 42 -63 85 -84 85 -23 0
-31 -12 -73 -120 -21 -52 -45 -112 -54 -132 l-16 -38 -102 1 -101 2 -58 143
c-63 156 -69 162 -120 122z m63 -150 c17 -46 33 -91 37 -100 6 -15 0 -17 -49
-17 l-56 1 4 82 c6 141 22 150 64 34z m491 50 c5 -18 9 -63 9 -100 l0 -66 -54
1 c-36 0 -54 4 -51 11 44 121 71 186 78 186 4 0 12 -15 18 -32z"/>
</g>
</svg>
