<?xml version="1.0" standalone="no"?><!DOCTYPE svg PUBLIC "-//W3C//DTD SVG 1.1//EN" "http://www.w3.org/Graphics/SVG/1.1/DTD/svg11.dtd" ><svg xmlns="http://www.w3.org/2000/svg"><metadata></metadata><defs><font id="sdx-icons" horiz-adv-x="1024"><font-face font-family="sdx-icons" font-weight="400" font-stretch="normal" units-per-em="1024" panose-1="2 0 5 3 0 0 0 0 0 0" ascent="864" descent="-160" x-height="0" bbox="0 -98 964 811" underline-thickness="0" underline-position="10" unicode-range="U+e001-e0f1" /><missing-glyph horiz-adv-x="0"  /><glyph glyph-name="001-account" unicode="&#xe001;" d="M512 796 q-120 0 -224 -61 q-100 -59 -159 -159 q-61 -104 -61 -224 q0 -120 61 -224 q59 -100 159 -159 q104 -61 224 -61 q120 0 224 61 q100 59 159 159 q61 104 61 224 q0 120 -61 224 q-59 100 -159 159 q-104 61 -224 61 ZM273 63 l0 16 q0 42 30 72 q30 30 72 30 l274 0 q42 0 72 -30 q30 -30 30 -72 l0 -16 q-50 -41 -110 -64 q-62 -22 -129 -22 q-67 0 -129 22 q-60 23 -110 64 ZM812 127 q-16 53 -61 88 q-45 35 -102 35 l-274 0 q-57 0 -102 -35 q-45 -35 -61 -88 q-36 48 -55 104 q-20 59 -20 121 q0 102 51 189 q50 85 135 135 q87 51 189 51 q102 0 189 -51 q85 -50 135 -135 q51 -87 51 -189 q0 -62 -20 -121 q-19 -56 -55 -104 ZM512 659 q-46 0 -85.5 -23 q-39.5 -23 -62.5 -62 q-23 -39 -23 -85.5 q0 -46.5 23 -85.5 q23 -39 62.5 -62 q39.5 -23 85.5 -23 q46 0 85.5 23 q39.5 23 62.5 62 q23 39 23 85.5 q0 46.5 -23 85.5 q-23 39 -62.5 62 q-39.5 23 -85.5 23 ZM512 386 q-42 0 -72 30 q-30 30 -30 72.5 q0 42.5 30 72.5 q30 30 72 30 q42 0 72 -30 q30 -30 30 -72.5 q0 -42.5 -30 -72.5 q-30 -30 -72 -30 Z" /><glyph glyph-name="002-arrow-down" unicode="&#xe002;" d="M761 308 q10 10 24 10 q14 0 24 -10 q10 -10 10 -24 q0 -14 -10 -24 l-273 -273 q-10 -10 -24 -10 q-14 0 -24 10 l-273 273 q-10 10 -10 24 q0 14 10 24 q10 10 24 10 q14 0 24 -10 l215 -215 l0 600 q0 14 10 24 q10 10 24 10 q14 0 24 -10 q10 -10 10 -24 l0 -600 l215 215 Z" /><glyph glyph-name="003-arrow-left" unicode="&#xe003;" d="M468 103 q10 -10 10 -24 q0 -14 -10 -24 q-10 -10 -24 -10 q-14 0 -24 10 l-273 273 q-10 10 -10 24 q0 14 10 24 l273 273 q10 10 24 10 q14 0 24 -10 q10 -10 10 -24 q0 -14 -10 -24 l-215 -215 l600 0 q14 0 24 -10 q10 -10 10 -24 q0 -14 -10 -24 q-10 -10 -24 -10 l-600 0 l215 -215 Z" /><glyph glyph-name="004-arrow-right" unicode="&#xe004;" d="M556 601 q-10 10 -10 24 q0 14 10 24 q10 10 24 10 q14 0 24 -10 l273 -273 q10 -10 10 -24 q0 -14 -10 -24 l-273 -273 q-10 -10 -24 -10 q-14 0 -24 10 q-10 10 -10 24 q0 14 10 24 l215 215 l-600 0 q-14 0 -24 10 q-10 10 -10 24 q0 14 10 24 q10 10 24 10 l600 0 l-215 215 Z" /><glyph glyph-name="005-arrow-up" unicode="&#xe005;" d="M263 396 q-10 -10 -24 -10 q-14 0 -24 10 q-10 10 -10 24 q0 14 10 24 l273 273 q10 10 24 10 q14 0 24 -10 l273 -273 q10 -10 10 -24 q0 -14 -10 -24 q-10 -10 -24 -10 q-14 0 -24 10 l-215 215 l0 -600 q0 -14 -10 -24 q-10 -10 -24 -10 q-14 0 -24 10 q-10 10 -10 24 l0 600 l-215 -215 Z" /><glyph glyph-name="006-attachment" unicode="&#xe006;" d="M307 -58 q-55 0 -102 28 q-47 28 -75 75 q-28 47 -28 102 q0 41 15.5 78.5 q15.5 37.5 44.5 66.5 l219 224 q19 20 44 30.5 q25 10.5 53 10.5 q37 0 68.5 -18.5 q31.5 -18.5 49.5 -50 q18 -31.5 18 -68.5 q0 -27 -10 -52 q-10 -25 -30 -44 l-194 -201 q-10 -10 -24.5 -10 q-14.5 0 -24.5 10 q-10 10 -10 24 q0 14 10 24 l195 200 q20 21 20 49 q0 28 -20 48.5 q-20 20.5 -48 20.5 q-28 0 -49 -21 l-218 -224 q-20 -20 -30 -44.5 q-10 -24.5 -10 -52.5 q0 -37 18 -68.5 q18 -31.5 49.5 -49.5 q31.5 -18 68.5 -18 q27 0 52 10 q25 10 45 30 l409 409 q20 20 30 45 q10 25 10 52 q0 37 -18 68.5 q-18 31.5 -49.5 49.5 q-31.5 18 -68.5 18 q-27 0 -52 -10 q-25 -10 -45 -30 l-35 -35 q-10 -10 -24 -10 q-14 0 -24 10 q-10 10 -10 24 q0 14 10 24 l35 36 q29 29 66.5 44.5 q37.5 15.5 78.5 15.5 q55 0 102 -28 q47 -28 75 -75 q28 -47 28 -102 q0 -41 -15.5 -78.5 q-15.5 -37.5 -44.5 -66.5 l-410 -410 q-29 -29 -66.5 -44.5 q-37.5 -15.5 -78.5 -15.5 Z" /><glyph glyph-name="007-backup" unicode="&#xe007;" d="M400 157 q-10 -10 -24 -10 q-14 0 -24 10 q-10 10 -10 24 q0 14 10 24 l126 127 l0 259 q0 14 10 24 q10 10 24 10 q14 0 24 -10 q10 -10 10 -24 l0 -273 q0 -14 -10 -24 l-136 -137 ZM819 -23 l-71 0 q96 60 152 160 q56 100 56 215 q0 120 -61 224 q-59 100 -159 159 q-104 61 -224 61 q-120 0 -224 -61 q-100 -59 -159 -159 q-61 -104 -61 -224 q0 -113 55 -212 q53 -97 145 -158 q95 -63 207 -72 l3 0 q13 0 23 9 q10 9 11 23 q1 14 -8 24.5 q-9 10.5 -23 11.5 q-95 8 -175 61 q-78 52 -123 134 q-46 84 -46 179 q0 102 51 189 q50 85 135 135 q87 51 189 51 q102 0 189 -51 q85 -50 135 -135 q51 -87 51 -189 q0 -106 -55.5 -196 q-55.5 -90 -148.5 -138 l0 95 q0 14 -10 24 q-10 10 -24.5 10 q-14.5 0 -24.5 -10 q-10 -10 -10 -24 l0 -171 q0 -14 10 -24 q10 -10 25 -10 l170 0 q14 0 24 10 q10 10 10 24 q0 14 -10 24.5 q-10 10.5 -24 10.5 Z" /><glyph glyph-name="008-bin" unicode="&#xe008;" d="M853 659 l-170 0 l0 68 q0 29 -20 49 q-20 20 -49 20 l-204 0 q-29 0 -49 -20 q-20 -20 -20 -49 l0 -68 l-170 0 q-14 0 -24 -10 q-10 -10 -10 -24 q0 -14 10 -24 q10 -10 24 -10 l34 0 l0 -649 q0 -14 10 -24 q10 -10 24 -10 l546 0 q14 0 24 10 q10 10 10 24 l0 649 l34 0 q14 0 24 10 q10 10 10 24 q0 14 -10 24 q-10 10 -24 10 ZM410 727 l204 0 l0 -68 l-204 0 l0 68 ZM751 -23 l-478 0 l0 614 l478 0 l0 -614 ZM341 79 l0 410 q0 14 10 24 q10 10 24.5 10 q14.5 0 24.5 -10 q10 -10 10 -24 l0 -410 q0 -14 -10 -24 q-10 -10 -24.5 -10 q-14.5 0 -24.5 10 q-10 10 -10 24 ZM478 79 l0 410 q0 14 10 24 q10 10 24 10 q14 0 24 -10 q10 -10 10 -24 l0 -410 q0 -14 -10 -24 q-10 -10 -24 -10 q-14 0 -24 10 q-10 10 -10 24 ZM614 79 l0 410 q0 14 10 24 q10 10 24.5 10 q14.5 0 24.5 -10 q10 -10 10 -24 l0 -410 q0 -14 -10 -24 q-10 -10 -24.5 -10 q-14.5 0 -24.5 10 q-10 10 -10 24 Z" /><glyph glyph-name="009-calendar" unicode="&#xe009;" d="M409 420 l206 0 l0 -63 q-56 -132 -84 -278 l-84 0 q33 151 82 269 l-12 0 q-57 -1 -108 -1 l0 73 ZM887 625 l0 -614 q0 -43 -30 -73 q-30 -30 -72 -30 l-546 0 q-42 0 -72 30 q-30 30 -30 73 l0 614 q0 14 10 24 q10 10 24 10 l102 0 l0 103 q0 14 10 24 q10 10 24 10 q14 0 24 -10 q10 -10 10 -24 l0 -103 l342 0 l0 103 q0 14 10 24 q10 10 24 10 q14 0 24 -10 q10 -10 10 -24 l0 -103 l102 0 q14 0 24 -10 q10 -10 10 -24 ZM819 11 l0 512 l-614 0 l0 -512 q0 -14 10 -24 q10 -10 24 -10 l546 0 q14 0 24 10 q10 10 10 24 Z" /><glyph glyph-name="010-cancel" unicode="&#xe00a;" d="M512 796 q-120 0 -224 -61 q-100 -59 -159 -159 q-61 -104 -61 -224 q0 -120 61 -224 q59 -100 159 -159 q104 -61 224 -61 q120 0 224 61 q100 59 159 159 q61 104 61 224 q0 120 -61 224 q-59 100 -159 159 q-104 61 -224 61 ZM137 352 q0 102 51 189 q50 85 135 135 q87 51 189 51 q67 0 130 -23 q60 -22 110 -64 l-528 -528 q-42 50 -64 110 q-23 63 -23 130 ZM512 -23 q-67 0 -130 23 q-60 22 -110 64 l528 528 q42 -50 64 -110 q23 -63 23 -130 q0 -102 -51 -189 q-50 -85 -135 -135 q-87 -51 -189 -51 Z" /><glyph glyph-name="011-check-mark" unicode="&#xe00b;" d="M478 45 q9 0 17 4.5 q8 4.5 13 12.5 l307 546 q7 13 3 26.5 q-4 13.5 -16 20.5 q-12 7 -26 3 q-14 -4 -21 -16 l-285 -507 l-207 207 q-10 10 -24 10 q-14 0 -24 -10 q-10 -10 -10 -24 q0 -14 10 -24 l239 -239 q9 -10 24 -10 Z" /><glyph glyph-name="012-check-mark-circle" unicode="&#xe00c;" d="M512 796 q-120 0 -224 -61 q-100 -59 -159 -159 q-61 -104 -61 -224 q0 -120 61 -224 q59 -100 159 -159 q104 -61 224 -61 q120 0 224 61 q100 59 159 159 q61 104 61 224 q0 120 -61 224 q-59 100 -159 159 q-104 61 -224 61 ZM512 -23 q-102 0 -189 51 q-85 50 -135 135 q-51 87 -51 189 q0 102 51 189 q50 85 135 135 q87 51 189 51 q102 0 189 -51 q85 -50 135 -135 q51 -87 51 -189 q0 -102 -51 -189 q-50 -85 -135 -135 q-87 -51 -189 -51 ZM454 191 l-137 137 q-10 10 -10 24 q0 14 10 24 q10 10 24 10 q14 0 24 -10 l105 -105 l148 268 q7 12 21 16 q14 4 26 -3 q12 -7 16 -20.5 q4 -13.5 -3 -25.5 l-170 -307 q-5 -8 -13 -13 q-8 -5 -17 -5 q-14 0 -24 10 Z" /><glyph glyph-name="013-chevron-down" unicode="&#xe00d;" d="M829 513 q10 10 24 10 q14 0 24 -10 q10 -10 10 -24 q0 -14 -10 -24 l-341 -342 q-10 -10 -24 -10 q-14 0 -24 10 l-342 342 q-10 10 -10 24 q0 14 10 24 q10 10 24.5 10 q14.5 0 24.5 -10 l317 -318 l317 318 Z" /><glyph glyph-name="014-chevron-left" unicode="&#xe00e;" d="M673 35 q10 -10 10 -24 q0 -14 -10 -24 q-10 -10 -24 -10 q-14 0 -24 10 l-342 341 q-10 10 -10 24 q0 14 10 24 l342 342 q10 10 24 10 q14 0 24 -10 q10 -10 10 -24.5 q0 -14.5 -10 -24.5 l-318 -317 l318 -317 Z" /><glyph glyph-name="015-chevron-right" unicode="&#xe00f;" d="M351 669 q-10 10 -10 24 q0 14 10 24 q10 10 24 10 q14 0 24 -10 l342 -341 q10 -10 10 -24 q0 -14 -10 -24 l-342 -342 q-10 -10 -24 -10 q-14 0 -24 10 q-10 10 -10 24.5 q0 14.5 10 24.5 l318 317 l-318 317 Z" /><glyph glyph-name="016-chevron-up" unicode="&#xe010;" d="M195 191 q-10 -10 -24 -10 q-14 0 -24 10 q-10 10 -10 24 q0 14 10 24 l341 342 q10 10 24 10 q14 0 24 -10 l342 -342 q10 -10 10 -24 q0 -14 -10 -24 q-10 -10 -24.5 -10 q-14.5 0 -24.5 10 l-317 318 l-317 -318 Z" /><glyph glyph-name="017-chevron-flat-down" unicode="&#xe011;" d="M836 450 q12 7 26 3.5 q14 -3.5 21 -15.5 q7 -12 3.5 -26 q-3.5 -14 -15.5 -21 l-341 -205 q-8 -4 -17.5 -4 q-9.5 0 -17.5 4 l-342 205 q-12 7 -15.5 21 q-3.5 14 4 26 q7.5 12 21 15.5 q13.5 3.5 25.5 -3.5 l324 -195 l324 195 Z" /><glyph glyph-name="018-chevron-flat-left" unicode="&#xe012;" d="M610 28 q7 -12 3.5 -26 q-3.5 -14 -15.5 -21 q-12 -7 -26 -3.5 q-14 3.5 -21 15.5 l-205 341 q-4 8 -4 17.5 q0 9.5 4 17.5 l205 342 q7 12 21 15.5 q14 3.5 26 -4 q12 -7.5 15.5 -21 q3.5 -13.5 -3.5 -25.5 l-195 -324 l195 -324 Z" /><glyph glyph-name="019-chevron-flat-right" unicode="&#xe013;" d="M414 676 q-7 12 -3.5 26 q3.5 14 15.5 21 q12 7 26 3.5 q14 -3.5 21 -15.5 l205 -341 q4 -8 4 -17.5 q0 -9.5 -4 -17.5 l-205 -342 q-7 -12 -21 -15.5 q-14 -3.5 -26 4 q-12 7.5 -15.5 21 q-3.5 13.5 3.5 25.5 l195 324 l-195 324 Z" /><glyph glyph-name="020-chevron-flat-up" unicode="&#xe014;" d="M188 254 q-12 -7 -26 -3.5 q-14 3.5 -21 15.5 q-7 12 -3.5 26 q3.5 14 15.5 21 l341 205 q8 4 17.5 4 q9.5 0 17.5 -4 l342 -205 q12 -7 15.5 -21 q3.5 -14 -4 -26 q-7.5 -12 -21 -15.5 q-13.5 -3.5 -25.5 3.5 l-324 195 l-324 -195 Z" /><glyph glyph-name="021-clock" unicode="&#xe015;" d="M512 796 q-120 0 -224 -61 q-100 -59 -159 -159 q-61 -104 -61 -224 q0 -120 61 -224 q59 -100 159 -159 q104 -61 224 -61 q120 0 224 61 q100 59 159 159 q61 104 61 224 q0 120 -61 224 q-59 100 -159 159 q-104 61 -224 61 ZM512 -23 q-102 0 -189 51 q-85 50 -135 135 q-51 87 -51 189 q0 102 51 189 q50 85 135 135 q87 51 189 51 q102 0 189 -51 q85 -50 135 -135 q51 -87 51 -189 q0 -102 -51 -189 q-50 -85 -135 -135 q-87 -51 -189 -51 ZM546 591 l0 -273 q0 -14 -10 -24 l-136 -137 q-10 -10 -24 -10 q-14 0 -24 10 q-10 10 -10 24 q0 14 10 24 l126 127 l0 259 q0 14 10 24 q10 10 24 10 q14 0 24 -10 q10 -10 10 -24 Z" /><glyph glyph-name="022-close" unicode="&#xe016;" d="M560 352 l249 -249 q10 -10 10 -24 q0 -14 -10 -24 q-10 -10 -24 -10 q-14 0 -24 10 l-249 249 l-249 -249 q-10 -10 -24 -10 q-14 0 -24 10 q-10 10 -10 24 q0 14 10 24 l249 249 l-249 249 q-10 10 -10 24 q0 14 10 24 q10 10 24 10 q14 0 24 -10 l249 -249 l249 249 q10 10 24 10 q14 0 24 -10 q10 -10 10 -24 q0 -14 -10 -24 l-249 -249 Z" /><glyph glyph-name="023-download" unicode="&#xe017;" d="M887 215 l0 -204 q0 -14 -10 -24 q-10 -10 -24 -10 l-682 0 q-14 0 -24 10 q-10 10 -10 24 l0 204 q0 15 10 25 q10 10 24 10 q14 0 24 -10 q10 -10 10 -25 l0 -170 l614 0 l0 170 q0 15 10 25 q10 10 24 10 q14 0 24 -10 q10 -10 10 -25 ZM488 259 q10 -9 24 -9 q14 0 24 9 l205 205 q10 10 10 24 q0 14 -10 24 q-10 10 -24 10 q-14 0 -24 -10 l-147 -146 l0 396 q0 14 -10 24 q-10 10 -24 10 q-14 0 -24 -10 q-10 -10 -10 -24 l0 -396 l-147 146 q-10 10 -24 10 q-14 0 -24 -10 q-10 -10 -10 -24 q0 -14 10 -24 l205 -205 Z" /><glyph glyph-name="024-download-cloud" unicode="&#xe018;" d="M956 420 q0 -65 -32.5 -119.5 q-32.5 -54.5 -87 -87 q-54.5 -32.5 -119.5 -32.5 l-103 0 l0 69 l103 0 q46 0 85.5 23 q39.5 23 62 62 q22.5 39 22.5 85.5 q0 46.5 -22.5 85.5 q-22.5 39 -62 62 q-39.5 23 -85.5 23 l-80 0 q-11 0 -20 6.5 q-9 6.5 -12 16.5 q-19 51 -63 82 q-44 31 -98 31 q-47 0 -86 -22.5 q-39 -22.5 -62 -62 q-23 -39.5 -23 -85.5 l0 -4 q0 -12 -7.5 -21.5 q-7.5 -9.5 -19.5 -11.5 q-48 -10 -78.5 -48 q-30.5 -38 -30.5 -86 q0 -37 18 -68.5 q18 -31.5 49.5 -49.5 q31.5 -18 68.5 -18 l137 0 l0 -69 l-137 0 q-56 0 -103 27.5 q-47 27.5 -74.5 75 q-27.5 47.5 -27.5 102.5 q0 66 38.5 119 q38.5 53 99.5 75 q6 60 39 109 q33 49 85.5 78 q52.5 29 113.5 29 q69 0 127.5 -37.5 q58.5 -37.5 87.5 -99.5 l58 0 q65 0 119.5 -32 q54.5 -32 87 -87 q32.5 -55 32.5 -120 ZM624 103 l-78 -78 l0 395 q0 14 -10 24 q-10 10 -24 10 q-14 0 -24 -10 q-10 -10 -10 -24 l0 -395 l-78 78 q-10 10 -24 10 q-14 0 -24 -10 q-10 -10 -10 -24 q0 -14 10 -24 l136 -137 q10 -10 24 -10 q14 0 24 10 l137 137 q10 10 10 24 q0 14 -10 24 q-10 10 -24.5 10 q-14.5 0 -24.5 -10 Z" /><glyph glyph-name="025-edit" unicode="&#xe019;" d="M372 195 q-5 12 -17 17 l-110 50 l291 291 l177 -178 l-290 -291 l-51 111 ZM205 206 l110 -50 l51 -111 l-161 0 l0 161 ZM857 423 q30 30 30 72.5 q0 42.5 -30 72.5 l-129 129 q-19 19 -45.5 25.5 q-26.5 6.5 -53.5 0 q-27 -6.5 -46 -25.5 l-422 -421 q-24 -25 -24 -61 l0 -204 q0 -14 10 -24 q10 -10 24 -10 l204 0 q35 0 61 24 l421 422 ZM809 471 l-47 -47 l-178 178 l47 47 q10 10 24.5 10 q14.5 0 24.5 -10 l129 -129 q10 -10 10 -24.5 q0 -14.5 -10 -24.5 Z" /><glyph glyph-name="026-exclamation-mark-circle" unicode="&#xe01a;" d="M512 796 q-120 0 -224 -61 q-100 -59 -159 -159 q-61 -104 -61 -224 q0 -120 61 -224 q59 -100 159 -159 q104 -61 224 -61 q120 0 224 61 q100 59 159 159 q61 104 61 224 q0 120 -61 224 q-59 100 -159 159 q-104 61 -224 61 ZM512 -23 q-102 0 -189 51 q-85 50 -135 135 q-51 87 -51 189 q0 102 51 189 q50 85 135 135 q87 51 189 51 q102 0 189 -51 q85 -50 135 -135 q51 -87 51 -189 q0 -102 -51 -189 q-50 -85 -135 -135 q-87 -51 -189 -51 ZM580 147 q0 -28 -20 -48 q-20 -20 -48 -20 q-28 0 -48 20 q-20 20 -20 48 q0 28 20 48 q20 20 48 20 q28 0 48 -20 q20 -20 20 -48 ZM444 625 l136 0 l0 -136 l-34 -205 l-68 0 l-34 205 l0 136 Z" /><glyph glyph-name="027-flag" unicode="&#xe01b;" d="M776 455 l132 221 q4 8 4.5 17.5 q0.5 9.5 -4.5 17.5 q-5 8 -13 12.5 q-8 4.5 -17 4.5 l-639 0 q-14 0 -24.5 -10 q-10.5 -10 -10.5 -24 l0 -751 q0 -15 10.5 -25 q10.5 -10 24.5 -10 q14 0 24.5 10 q10.5 10 10.5 25 l0 238 l604 0 q9 0 17 5 q8 5 13 13 q5 8 4.5 17.5 q-0.5 9.5 -4.5 17.5 l-132 221 ZM274 251 l0 408 l542 0 l-110 -187 q-5 -8 -5 -17.5 q0 -9.5 5 -17.5 l110 -186 l-542 0 Z" /><glyph glyph-name="028-folder-new" unicode="&#xe01c;" d="M853 659 l-307 0 l-68 68 l-341 0 q-29 0 -49 -20 q-20 -20 -20 -48 l0 -580 q0 -14 10 -24 q10 -10 24 -10 l820 0 q14 0 24 10 q10 10 10 24 l0 478 q0 42 -30 72 q-30 30 -73 30 ZM887 113 l-750 0 l0 478 l716 0 q14 0 24 -10 q10 -10 10 -24 l0 -444 ZM683 352 q0 -14 -10 -24 q-10 -10 -24 -10 l-103 0 l0 -103 q0 -14 -10 -24 q-10 -10 -24 -10 q-14 0 -24 10 q-10 10 -10 24 l0 103 l-103 0 q-14 0 -24 10 q-10 10 -10 24 q0 14 10 24 q10 10 24 10 l103 0 l0 103 q0 14 10 24 q10 10 24 10 q14 0 24 -10 q10 -10 10 -24 l0 -103 l103 0 q14 0 24 -10 q10 -10 10 -24 Z" /><glyph glyph-name="029-folder-video" unicode="&#xe01d;" d="M853 659 l-307 0 l-68 68 l-341 0 q-29 0 -49 -20 q-20 -20 -20 -48 l0 -580 q0 -14 10 -24 q10 -10 24 -10 l820 0 q14 0 24 10 q10 10 10 24 l0 478 q0 42 -30 72 q-30 30 -73 30 ZM887 113 l-750 0 l0 478 l716 0 q14 0 24 -10 q10 -10 10 -24 l0 -444 ZM649 352 q0 -9 -4.5 -17 q-4.5 -8 -12.5 -12 l-171 -103 q-8 -5 -17 -5 q-9 0 -17 4.5 q-8 4.5 -12.5 12.5 q-4.5 8 -4.5 18 l0 204 q0 10 4.5 18 q4.5 8 12.5 12.5 q8 4.5 17 4 q9 -0.5 17 -4.5 l171 -103 q8 -4 12.5 -12 q4.5 -8 4.5 -17 Z" /><glyph glyph-name="030-forward" unicode="&#xe01e;" d="M878 328 l-273 -273 q-10 -10 -24.5 -10 q-14.5 0 -24.5 10 q-10 10 -10 24 q0 14 10 24 l249 249 l-249 249 q-10 10 -10 24 q0 14 10 24 q10 10 24.5 10 q14.5 0 24.5 -10 l273 -273 q10 -10 10 -24 q0 -14 -10 -24 ZM536 376 l-273 273 q-10 10 -24 10 q-14 0 -24 -10 q-10 -10 -10 -24 q0 -14 10 -24 l249 -249 l-249 -249 q-10 -10 -10 -24 q0 -14 10 -24 q10 -10 24 -10 q14 0 24 10 l273 273 q10 10 10 24 q0 14 -10 24 Z" /><glyph glyph-name="031-forward-filled" unicode="&#xe01f;" d="M136 45 q0 -10 5.5 -18.5 q5.5 -8.5 14.5 -12.5 q9 -4 18.5 -3 q9.5 1 17.5 8 l320 261 l0 -235 q0 -10 5 -18.5 q5 -8.5 14 -12.5 q9 -4 19 -3 q10 1 17 8 l376 307 q12 10 12 26 q0 16 -12 26 l-376 307 q-7 7 -17 8 q-10 1 -19 -3 q-9 -4 -14 -12.5 q-5 -8.5 -5 -18.5 l0 -235 l-320 261 q-8 7 -17.5 8 q-9.5 1 -18.5 -3 q-9 -4 -14.5 -12.5 q-5.5 -8.5 -5.5 -18.5 l0 -614 Z" /><glyph glyph-name="032-forward-message" unicode="&#xe020;" d="M639 89 q-10 -10 -24.5 -10 q-14.5 0 -24 10 q-9.5 10 -9.5 24 q0 14 10 24 l180 181 l-361 0 q-56 0 -103 -27.5 q-47 -27.5 -74.5 -74.5 q-27.5 -47 -27.5 -103 l0 -34 q0 -14 -10 -24 q-10 -10 -24 -10 q-14 0 -24 10 q-10 10 -10 24 l0 34 q0 74 36.5 137 q36.5 63 99.5 99.5 q63 36.5 137 36.5 l361 0 l-180 181 q-10 10 -10 24 q0 14 9.5 24 q9.5 10 24 10 q14.5 0 24.5 -10 l239 -239 q10 -10 10 -24 q0 -14 -10 -24 l-239 -239 Z" /><glyph glyph-name="033-forward-message-2" unicode="&#xe021;" d="M946 376 l-273 273 q-8 8 -18 10 q-10 2 -19.5 -2 q-9.5 -4 -15.5 -13 q-6 -9 -6 -19 l0 -102 l-204 0 q-74 0 -137 -37 q-63 -37 -99.5 -99.5 q-36.5 -62.5 -36.5 -136.5 l0 -35 q0 -14 10 -24 q10 -10 24 -10 l443 0 l0 -102 q0 -10 6 -19 q6 -9 15.5 -13 q9.5 -4 19.5 -1.5 q10 2.5 18 9.5 l273 273 q10 10 10 24 q0 14 -10 24 ZM683 161 l0 89 l-478 0 q0 55 27.5 102 q27.5 47 74.5 74.5 q47 27.5 103 27.5 l273 0 l0 89 l190 -191 l-190 -191 Z" /><glyph glyph-name="034-fullscreen-enter" unicode="&#xe022;" d="M887 215 l0 -204 q0 -14 -10 -24 q-10 -10 -24 -10 l-204 0 q-15 0 -25 10 q-10 10 -10 24 q0 14 10 24 q10 10 25 10 l122 0 l-146 146 q-10 10 -10 24 q0 14 10 24 q10 10 24 10 q14 0 24 -10 l146 -146 l0 122 q0 15 10 25 q10 10 24 10 q14 0 24 -10 q10 -10 10 -25 ZM410 693 q0 14 -10 24 q-10 10 -25 10 l-204 0 q-14 0 -24 -10 q-10 -10 -10 -24 l0 -204 q0 -15 10 -25 q10 -10 24 -10 q14 0 24 10 q10 10 10 25 l0 122 l146 -146 q10 -11 24 -11 q14 0 24.5 10 q10.5 10 10.5 24 q0 14 -10 24 l-147 147 l122 0 q15 0 25 10 q10 10 10 24 ZM853 727 l-204 0 q-15 0 -25 -10 q-10 -10 -10 -24 q0 -14 10 -24 q10 -10 25 -10 l122 0 l-146 -146 q-10 -10 -10 -24 q0 -14 9.5 -24.5 q9.5 -10.5 23.5 -10.5 q14 0 25 10 l146 147 l0 -122 q0 -15 10 -25 q10 -10 24 -10 q14 0 24 10 q10 10 10 25 l0 204 q0 14 -10 24 q-10 10 -24 10 ZM400 240 q-10 10 -24 10 q-14 0 -24 -10 l-147 -147 l0 122 q0 15 -10 25 q-10 10 -24 10 q-14 0 -24 -10 q-10 -10 -10 -25 l0 -204 q0 -14 10 -24 q10 -10 24 -10 l204 0 q15 0 25 10 q10 10 10 24 q0 14 -10 24 q-10 10 -25 10 l-122 0 l146 146 q11 10 11 24.5 q0 14.5 -10 24.5 Z" /><glyph glyph-name="035-fullscreen-enter-2" unicode="&#xe023;" d="M614 79 q0 -14 -10 -24 q-10 -10 -24 -10 l-341 0 q-14 0 -24 10 q-10 10 -10 24 l0 341 q0 14 10 24 q10 10 24 10 q14 0 24 -10 q10 -10 10 -24 l0 -307 l307 0 q14 0 24 -10 q10 -10 10 -24 ZM785 659 l-341 0 q-14 0 -24 -10 q-10 -10 -10 -24 q0 -14 10 -24 q10 -10 24 -10 l307 0 l0 -307 q0 -14 10 -24 q10 -10 24 -10 q14 0 24 10 q10 10 10 24 l0 341 q0 14 -10 24 q-10 10 -24 10 Z" /><glyph glyph-name="036-fullscreen-leave" unicode="&#xe024;" d="M410 215 l0 -204 q0 -14 -10 -24 q-10 -10 -24.5 -10 q-14.5 0 -24.5 10 q-10 10 -10 24 l0 122 l-146 -146 q-10 -10 -24 -10 q-14 0 -24 10 q-10 10 -10 24 q0 14 10 24 l146 146 l-122 0 q-14 0 -24 10 q-10 10 -10 24.5 q0 14.5 10 24.5 q10 10 24 10 l204 0 q15 0 25 -10 q10 -10 10 -25 ZM887 215 q0 15 -10 25 q-10 10 -24 10 l-204 0 q-15 0 -25 -10 q-10 -10 -10 -25 l0 -204 q0 -14 10 -24 q10 -10 24.5 -10 q14.5 0 24.5 10 q10 10 10 24 l0 122 l146 -146 q10 -10 24 -10 q14 0 24 10 q10 10 10 24 q0 14 -10 24 l-146 146 l122 0 q14 0 24 10 q10 10 10 24 ZM375 727 q-14 0 -24 -10 q-10 -10 -10 -24 l0 -122 l-146 146 q-10 10 -24 10 q-14 0 -24 -10 q-10 -10 -10 -24 q0 -14 10 -24 l146 -146 l-122 0 q-14 0 -24 -10 q-10 -10 -10 -24.5 q0 -14.5 10 -24.5 q10 -10 24 -10 l204 0 q15 0 25 10 q10 10 10 25 l0 204 q0 14 -10 24 q-10 10 -25 10 ZM853 523 l-122 0 l146 146 q10 10 10 24 q0 14 -10 24 q-10 10 -24 10 q-14 0 -24 -10 l-146 -146 l0 122 q0 14 -10 24 q-10 10 -24.5 10 q-14.5 0 -24.5 -10 q-10 -10 -10 -24 l0 -204 q0 -15 10 -25 q10 -10 25 -10 l204 0 q14 0 24 10 q10 10 10 24.5 q0 14.5 -10 24.5 q-10 10 -24 10 Z" /><glyph glyph-name="037-fullscreen-leave-2" unicode="&#xe025;" d="M478 284 l0 -342 q0 -14 -10 -24 q-10 -10 -24 -10 q-14 0 -24 10 q-10 10 -10 24 l0 308 l-308 0 q-14 0 -24 10 q-10 10 -10 24 q0 14 10 24 q10 10 24 10 l342 0 q14 0 24 -10 q10 -10 10 -24 ZM922 454 l-308 0 l0 308 q0 14 -10 24 q-10 10 -24 10 q-14 0 -24 -10 q-10 -10 -10 -24 l0 -342 q0 -14 10 -24 q10 -10 24 -10 l342 0 q14 0 24 10 q10 10 10 24 q0 14 -10 24 q-10 10 -24 10 Z" /><glyph glyph-name="038-go-to-end" unicode="&#xe026;" d="M751 625 l0 -546 q0 -14 -10 -24 q-10 -10 -24 -10 q-14 0 -24 10 q-10 10 -10 24 l0 546 q0 14 10 24 q10 10 24 10 q14 0 24 -10 q10 -10 10 -24 ZM331 649 q-10 10 -24 10 q-14 0 -24 -10 q-10 -10 -10 -24 q0 -14 10 -24 l249 -249 l-249 -249 q-10 -10 -10 -24 q0 -14 10 -24 q10 -10 24 -10 q14 0 24 10 l274 273 q9 10 9 24 q0 14 -9 24 l-274 273 Z" /><glyph glyph-name="039-go-to-end-filled" unicode="&#xe027;" d="M636 378 q12 -10 12 -26 q0 -16 -12 -26 l-376 -307 q-8 -7 -17.5 -8 q-9.5 -1 -18.5 3 q-9 4 -14.5 12.5 q-5.5 8.5 -5.5 18.5 l0 614 q0 10 5.5 18.5 q5.5 8.5 14.5 12.5 q9 4 18.5 3 q9.5 -1 17.5 -8 l376 -307 ZM751 693 q-28 0 -48 -20 q-20 -20 -20 -48 l0 -546 q0 -28 20 -48 q20 -20 48 -20 q28 0 48 20 q20 20 20 48 l0 546 q0 28 -20 48 q-20 20 -48 20 Z" /><glyph glyph-name="040-go-to-start" unicode="&#xe028;" d="M273 625 l0 -546 q0 -14 10 -24 q10 -10 24 -10 q14 0 24 10 q10 10 10 24 l0 546 q0 14 -10 24 q-10 10 -24 10 q-14 0 -24 -10 q-10 -10 -10 -24 ZM693 649 q10 10 24 10 q14 0 24 -10 q10 -10 10 -24 q0 -14 -10 -24 l-249 -249 l249 -249 q10 -10 10 -24 q0 -14 -10 -24 q-10 -10 -24 -10 q-14 0 -24 10 l-274 273 q-9 10 -9 24 q0 14 9 24 l274 273 Z" /><glyph glyph-name="041-go-to-start-filled" unicode="&#xe029;" d="M388 378 q-13 -10 -13 -26 q0 -16 13 -26 l376 -307 q7 -7 17 -8 q10 -1 19 3 q9 4 14 12.5 q5 8.5 5 18.5 l0 614 q0 10 -5 18.5 q-5 8.5 -14 12.5 q-9 4 -19 3 q-10 -1 -17 -8 l-376 -307 ZM273 693 q28 0 48 -20 q20 -20 20 -48 l0 -546 q0 -28 -20 -48 q-20 -20 -48 -20 q-28 0 -48.5 20 q-20.5 20 -20.5 48 l0 546 q0 28 20.5 48 q20.5 20 48.5 20 Z" /><glyph glyph-name="042-group" unicode="&#xe02a;" d="M512 523 q37 0 68.5 18 q31.5 18 50 49.5 q18.5 31.5 18.5 68.5 q0 37 -18.5 68.5 q-18.5 31.5 -50 50 q-31.5 18.5 -68.5 18.5 q-37 0 -68.5 -18.5 q-31.5 -18.5 -50 -50 q-18.5 -31.5 -18.5 -68.5 q0 -37 18.5 -68.5 q18.5 -31.5 50 -49.5 q31.5 -18 68.5 -18 ZM512 727 q28 0 48 -20 q20 -20 20 -48 q0 -28 -20 -48 q-20 -20 -48 -20 q-28 0 -48 20 q-20 20 -20 48 q0 28 20 48 q20 20 48 20 ZM205 454 q42 0 72 30.5 q30 30.5 30 72.5 q0 42 -30 72 q-30 30 -72 30 q-42 0 -72.5 -30 q-30.5 -30 -30.5 -72 q0 -42 30.5 -72.5 q30.5 -30.5 72.5 -30.5 ZM205 591 q14 0 24 -10 q10 -10 10 -24 q0 -14 -10 -24 q-10 -10 -24 -10 q-14 0 -24 10 q-10 10 -10 24 q0 14 10 24 q10 10 24 10 ZM819 454 q42 0 72.5 30.5 q30.5 30.5 30.5 72.5 q0 42 -30.5 72 q-30.5 30 -72.5 30 q-42 0 -72 -30 q-30 -30 -30 -72 q0 -42 30 -72.5 q30 -30.5 72 -30.5 ZM819 591 q14 0 24 -10 q10 -10 10 -24 q0 -14 -10 -24 q-10 -10 -24 -10 q-14 0 -24 10 q-10 10 -10 24 q0 14 10 24 q10 10 24 10 ZM853 386 l-121 0 q-18 31 -49.5 49.5 q-31.5 18.5 -68.5 18.5 l-204 0 q-37 0 -68.5 -18.5 q-31.5 -18.5 -49.5 -49.5 l-121 0 q-43 0 -73 -30 q-30 -30 -30 -72 l0 -273 q0 -14 10 -24 q10 -10 24 -10 l820 0 q14 0 24 10 q10 10 10 24 l0 273 q0 42 -30 72 q-30 30 -73 30 ZM273 45 l-136 0 l0 239 q0 14 10 24 q10 10 24 10 l102 0 l0 -273 ZM683 45 l-342 0 l0 273 q0 28 20 48 q20 20 49 20 l204 0 q29 0 49 -20 q20 -20 20 -48 l0 -273 ZM887 45 l-136 0 l0 273 l102 0 q14 0 24 -10 q10 -10 10 -24 l0 -239 Z" /><glyph glyph-name="043-heart" unicode="&#xe02b;" d="M536 -14 q-10 -10 -24 -10 q-14 0 -24 10 l-353 354 q-32 32 -49.5 73.5 q-17.5 41.5 -17.5 86.5 q0 62 31 114 q31 52 83 82.5 q52 30.5 114 30.5 q45 0 86.5 -17 q41.5 -17 73.5 -49 l56 -56 l56 56 q32 32 73.5 49 q41.5 17 86.5 17 q62 0 114 -30.5 q52 -30.5 83 -82.5 q31 -52 31 -114 q0 -45 -17.5 -86.5 q-17.5 -41.5 -49.5 -74.5 l-353 -353 ZM296 659 q-44 0 -80.5 -21.5 q-36.5 -21.5 -57.5 -58 q-21 -36.5 -21 -79.5 q0 -32 11.5 -61 q11.5 -29 34.5 -51 l329 -329 l329 329 q23 22 34.5 51 q11.5 29 11.5 61 q0 43 -21 79.5 q-21 36.5 -57.5 58 q-36.5 21.5 -80.5 21.5 q-31 0 -60 -12 q-29 -12 -52 -34 l-80 -80 q-10 -10 -24 -10 q-14 0 -24 10 l-80 80 q-23 22 -52 34 q-29 12 -60 12 Z" /><glyph glyph-name="044-home" unicode="&#xe02c;" d="M853 -23 l-239 0 q-14 0 -24 10 q-10 10 -10 24 l0 170 l-136 0 l0 -170 q0 -14 -10 -24 q-10 -10 -24 -10 l-239 0 q-14 0 -24 10 q-10 10 -10 24 l0 402 q0 35 24 61 l303 302 q19 19 48 19 q29 0 48 -19 l302 -302 q25 -25 25 -61 l0 -402 q0 -14 -10 -24 q-10 -10 -24 -10 ZM649 45 l170 0 l0 368 q0 8 -5 12 l-302 302 l-302 -302 q-5 -5 -5 -12 l0 -368 l170 0 l0 170 q0 15 10.5 25 q10.5 10 24.5 10 l204 0 q14 0 24.5 -10 q10.5 -10 10.5 -25 l0 -170 Z" /><glyph glyph-name="045-hourglass" unicode="&#xe02d;" d="M512 420 l-137 137 l274 0 l-137 -137 ZM341 79 l0 -34 l342 0 l0 34 l-171 68 l-171 -68 ZM820 -58 q0 -14 -10.5 -24 q-10.5 -10 -24.5 -10 l-546 0 q-14 0 -24 10 q-10 10 -10 24 l1 171 q0 28 10.5 52.5 q10.5 24.5 29.5 44.5 l142 142 l-142 142 q-20 20 -30 44.5 q-10 24.5 -10 52.5 l0 68 q0 37 18.5 68.5 q18.5 31.5 49.5 50 q31 18.5 68 18.5 l341 0 q37 0 68 -18.5 q31 -18.5 49.5 -50 q18.5 -31.5 18.5 -68.5 l0 -68 q0 -27 -10 -52 q-10 -25 -30 -45 l-142 -142 l142 -142 q20 -20 30 -45 q10 -25 10 -52 l1 -171 ZM751 -23 l0 136 q0 29 -20 48 l-166 167 q-10 10 -10 24 q0 14 10 24 l166 166 q20 21 20 49 l0 68 q0 28 -20 48 q-20 20 -48 20 l-341 0 q-28 0 -48 -20 q-20 -20 -20 -48 l0 -68 q0 -29 20 -48 l166 -167 q10 -10 10 -24 q0 -14 -10 -24 l-166 -166 q-20 -21 -20 -49 l-1 -136 l478 0 Z" /><glyph glyph-name="046-information-circle" unicode="&#xe02e;" d="M512 796 q-120 0 -224 -61 q-100 -59 -159 -159 q-61 -104 -61 -224 q0 -120 61 -224 q59 -100 159 -159 q104 -61 224 -61 q120 0 224 61 q100 59 159 159 q61 104 61 224 q0 120 -61 224 q-59 100 -159 159 q-104 61 -224 61 ZM512 -23 q-102 0 -189 51 q-85 50 -135 135 q-51 87 -51 189 q0 102 51 189 q50 85 135 135 q87 51 189 51 q102 0 189 -51 q85 -50 135 -135 q51 -87 51 -189 q0 -102 -51 -189 q-50 -85 -135 -135 q-87 -51 -189 -51 ZM580 523 q0 -28 -20 -48.5 q-20 -20.5 -48 -20.5 q-28 0 -48 20.5 q-20 20.5 -20 48.5 q0 28 20 48 q20 20 48 20 q28 0 48 -20 q20 -20 20 -48 ZM580 318 l0 -205 l-136 0 l0 205 q0 28 20 48 q20 20 48 20 q28 0 48 -20 q20 -20 20 -48 Z" /><glyph glyph-name="047-key" unicode="&#xe02f;" d="M683 591 q-28 0 -48.5 -20 q-20.5 -20 -20.5 -48 q0 -28 20.5 -48.5 q20.5 -20.5 48.5 -20.5 q28 0 48 20.5 q20 20.5 20 48.5 q0 28 -20 48 q-20 20 -48 20 ZM631 762 q-78 0 -146 -40 q-66 -39 -104 -104 q-40 -68 -40 -147 q0 -47 15 -90 l-210 -210 q-9 -10 -9 -24 l0 -136 q0 -14 10 -24 q10 -10 24 -10 l170 0 q14 0 24 10 q10 10 10 24 l0 102 l103 0 q14 0 24 10 q10 10 10 24 l0 60 q57 -26 119 -26 q79 0 147 40 q65 38 104 104 q40 68 40 146.5 q0 78.5 -40 146.5 q-39 65 -104 104 q-68 40 -147 40 ZM631 693 q61 0 112 -29.5 q51 -29.5 80.5 -80.5 q29.5 -51 29.5 -111.5 q0 -60.5 -29.5 -111.5 q-29.5 -51 -80.5 -80.5 q-51 -29.5 -112 -29.5 q-73 0 -133 44 q-7 6 -17 7 q-10 1 -18.5 -3.5 q-8.5 -4.5 -13.5 -12.5 q-5 -8 -5 -18 l0 -86 l-103 0 q-14 0 -24 -10 q-10 -10 -10 -24 l0 -102 l-102 0 l0 88 l214 215 q8 7 10 17.5 q2 10.5 -2 19.5 q-17 41 -17 86 q0 61 29.5 112 q29.5 51 80.5 80.5 q51 29.5 111 29.5 Z" /><glyph glyph-name="048-link" unicode="&#xe030;" d="M751 318 l68 0 l0 -307 q0 -14 -10 -24 q-10 -10 -24 -10 l-614 0 q-14 0 -24 10 q-10 10 -10 24 l0 546 q0 42 30 72 q30 30 72 30 l239 0 l0 -68 l-239 0 q-14 0 -24 -10 q-10 -10 -10 -24 l0 -512 l546 0 l0 273 ZM853 727 l-273 0 q-14 0 -24 -10 q-10 -10 -10 -24 q0 -14 10 -24 q10 -10 24 -10 l191 0 l-352 -351 q-9 -10 -9 -24 q0 -14 9.5 -24 q9.5 -10 24 -10 q14.5 0 24.5 10 l351 351 l0 -191 q0 -14 10 -24 q10 -10 24 -10 q14 0 24 10 q10 10 10 24 l0 273 q0 14 -10 24 q-10 10 -24 10 Z" /><glyph glyph-name="049-lock" unicode="&#xe031;" d="M751 523 l0 34 q0 65 -32 119.5 q-32 54.5 -87 87 q-55 32.5 -120 32.5 q-65 0 -120 -32.5 q-55 -32.5 -87 -87 q-32 -54.5 -32 -119.5 l0 -34 q-28 0 -48 -20 q-20 -20 -20 -49 l0 -239 q0 -83 42 -154 q41 -70 110 -111 q72 -42 155 -42 q83 0 155 42 q69 41 110 111 q42 71 42 154 l0 239 q0 29 -20 49 q-20 20 -48 20 ZM341 557 q0 46 23 85.5 q23 39.5 62.5 62 q39.5 22.5 85.5 22.5 q46 0 85.5 -22.5 q39.5 -22.5 62.5 -62 q23 -39.5 23 -85.5 l0 -34 l-342 0 l0 34 ZM751 215 q0 -64 -32 -119 q-32 -55 -87 -87 q-55 -32 -120 -32 q-65 0 -120 32 q-55 32 -87 87 q-32 55 -32 119 l0 239 l478 0 l0 -239 ZM444 284 q0 28 20 48 q20 20 48 20 q28 0 48 -20 q20 -20 20 -48 q0 -19 -9 -34.5 q-9 -15.5 -25 -24.5 l0 -78 q0 -14 -10 -24 q-10 -10 -24 -10 q-14 0 -24 10 q-10 10 -10 24 l0 78 q-16 9 -25 24.5 q-9 15.5 -9 34.5 Z" /><glyph glyph-name="050-menu" unicode="&#xe032;" d="M171 591 q0 14 10 24 q10 10 24 10 l614 0 q14 0 24 -10 q10 -10 10 -24 q0 -14 -10 -24 q-10 -10 -24 -10 l-614 0 q-14 0 -24 10 q-10 10 -10 24 ZM819 386 l-614 0 q-14 0 -24 -10 q-10 -10 -10 -24 q0 -14 10 -24 q10 -10 24 -10 l614 0 q14 0 24 10 q10 10 10 24 q0 14 -10 24 q-10 10 -24 10 ZM819 147 l-614 0 q-14 0 -24 -10 q-10 -10 -10 -24 q0 -14 10 -24 q10 -10 24 -10 l614 0 q14 0 24 10 q10 10 10 24 q0 14 -10 24 q-10 10 -24 10 Z" /><glyph glyph-name="051-message" unicode="&#xe033;&#xe07f;&#xe0b9;" d="M853 659 l-682 0 q-43 0 -73 -30 q-30 -30 -30 -72 l0 -478 q0 -14 10 -24 q10 -10 24 -10 l820 0 q14 0 24 10 q10 10 10 24 l0 478 q0 42 -30 72 q-30 30 -73 30 ZM839 591 l-327 -327 l-327 327 l654 0 ZM887 113 l-750 0 l0 430 l351 -351 q10 -10 24 -10 q14 0 24 10 l351 351 l0 -430 Z" /><glyph glyph-name="052-minus" unicode="&#xe034;" d="M785 318 l-546 0 q-14 0 -24 10 q-10 10 -10 24 q0 14 10 24 q10 10 24 10 l546 0 q14 0 24 -10 q10 -10 10 -24 q0 -14 -10 -24 q-10 -10 -24 -10 Z" /><glyph glyph-name="053-more" unicode="&#xe035;" d="M580 352 q0 -28 -20 -48 q-20 -20 -48 -20 q-28 0 -48 20 q-20 20 -20 48 q0 28 20 48 q20 20 48 20 q28 0 48 -20 q20 -20 20 -48 ZM239 420 q-28 0 -48 -20 q-20 -20 -20 -48 q0 -28 20 -48 q20 -20 48 -20 q28 0 48 20 q20 20 20 48 q0 28 -20 48 q-20 20 -48 20 ZM785 420 q-28 0 -48 -20 q-20 -20 -20 -48 q0 -28 20 -48 q20 -20 48 -20 q28 0 48 20 q20 20 20 48 q0 28 -20 48 q-20 20 -48 20 Z" /><glyph glyph-name="054-new" unicode="&#xe036;" d="M751 250 l68 0 l0 -239 q0 -14 -10 -24 q-10 -10 -24 -10 l-614 0 q-14 0 -24 10 q-10 10 -10 24 l0 546 q0 42 30 72 q30 30 72 30 l171 0 l0 -68 l-171 0 q-14 0 -24 -10 q-10 -10 -10 -24 l0 -512 l546 0 l0 205 ZM887 591 l-136 0 l0 136 q0 15 -10 25 q-10 10 -24 10 q-14 0 -24 -10 q-10 -10 -10 -25 l0 -136 l-137 0 q-14 0 -24 -10 q-10 -10 -10 -24 q0 -14 10 -24 q10 -10 24 -10 l137 0 l0 -137 q0 -14 10 -24 q10 -10 24 -10 q14 0 24 10 q10 10 10 24 l0 137 l136 0 q15 0 25 10 q10 10 10 24 q0 14 -10 24 q-10 10 -25 10 Z" /><glyph glyph-name="055-okay" unicode="&#xe037;" d="M297 598 q-63 0 -115.5 -30 q-52.5 -30 -82.5 -86 q-31 -58 -31 -135 q0 -113 53 -175 q56 -66 162 -66 q64 0 116.5 30.5 q52.5 30.5 81.5 85.5 q32 59 32 136 q-1 117 -60 180 q-56 60 -156 60 ZM289 175 q-69 0 -105 50 q-34 47 -34 131 q0 55 20 96 q18 38 50 58 q32 20 70 20 q67 0 103.5 -47 q36.5 -47 36.5 -133 q0 -57 -21 -98 q-19 -38 -52 -58 q-31 -19 -68 -19 ZM963 113 l-102 0 l-174 234 l0 -234 l-77 0 l0 478 l77 0 l0 -222 l174 222 l95 0 l-190 -231 l197 -247 Z" /><glyph glyph-name="056-pause" unicode="&#xe038;" d="M683 625 l0 -546 q0 -14 -10 -24 q-10 -10 -24.5 -10 q-14.5 0 -24.5 10 q-10 10 -10 24 l0 546 q0 14 10 24 q10 10 24.5 10 q14.5 0 24.5 -10 q10 -10 10 -24 ZM375 659 q-14 0 -24 -10 q-10 -10 -10 -24 l0 -546 q0 -14 10 -24 q10 -10 24.5 -10 q14.5 0 24.5 10 q10 10 10 24 l0 546 q0 14 -10 24 q-10 10 -25 10 Z" /><glyph glyph-name="057-pause-filled" unicode="&#xe039;" d="M785 659 l0 -614 q0 -28 -20 -48 q-20 -20 -48.5 -20 q-28.5 0 -48.5 20 q-20 20 -20 48 l0 614 q0 28 20 48 q20 20 48.5 20 q28.5 0 48.5 -20 q20 -20 20 -48 ZM307 727 q-28 0 -48 -20 q-20 -20 -20 -48 l0 -614 q0 -28 20 -48 q20 -20 48 -20 q28 0 48 20 q20 20 20 48 l0 614 q0 28 -20 48 q-20 20 -48 20 Z" /><glyph glyph-name="058-person" unicode="&#xe03a;" d="M512 318 q65 0 120 32 q55 32 87 87 q32 55 32 120 q0 65 -32 119.5 q-32 54.5 -87 87 q-55 32.5 -120 32.5 q-65 0 -120 -32.5 q-55 -32.5 -87 -87 q-32 -54.5 -32 -119.5 q0 -65 32 -120 q32 -55 87 -87 q55 -32 120 -32 ZM512 727 q46 0 85.5 -22.5 q39.5 -22.5 62.5 -62 q23 -39.5 23 -86 q0 -46.5 -23 -85.5 q-23 -39 -62.5 -62 q-39.5 -23 -85.5 -23 q-46 0 -85.5 23 q-39.5 23 -62.5 62 q-23 39 -23 85.5 q0 46.5 23 86 q23 39.5 62.5 62 q39.5 22.5 85.5 22.5 ZM649 250 l-274 0 q-64 0 -119 -32.5 q-55 -32.5 -87 -87.5 q-32 -55 -32 -119 l0 -69 q0 -14 10 -24 q10 -10 24 -10 l682 0 q14 0 24 10 q10 10 10 24 l0 69 q0 64 -32 119 q-32 55 -87 87.5 q-55 32.5 -119 32.5 ZM819 -23 l-614 0 l0 34 q0 46 23 85 q23 39 62 62 q39 23 85 23 l274 0 q46 0 85 -23 q39 -23 62 -62 q23 -39 23 -85 l0 -34 Z" /><glyph glyph-name="059-play" unicode="&#xe03b;" d="M324 49 q-8 -4 -17 -4 q-9 0 -17 4.5 q-8 4.5 -12.5 12.5 q-4.5 8 -4.5 17 l0 546 q0 9 4.5 17 q4.5 8 12.5 12.5 q8 4.5 17 4.5 q9 0 17 -4 l478 -273 q8 -5 12.5 -13 q4.5 -8 4.5 -17 q0 -9 -4.5 -17 q-4.5 -8 -12.5 -13 l-478 -273 ZM341 566 l0 -428 l375 214 l-375 214 Z" /><glyph glyph-name="060-play-filled" unicode="&#xe03c;" d="M325 16 q-8 -5 -17 -5.5 q-9 -0.5 -17.5 4 q-8.5 4.5 -13 12.5 q-4.5 8 -4.5 18 l0 614 q0 10 4.5 18 q4.5 8 13 12.5 q8.5 4.5 17.5 4 q9 -0.5 17 -5.5 l478 -307 q8 -5 12 -12.5 q4 -7.5 4 -16.5 q0 -9 -4 -16.5 q-4 -7.5 -12 -12.5 l-478 -307 Z" /><glyph glyph-name="061-plus" unicode="&#xe03d;" d="M853 386 l-307 0 l0 307 q0 14 -10 24 q-10 10 -24 10 q-14 0 -24 -10 q-10 -10 -10 -24 l0 -307 l-307 0 q-14 0 -24 -10 q-10 -10 -10 -24 q0 -14 10 -24 q10 -10 24 -10 l307 0 l0 -307 q0 -14 10 -24 q10 -10 24 -10 q14 0 24 10 q10 10 10 24 l0 307 l307 0 q14 0 24 10 q10 10 10 24 q0 14 -10 24 q-10 10 -24 10 Z" /><glyph glyph-name="062-question-mark-circle" unicode="&#xe03e;" d="M512 796 q-120 0 -224 -61 q-100 -59 -159 -159 q-61 -104 -61 -224 q0 -120 61 -224 q59 -100 159 -159 q104 -61 224 -61 q120 0 224 61 q100 59 159 159 q61 104 61 224 q0 120 -61 224 q-59 100 -159 159 q-104 61 -224 61 ZM512 -23 q-102 0 -189 51 q-85 50 -135 135 q-51 87 -51 189 q0 102 51 189 q50 85 135 135 q87 51 189 51 q102 0 189 -51 q85 -50 135 -135 q51 -87 51 -189 q0 -102 -51 -189 q-50 -85 -135 -135 q-87 -51 -189 -51 ZM657 479 q0 -35 -19 -64 q-11 -17 -40 -45 q-22 -21 -31 -32 q-14 -19 -18 -38 q-4 -23 5 -50 l-88 0 q-13 38 -8 69 q4 26 22 49 q11 14 36 37 q22 20 30 31 q13 17 13 34 q0 32 -36 51.5 q-36 19.5 -98 22.5 l11 81 q72 -3 124 -24 q48 -20 73 -53 q24 -31 24 -69 ZM563 130 q0 -21 -15 -36 q-15 -15 -36 -15 q-21 0 -36 15 q-15 15 -15 36 q0 21 15 36 q15 15 36 15 q21 0 36 -15 q15 -15 15 -36 Z" /><glyph glyph-name="063-record" unicode="&#xe03f;" d="M512 45 q-83 0 -155 42 q-69 41 -110 110 q-42 72 -42 155 q0 83 42 155 q41 69 110 110 q72 42 155 42 q83 0 155 -42 q69 -41 110 -110 q42 -72 42 -155 q0 -83 -42 -155 q-41 -69 -110 -110 q-72 -42 -155 -42 ZM512 591 q-65 0 -120 -32 q-55 -32 -87 -87 q-32 -55 -32 -120 q0 -65 32 -120 q32 -55 87 -87 q55 -32 120 -32 q65 0 120 32 q55 32 87 87 q32 55 32 120 q0 65 -32 120 q-32 55 -87 87 q-55 32 -120 32 Z" /><glyph glyph-name="064-record-filled" unicode="&#xe040;" d="M204 352 q0 -83 42 -155 q41 -70 111 -110 q71 -42 154.5 -42 q83.5 0 155.5 42 q69 40 110 110 q42 72 42 155 q0 83 -42 155 q-41 70 -110 110 q-72 42 -155.5 42 q-83.5 0 -154.5 -42 q-70 -40 -111 -110 q-42 -72 -42 -155 Z" /><glyph glyph-name="065-rename" unicode="&#xe041;" d="M478 11 q0 -14 -10 -24 q-10 -10 -24 -10 l-273 0 q-14 0 -24 10 q-10 10 -10 24 q0 14 10 24 q10 10 24 10 l102 0 l0 614 l-102 0 q-14 0 -24 10 q-10 10 -10 24 q0 14 10 24 q10 10 24 10 l273 0 q14 0 24 -10 q10 -10 10 -24 q0 -14 -10 -24 q-10 -10 -24 -10 l-103 0 l0 -614 l103 0 q14 0 24 -10 q10 -10 10 -24 ZM962 113 l-83 0 l-49 137 l-226 0 l-49 -137 l-83 0 l200 546 l90 0 l200 -546 ZM805 318 l-63 177 q-14 36 -25 82 l-1 0 q-11 -47 -24 -82 l-64 -177 l177 0 Z" /><glyph glyph-name="066-replay" unicode="&#xe042;" d="M430 584 q-8 5 -17 5 q-9 0 -17 -5 q-17 -11 -17 -31 l0 -409 q0 -20 17 -31 q8 -5 17 -5 q9 0 17 5 l307 205 q14 9 14 27 q0 14 -14 27 l-307 212 ZM447 212 l0 283 l212 -140 l-212 -143 ZM512 796 q-121 0 -224 -61 q-101 -58 -159 -159 q-61 -103 -61 -224 q0 -121 61 -224 q58 -101 159 -159 q103 -61 224 -61 q99 0 189 43 q90 43 152 118 l0 -92 q0 -16 9.5 -25.5 q9.5 -9.5 25 -9.5 q15.5 0 25 9.5 q9.5 9.5 9.5 25.5 l0 170 q0 16 -9.5 25 q-9.5 9 -25.5 9 l-170 0 q-16 0 -25 -9 q-9 -9 -9 -24.5 q0 -15.5 9 -25 q9 -9.5 25 -9.5 l82 0 q-54 -64 -129.5 -100 q-75.5 -36 -157.5 -36 q-102 0 -190 51 q-85 49 -134 134 q-51 88 -51 190 q0 102 51 190 q49 85 134 134 q88 51 190 51 q102 0 190 -51 q85 -49 134 -134 q51 -88 51 -190 q0 -15 9.5 -24.5 q9.5 -9.5 25 -9.5 q15.5 0 25 9.5 q9.5 9.5 9.5 24.5 q0 121 -61 224 q-58 101 -159 159 q-103 61 -224 61 Z" /><glyph glyph-name="067-reply-message" unicode="&#xe043;" d="M385 89 q10 -10 24.5 -10 q14.5 0 24 10 q9.5 10 9.5 24 q0 14 -10 24 l-180 181 l361 0 q56 0 103 -27.5 q47 -27.5 74.5 -74.5 q27.5 -47 27.5 -103 l0 -34 q0 -14 10 -24 q10 -10 24 -10 q14 0 24 10 q10 10 10 24 l0 34 q0 74 -36.5 137 q-36.5 63 -99.5 99.5 q-63 36.5 -137 36.5 l-361 0 l180 181 q10 10 10 24 q0 14 -9.5 24 q-9.5 10 -24 10 q-14.5 0 -24.5 -10 l-239 -239 q-10 -10 -10 -24 q0 -14 10 -24 l239 -239 Z" /><glyph glyph-name="068-reply-message-2" unicode="&#xe044;" d="M614 523 l-204 0 l0 102 q0 10 -6 19 q-6 9 -15.5 13 q-9.5 4 -19.5 1.5 q-10 -2.5 -18 -9.5 l-273 -273 q-10 -10 -10 -24 q0 -14 10 -24 l273 -273 q8 -8 18 -10 q10 -2 19.5 2 q9.5 4 15.5 13 q6 9 6 19 l0 102 l443 0 q14 0 24 10 q10 10 10 24 l0 35 q0 74 -36.5 136.5 q-36.5 62.5 -99.5 99.5 q-63 37 -137 37 ZM341 250 l0 -89 l-190 191 l190 191 l0 -89 l273 0 q56 0 103 -27.5 q47 -27.5 74.5 -74.5 q27.5 -47 27.5 -102 l-478 0 Z" /><glyph glyph-name="069-reply-message-all" unicode="&#xe045;" d="M366 137 q10 -10 10 -24 q0 -14 -10 -24 q-10 -10 -24.5 -10 q-14.5 0 -24.5 10 l-238 239 q-10 10 -10 24 q0 14 10 24 l238 239 q10 10 24.5 10 q14.5 0 24.5 -10 q10 -10 10 -24 q0 -14 -10 -24 l-215 -215 l215 -215 ZM683 386 l-294 0 l181 181 q10 10 10 24 q0 14 -10 24 q-10 10 -24 10 q-14 0 -24 -10 l-239 -239 q-10 -10 -10 -24 q0 -14 10 -24 l239 -239 q10 -10 24 -10 q14 0 24 10 q10 10 10 24 q0 14 -10 24 l-181 181 l294 0 q55 0 102 -27.5 q47 -27.5 74.5 -74.5 q27.5 -47 27.5 -103 l0 -34 q0 -14 10.5 -24 q10.5 -10 24.5 -10 q14 0 24 10 q10 10 10 24 l0 34 q0 74 -37 137 q-37 63 -99.5 99.5 q-62.5 36.5 -136.5 36.5 Z" /><glyph glyph-name="070-reply-message-all-2" unicode="&#xe046;" d="M400 103 q10 -10 10 -24 q0 -14 -10 -24 q-10 -10 -24 -10 q-14 0 -24 10 l-273 273 q-10 10 -10 24 q0 14 10 24 l273 273 q10 10 24 10 q14 0 24 -10 q10 -10 10 -24 q0 -14 -10 -24 l-249 -249 l249 -249 ZM956 250 l0 -35 q0 -14 -10 -24 q-10 -10 -24 -10 l-308 0 l0 -102 q0 -10 -5.5 -19 q-5.5 -9 -15 -13 q-9.5 -4 -20 -1.5 q-10.5 2.5 -17.5 9.5 l-273 273 q-10 10 -10 24 q0 14 10 24 l273 273 q7 8 17.5 10 q10.5 2 20 -2 q9.5 -4 15 -13 q5.5 -9 5.5 -19 l0 -102 l69 0 q74 0 136.5 -37 q62.5 -37 99.5 -99.5 q37 -62.5 37 -136.5 ZM887 250 q0 55 -27.5 102 q-27.5 47 -74.5 74.5 q-47 27.5 -102 27.5 l-137 0 l0 89 l-191 -191 l191 -191 l0 89 l341 0 Z" /><glyph glyph-name="071-retry" unicode="&#xe047;" d="M649 489 q0 -15 10 -25 q10 -10 24 -10 l170 0 q14 0 24 10 q10 10 10 25 l0 170 q0 14 -10 24 q-10 10 -24 10 q-14 0 -24 -10 q-10 -10 -10 -24 l0 -92 q-52 75 -133.5 117.5 q-81.5 42.5 -173.5 42.5 q-102 0 -189 -51 q-85 -50 -135 -135 q-51 -87 -51 -189 q0 -102 51 -189 q50 -85 135 -135 q87 -51 189 -51 q96 0 179 44 q81 44 132 120 q53 79 62 173 q2 15 -7 25.5 q-9 10.5 -23 12 q-14 1.5 -25 -7.5 q-11 -9 -13 -23 q-7 -78 -49.5 -141 q-42.5 -63 -110 -99 q-67.5 -36 -145.5 -36 q-83 0 -155 42 q-69 41 -110 110 q-42 72 -42 155 q0 83 42 155 q41 69 110 110 q72 42 155 42 q77 0 144.5 -36.5 q67.5 -36.5 110.5 -99.5 l-84 0 q-14 0 -24 -10 q-10 -10 -10 -24 Z" /><glyph glyph-name="072-rewind" unicode="&#xe048;" d="M146 328 l273 -273 q10 -10 24.5 -10 q14.5 0 24.5 10 q10 10 10 24 q0 14 -10 24 l-249 249 l249 249 q10 10 10 24 q0 14 -10 24 q-10 10 -24.5 10 q-14.5 0 -24.5 -10 l-273 -273 q-10 -10 -10 -24 q0 -14 10 -24 ZM488 376 l273 273 q10 10 24 10 q14 0 24 -10 q10 -10 10 -24 q0 -14 -10 -24 l-249 -249 l249 -249 q10 -10 10 -24 q0 -14 -10 -24 q-10 -10 -24 -10 q-14 0 -24 10 l-273 273 q-10 10 -10 24 q0 14 10 24 Z" /><glyph glyph-name="073-rewind-filled" unicode="&#xe049;" d="M887 45 q0 -10 -5 -18.5 q-5 -8.5 -14 -12.5 q-9 -4 -19 -3 q-10 1 -18 8 l-319 261 l0 -235 q0 -10 -5.5 -18.5 q-5.5 -8.5 -14.5 -12.5 q-9 -4 -18.5 -3 q-9.5 1 -17.5 8 l-375 307 q-13 10 -13 26 q0 16 13 26 l375 307 q8 7 17.5 8 q9.5 1 18.5 -3 q9 -4 14.5 -12.5 q5.5 -8.5 5.5 -18.5 l0 -235 l319 261 q8 7 18 8 q10 1 19 -3 q9 -4 14 -12.5 q5 -8.5 5 -18.5 l0 -614 Z" /><glyph glyph-name="074-save" unicode="&#xe04a;" d="M853 727 l-682 0 q-14 0 -24 -10 q-10 -10 -10 -24 l0 -580 q0 -37 18 -68.5 q18 -31.5 49.5 -49.5 q31.5 -18 68.5 -18 l478 0 q37 0 68.5 18 q31.5 18 49.5 49.5 q18 31.5 18 68.5 l0 580 q0 14 -10 24 q-10 10 -24 10 ZM341 113 l103 0 l0 137 l-103 0 l0 68 l342 0 l0 -273 l-342 0 l0 68 ZM819 113 q0 -28 -20 -48 q-20 -20 -48 -20 l0 273 q0 28 -20 48 q-20 20 -48 20 l-342 0 q-28 0 -48 -20 q-20 -20 -20 -48 l0 -273 q-28 0 -48 20 q-20 20 -20 48 l0 546 l614 0 l0 -546 Z" /><glyph glyph-name="075-save-2" unicode="&#xe04b;" d="M366 410 l112 -112 l0 464 q0 14 10 24 q10 10 24 10 q14 0 24 -10 q10 -10 10 -24 l0 -464 l112 112 q10 10 24.5 10 q14.5 0 24.5 -10 q10 -10 10 -24 q0 -14 -10 -24 l-171 -171 q-10 -10 -24 -10 q-14 0 -24 10 l-171 171 q-10 10 -10 24 q0 14 10 24 q10 10 24.5 10 q14.5 0 24.5 -10 ZM853 659 l-239 0 l0 -68 l239 0 q14 0 24 -10 q10 -10 10 -24 l0 -444 l-750 0 l0 478 l273 0 l0 68 l-69 68 l-204 0 q-29 0 -49 -20 q-20 -20 -20 -48 l0 -580 q0 -14 10 -24 q10 -10 24 -10 l820 0 q14 0 24 10 q10 10 10 24 l0 478 q0 42 -30 72 q-30 30 -73 30 Z" /><glyph glyph-name="076-save-3" unicode="&#xe04c;" d="M819 454 l68 0 l0 -443 q0 -14 -10 -24 q-10 -10 -24 -10 l-682 0 q-14 0 -24 10 q-10 10 -10 24 l0 614 q0 42 30 72 q30 30 72 30 l375 0 l0 -68 l-375 0 q-14 0 -24 -10 q-10 -10 -10 -24 l0 -580 l614 0 l0 409 ZM478 557 q0 14 -10 24 q-10 10 -24 10 q-14 0 -24 -10 q-10 -10 -10 -24 l0 -273 q0 -14 10 -24 q10 -10 24 -10 l273 0 q14 0 24 10 q10 10 10 24 q0 14 -10 24 q-10 10 -24 10 l-191 0 l352 351 q10 10 10 24 q0 14 -10 24 q-10 10 -24.5 10 q-14.5 0 -24.5 -10 l-351 -351 l0 191 Z" /><glyph glyph-name="077-search" unicode="&#xe04d;" d="M146 35 q-10 -10 -10 -24.5 q0 -14.5 10 -24.5 q10 -10 24.5 -10 q14.5 0 24.5 10 l193 194 q41 -32 90 -49.5 q49 -17.5 102 -17.5 q84 0 155 42 q70 41 110 110 q42 72 42 155.5 q0 83.5 -42 154.5 q-40 70 -110 110 q-71 42 -154.5 42 q-83.5 0 -155.5 -42 q-69 -40 -110 -110 q-42 -71 -42 -155 q0 -53 17.5 -102 q17.5 -49 49.5 -89 l-194 -194 ZM580 181 q-65 0 -119.5 32.5 q-54.5 32.5 -87 87 q-32.5 54.5 -32.5 119.5 q0 65 32.5 120 q32.5 55 87 87 q54.5 32 119.5 32 q65 0 120 -32 q55 -32 87 -87 q32 -55 32 -120 q0 -65 -32 -119.5 q-32 -54.5 -87 -87 q-55 -32.5 -120 -32.5 Z" /><glyph glyph-name="078-settings" unicode="&#xe04e;" d="M512 523 q-46 0 -85.5 -23 q-39.5 -23 -62.5 -62.5 q-23 -39.5 -23 -85.5 q0 -46 23 -85.5 q23 -39.5 62.5 -62.5 q39.5 -23 85.5 -23 q46 0 85.5 23 q39.5 23 62.5 62.5 q23 39.5 23 85.5 q0 46 -23 85.5 q-23 39.5 -62.5 62.5 q-39.5 23 -85.5 23 ZM512 250 q-42 0 -72 30 q-30 30 -30 72 q0 42 30 72 q30 30 72 30 q42 0 72 -30 q30 -30 30 -72 q0 -42 -30 -72 q-30 -30 -72 -30 ZM850 352 l67 120 q9 16 1 32 l-68 136 q-4 9 -12.5 14 q-8.5 5 -18.5 5 l-142 0 l-67 119 q-5 8 -13 13 q-8 5 -17 5 l-136 0 q-9 0 -17 -5 q-8 -5 -13 -13 l-67 -119 l-142 0 q-10 0 -18 -5 q-8 -5 -13 -14 l-68 -136 q-8 -16 1 -32 l67 -120 l-67 -120 q-9 -16 -1 -32 l68 -136 q5 -9 13 -14 q8 -5 18 -5 l142 0 l67 -119 q4 -8 12.5 -13 q8.5 -5 17.5 -5 l136 0 q9 0 17 5 q8 5 13 13 l67 119 l142 0 q10 0 18.5 5 q8.5 5 12.5 14 l68 136 q8 16 -1 32 l-67 120 ZM781 335 l68 -121 l-51 -101 l-141 0 q-9 0 -17 -4.5 q-8 -4.5 -13 -12.5 l-67 -119 l-96 0 l-67 119 q-5 8 -13 12.5 q-8 4.5 -17 4.5 l-141 0 l-51 101 l68 121 q4 8 4 17 q0 9 -4 17 l-68 121 l51 101 l141 0 q9 0 17 4.5 q8 4.5 13 12.5 l67 119 l96 0 l67 -119 q5 -8 13 -12.5 q8 -4.5 17 -4.5 l141 0 l51 -101 l-68 -121 q-4 -8 -4 -17 q0 -9 4 -17 Z" /><glyph glyph-name="079-shopping-trolley" unicode="&#xe04f;" d="M341 -23 q0 -29 -20 -49 q-20 -20 -48 -20 q-28 0 -48 20 q-20 20 -20 48.5 q0 28.5 20 48.5 q20 20 48 20 q28 0 48 -20 q20 -20 20 -48 ZM683 45 q-28 0 -48.5 -20 q-20.5 -20 -20.5 -48.5 q0 -28.5 20.5 -48.5 q20.5 -20 48.5 -20 q28 0 48 20 q20 20 20 48.5 q0 28.5 -20 48.5 q-20 20 -48 20 ZM887 693 l0 -239 q0 -51 -32.5 -89 q-32.5 -38 -83.5 -45 l-441 -67 l-36 -72 l423 0 q14 0 24 -10 q10 -10 10 -24 q0 -14 -10 -24 q-10 -10 -24 -10 l-478 0 q-9 0 -16.5 4.5 q-7.5 4.5 -12.5 12 q-5 7.5 -5.5 16 q-0.5 8.5 4.5 16.5 l63 127 l-67 438 l-103 0 q-14 0 -24 10.5 q-10 10.5 -10 24.5 q0 14 10 24 q10 10 24 10 l103 0 q25 0 44.5 -16.5 q19.5 -16.5 22.5 -41.5 l2 -11 l579 0 q14 0 24 -10 q10 -10 10 -24 ZM819 659 l-535 0 l52 -336 l425 64 q25 4 41.5 23 q16.5 19 16.5 44 l0 205 Z" /><glyph glyph-name="080-speech-bubble" unicode="&#xe050;" d="M922 727 l-820 0 q-14 0 -24 -10 q-10 -10 -10 -24 l0 -443 q0 -38 18.5 -69 q18.5 -31 50 -49.5 q31.5 -18.5 68.5 -18.5 l68 0 l0 -171 q0 -14 10 -24 q10 -10 24 -10 q12 0 21 7 l264 198 l227 0 q37 0 68.5 18.5 q31.5 18.5 50 49.5 q18.5 31 18.5 69 l0 443 q0 14 -10 24 q-10 10 -24 10 ZM887 250 q0 -29 -20 -49 q-20 -20 -48 -20 l-239 0 q-11 0 -20 -6 l-219 -164 l0 136 q0 14 -10 24 q-10 10 -24 10 l-102 0 q-28 0 -48 20 q-20 20 -20 49 l0 409 l750 0 l0 -409 Z" /><glyph glyph-name="081-standby" unicode="&#xe051;" d="M478 352 l0 410 q0 14 10 24 q10 10 24 10 q14 0 24 -10 q10 -10 10 -24 l0 -410 q0 -14 -10 -24 q-10 -10 -24 -10 q-14 0 -24 10 q-10 10 -10 24 ZM700 677 q-12 7 -26 3.5 q-14 -3.5 -21 -16 q-7 -12.5 -3.5 -26 q3.5 -13.5 15.5 -20.5 q72 -41 113 -112.5 q41 -71.5 41 -154 q0 -82.5 -42 -154.5 q-41 -69 -110 -110 q-72 -42 -155 -42 q-83 0 -155 42 q-69 41 -110 110 q-42 72 -42 154.5 q0 82.5 41 154 q41 71.5 112 112.5 q13 7 16.5 20.5 q3.5 13.5 -3.5 26 q-7 12.5 -20.5 16 q-13.5 3.5 -26.5 -3.5 q-87 -51 -137 -138 q-50 -87 -50 -188 q0 -101 51 -188 q50 -85 135 -135 q87 -51 189 -51 q102 0 189 51 q85 50 135 135 q51 87 51 188 q0 101 -50 188 q-50 87 -137 138 Z" /><glyph glyph-name="082-star" unicode="&#xe052;" d="M954 432 q-3 9 -10.5 15 q-7.5 6 -17.5 7 l-255 32 l-128 257 q-5 9 -13 14 q-8 5 -17.5 5 q-9.5 0 -18 -5 q-8.5 -5 -12.5 -14 l-129 -257 l-255 -32 q-9 -1 -17 -7 q-8 -6 -11 -15.5 q-3 -9.5 -0.5 -19 q2.5 -9.5 9.5 -16.5 l191 -191 l-64 -254 q-2 -10 1 -19.5 q3 -9.5 11 -16 q8 -6.5 17.5 -7.5 q9.5 -1 18.5 4 l258 129 l258 -129 q9 -5 19 -4 q10 1 17.5 7.5 q7.5 6.5 10.5 16 q3 9.5 1 18.5 l-64 255 l191 191 q8 7 10 16.5 q2 9.5 -1 19.5 ZM693 240 q-7 -7 -9.5 -15.5 q-2.5 -8.5 0.5 -17.5 l50 -201 l-207 103 q-15 8 -30 0 l-207 -103 l50 201 q3 9 0.5 17.5 q-2.5 8.5 -9.5 15.5 l-155 155 l204 26 q8 1 15 6 q7 5 11 12 l106 212 l106 -212 q8 -16 26 -19 l204 -25 l-155 -155 Z" /><glyph glyph-name="083-stop" unicode="&#xe053;" d="M683 79 l-342 0 q-42 0 -72 30 q-30 30 -30 72 l0 342 q0 42 30 72 q30 30 72 30 l342 0 q42 0 72 -30 q30 -30 30 -72 l0 -342 q0 -42 -30 -72 q-30 -30 -72 -30 ZM341 557 q-14 0 -24 -10 q-10 -10 -10 -24 l0 -342 q0 -14 10 -24 q10 -10 24 -10 l342 0 q14 0 24 10 q10 10 10 24 l0 342 q0 14 -10 24 q-10 10 -24 10 l-342 0 Z" /><glyph glyph-name="084-stop-filled" unicode="&#xe054;" d="M683 79 l-342 0 q-42 0 -72 30 q-30 30 -30 72 l0 342 q0 42 30 72 q30 30 72 30 l342 0 q42 0 72 -30 q30 -30 30 -72 l0 -342 q0 -42 -30 -72 q-30 -30 -72 -30 Z" /><glyph glyph-name="085-synchronise" unicode="&#xe055;" d="M885 314 q-9 -94 -62 -173 q-51 -76 -132 -120 q-83 -44 -179 -44 q-92 0 -173.5 42.5 q-81.5 42.5 -133.5 117.5 l0 -92 q0 -14 -10 -24 q-10 -10 -24 -10 q-14 0 -24 10 q-10 10 -10 24 l0 170 q0 15 10 25 q10 10 24 10 l170 0 q14 0 24 -10 q10 -10 10 -24.5 q0 -14.5 -10 -24.5 q-10 -10 -24 -10 l-84 0 q43 -63 110.5 -99.5 q67.5 -36.5 145 -36.5 q77.5 0 145 36 q67.5 36 110 99.5 q42.5 63.5 49.5 140.5 q2 14 13 23 q11 9 25 7.5 q14 -1.5 23 -12 q9 -10.5 7 -25.5 ZM853 693 q-14 0 -24 -10 q-10 -10 -10 -24 l0 -92 q-52 75 -133.5 117.5 q-81.5 42.5 -173.5 42.5 q-96 0 -179 -44 q-81 -44 -132 -120 q-53 -79 -62 -173 q-2 -15 7 -25.5 q9 -10.5 23 -12 q14 -1.5 25 7.5 q11 9 12 23 q8 77 50.5 140.5 q42.5 63.5 110 99.5 q67.5 36 145 36 q77.5 0 145 -36.5 q67.5 -36.5 110.5 -99.5 l-84 0 q-14 0 -24 -10 q-10 -10 -10 -24.5 q0 -14.5 10 -24.5 q10 -10 24 -10 l170 0 q14 0 24 10 q10 10 10 25 l0 170 q0 14 -10 24 q-10 10 -24 10 Z" /><glyph glyph-name="086-thumb-up" unicode="&#xe056;" d="M785 489 l-168 0 l25 92 q7 24 7 44 q0 46 -23 85.5 q-23 39.5 -62.5 62.5 q-39.5 23 -85.5 23 l-34 0 q-14 0 -24 -10 q-10 -10 -10 -24 l0 -230 l-65 -107 q-14 14 -32.5 21.5 q-18.5 7.5 -39.5 7.5 l-171 0 q-14 0 -24 -10 q-10 -10 -10 -24 l0 -409 q0 -14 10 -24 q10 -10 24 -10 l171 0 q42 0 72 30 q30 30 30 72 l0 8 l120 -72 q8 -4 17 -4 l137 0 q64 0 119 32 q55 32 87 87 q32 55 32 120 l0 136 q0 42 -30 72.5 q-30 30.5 -72 30.5 ZM307 79 q0 -14 -10 -24 q-10 -10 -24 -10 l-136 0 l0 341 l136 0 q14 0 24 -10 q10 -10 10 -24 l0 -273 ZM819 250 q0 -47 -23 -86 q-23 -39 -62 -62 q-39 -23 -85 -23 l-127 0 l-147 88 l0 176 l98 162 q5 8 5 18 l0 204 q42 0 72 -30 q30 -30 30 -72 q0 -11 -4 -26 l-36 -136 q-4 -16 6 -29.5 q10 -13.5 27 -13.5 l212 0 q14 0 24 -10 q10 -10 10 -24 l0 -136 Z" /><glyph glyph-name="087-upload" unicode="&#xe057;" d="M887 215 l0 -204 q0 -14 -10 -24 q-10 -10 -24 -10 l-682 0 q-14 0 -24 10 q-10 10 -10 24 l0 204 q0 15 10 25 q10 10 24 10 q14 0 24 -10 q10 -10 10 -25 l0 -170 l614 0 l0 170 q0 15 10 25 q10 10 24 10 q14 0 24 -10 q10 -10 10 -25 ZM331 464 l147 147 l0 -396 q0 -14 10 -24 q10 -10 24 -10 q14 0 24 10 q10 10 10 24 l0 396 l147 -146 q10 -10 24 -10 q14 0 24 10 q10 10 10 24 q0 14 -10 24 l-205 205 q-10 10 -24 10 q-14 0 -24 -10 l-205 -205 q-10 -10 -10 -24 q0 -14 10 -24 q10 -10 24 -10.5 q14 -0.5 24 9.5 Z" /><glyph glyph-name="088-upload-cloud" unicode="&#xe058;" d="M956 386 q0 -74 -37 -136.5 q-37 -62.5 -99.5 -99.5 q-62.5 -37 -136.5 -37 l-69 0 l0 68 l69 0 q55 0 102 27.5 q47 27.5 74.5 75 q27.5 47.5 27.5 103 q0 55.5 -27.5 102.5 q-27.5 47 -74.5 74.5 q-47 27.5 -102 27.5 l-46 0 q-11 0 -20 6.5 q-9 6.5 -12 16.5 q-19 51 -63 82 q-44 31 -98 31 q-47 0 -86 -22.5 q-39 -22.5 -62 -62 q-23 -39.5 -23 -85.5 l0 -12 q0 -11 -6.5 -20 q-6.5 -9 -16.5 -12 q-51 -18 -82 -62.5 q-31 -44.5 -31 -98.5 q0 -46 22.5 -85.5 q22.5 -39.5 62 -62.5 q39.5 -23 85.5 -23 l103 0 l0 -68 l-103 0 q-65 0 -119.5 32 q-54.5 32 -87 87 q-32.5 55 -32.5 120 q0 69 37.5 127.5 q37.5 58.5 99.5 88.5 q3 62 35.5 114.5 q32.5 52.5 86.5 83 q54 30.5 117 30.5 q69 0 127.5 -37.5 q58.5 -37.5 87.5 -99.5 l24 0 q74 0 136.5 -36.5 q62.5 -36.5 99.5 -99.5 q37 -63 37 -137 ZM673 259 q10 10 10 24.5 q0 14.5 -10 24.5 l-137 136 q-10 10 -24 10 q-14 0 -24 -10 l-136 -136 q-10 -10 -10 -24.5 q0 -14.5 10 -24 q10 -9.5 24 -9.5 q14 0 24 9 l78 79 l0 -396 q0 -14 10 -24 q10 -10 24 -10 q14 0 24 10 q10 10 10 24 l0 396 l78 -78 q10 -10 24.5 -10.5 q14.5 -0.5 24.5 9.5 Z" /><glyph glyph-name="089-volume-fortissimo" unicode="&#xe059;" d="M731 515 q54 -72 54 -163 q0 -91 -54 -163 q-9 -12 -23 -14 q-14 -2 -25 6.5 q-11 8.5 -13 22.5 q-2 14 6 25 q41 55 41 123 q0 68 -41 123 q-8 11 -6 25 q2 14 13 22.5 q11 8.5 25 6.5 q14 -2 23 -14 ZM851 638 q-10 11 -24 12 q-14 1 -24.5 -8 q-10.5 -9 -12 -23 q-1.5 -14 7.5 -25 q44 -50 66.5 -112.5 q22.5 -62.5 22.5 -129.5 q0 -67 -22.5 -129.5 q-22.5 -62.5 -65.5 -112.5 q-9 -11 -8 -25 q1 -14 12 -23.5 q11 -9.5 25 -8 q14 1.5 23 12.5 q51 60 78 133.5 q27 73.5 27 152.5 q0 79 -27 153 q-27 74 -78 133 ZM546 693 l0 -683 q0 -9 -5 -17 q-5 -8 -13 -12.5 q-8 -4.5 -17.5 -4 q-9.5 0.5 -17.5 5.5 l-196 131 l-195 0 q-14 0 -24 10 q-10 10 -10 24 l0 410 q0 14 10 24 q10 10 24 10 l195 0 l196 131 q8 5 17.5 5.5 q9.5 0.5 18 -4 q8.5 -4.5 13 -13 q4.5 -8.5 4.5 -17.5 ZM478 630 l-152 -102 q-8 -5 -19 -5 l-170 0 l0 -342 l170 0 q10 0 19 -5 l152 -102 l0 556 Z" /><glyph glyph-name="090-volume-forte" unicode="&#xe05a;" d="M765 453 q20 -48 20 -101 q0 -53 -20 -101 q-5 -13 -18 -19 q-13 -6 -26 -0.5 q-13 5.5 -18.5 18.5 q-5.5 13 -0.5 26 q15 37 15 76 q0 39 -15 76 q-5 13 0.5 26 q5.5 13 18.5 18.5 q13 5.5 26 -0.5 q13 -6 18 -19 ZM913 541 q-6 13 -19.5 17.5 q-13.5 4.5 -26 -1.5 q-12.5 -6 -17.5 -19 q-5 -13 1 -26 q36 -76 36 -160 q0 -84 -35 -160 q-6 -12 -1.5 -25.5 q4.5 -13.5 17.5 -19.5 q13 -6 26 -1.5 q13 4.5 19 17.5 q43 90 43 189 q0 99 -43 189 ZM546 693 l0 -683 q0 -9 -5 -17 q-5 -8 -13 -12.5 q-8 -4.5 -17.5 -4 q-9.5 0.5 -17.5 5.5 l-196 131 l-195 0 q-14 0 -24 10 q-10 10 -10 24 l0 410 q0 14 10 24 q10 10 24 10 l195 0 l196 131 q8 5 17.5 5.5 q9.5 0.5 18 -4 q8.5 -4.5 13 -13 q4.5 -8.5 4.5 -17.5 ZM478 630 l-152 -102 q-8 -5 -19 -5 l-170 0 l0 -342 l170 0 q10 0 19 -5 l152 -102 l0 556 Z" /><glyph glyph-name="091-volume-piano" unicode="&#xe05b;" d="M528 723 q-8 5 -17.5 4.5 q-9.5 -0.5 -17.5 -5.5 l-196 -131 l-195 0 q-14 0 -24 -10 q-10 -10 -10 -24 l0 -410 q0 -14 10 -24 q10 -10 24 -10 l195 0 l196 -131 q8 -5 17.5 -5.5 q9.5 -0.5 18 4 q8.5 4.5 13 12.5 q4.5 8 4.5 17 l0 683 q0 9 -5 17.5 q-5 8.5 -13 12.5 ZM478 74 l-152 102 q-9 5 -19 5 l-170 0 l0 342 l170 0 q11 0 19 5 l152 102 l0 -556 ZM785 352 q0 -53 -20 -101 q-5 -13 -18 -19 q-13 -6 -26 -0.5 q-13 5.5 -18.5 18.5 q-5.5 13 -0.5 26 q15 37 15 76 q0 39 -15 76 q-5 13 0.5 26 q5.5 13 18.5 18 q13 5 26 -0.5 q13 -5.5 18 -18.5 q20 -48 20 -101 Z" /><glyph glyph-name="092-volume-pianissimo" unicode="&#xe05c;" d="M528 723 q-8 5 -17.5 4.5 q-9.5 -0.5 -17.5 -5.5 l-196 -131 l-195 0 q-14 0 -24 -10 q-10 -10 -10 -24 l0 -410 q0 -14 10 -24 q10 -10 24 -10 l195 0 l196 -131 q8 -5 17.5 -5.5 q9.5 -0.5 18 4 q8.5 4.5 13 12.5 q4.5 8 4.5 17 l0 683 q0 9 -5 17.5 q-5 8.5 -13 12.5 ZM478 74 l-152 102 q-9 5 -19 5 l-170 0 l0 342 l170 0 q11 0 19 5 l152 102 l0 -556 Z" /><glyph glyph-name="093-volume-mute" unicode="&#xe05d;" d="M912 274 q10 -10 10 -24 q0 -14 -10 -24 q-10 -10 -24 -10 q-14 0 -24 10 l-79 78 l-78 -78 q-10 -10 -24 -10 q-14 0 -24 10 q-10 10 -10 24 q0 14 10 24 l78 78 l-78 78 q-10 10 -10 24 q0 14 10 24 q10 10 24 10 q14 0 24 -10 l78 -78 l78 78 q10 10 24 10 q14 0 24 -10 q10 -10 10 -24 q0 -14 -10 -24 l-78 -78 l79 -78 ZM546 693 l0 -683 q0 -9 -5 -17 q-5 -8 -13 -12.5 q-8 -4.5 -17.5 -4 q-9.5 0.5 -17.5 5.5 l-196 131 l-195 0 q-14 0 -24 10 q-10 10 -10 24 l0 410 q0 14 10 24 q10 10 24 10 l195 0 l196 131 q8 5 17.5 5.5 q9.5 0.5 18 -4 q8.5 -4.5 13 -13 q4.5 -8.5 4.5 -17.5 ZM478 630 l-152 -102 q-8 -5 -19 -5 l-170 0 l0 -342 l170 0 q10 0 19 -5 l152 -102 l0 556 Z" /><glyph glyph-name="094-warning" unicode="&#xe05e;" d="M943 129 l-342 614 q-13 25 -37 39 q-24 14 -52 14 q-28 0 -52 -14 q-24 -14 -37 -39 l-342 -614 q-13 -24 -13 -50 q0 -42 30 -72 q30 -30 73 -30 l682 0 q43 0 73 30 q30 30 30 72 q0 26 -13 50 ZM853 45 l-682 0 q-14 0 -24 10 q-10 10 -10 24 q0 9 4 17 l341 614 q5 8 13 12.5 q8 4.5 17 4.5 q9 0 17 -4.5 q8 -4.5 13 -12.5 l341 -614 q4 -8 4 -17 q0 -14 -10 -24 q-10 -10 -24 -10 ZM563 164 q0 -21 -15 -36 q-15 -15 -36 -15 q-21 0 -36 15 q-15 15 -15 36.5 q0 21.5 15 36 q15 14.5 36 14.5 q21 0 36 -14.5 q15 -14.5 15 -36.5 ZM461 523 l102 0 l0 -103 l-17 -170 l-68 0 l-17 170 l0 103 Z" /><glyph glyph-name="095-zoom-in" unicode="&#xe05f;" d="M717 420 q0 -14 -10 -24 q-10 -10 -24 -10 l-69 0 l0 -68 q0 -14 -10 -24 q-10 -10 -24 -10 q-14 0 -24 10 q-10 10 -10 24 l0 68 l-68 0 q-14 0 -24 10 q-10 10 -10 24 q0 14 10 24 q10 10 24 10 l68 0 l0 69 q0 14 10 24 q10 10 24 10 q14 0 24 -10 q10 -10 10 -24 l0 -69 l69 0 q14 0 24 -10 q10 -10 10 -24 ZM887 420 q0 -83 -42 -155 q-40 -69 -110 -110 q-71 -42 -155 -42 q-53 0 -102 17.5 q-49 17.5 -89 49.5 l-194 -194 q-10 -10 -24 -10 q-14 0 -24 10 q-10 10 -10 24.5 q0 14.5 10 24.5 l194 194 q-33 40 -50.5 89 q-17.5 49 -17.5 102 q0 84 42 155 q41 70 110 110 q72 42 155.5 42 q83.5 0 154.5 -42 q70 -40 110 -110 q42 -71 42 -155 ZM819 420 q0 65 -32 120 q-32 55 -87 87 q-55 32 -120 32 q-65 0 -119.5 -32 q-54.5 -32 -87 -87 q-32.5 -55 -32.5 -120 q0 -65 32.5 -119.5 q32.5 -54.5 87 -87 q54.5 -32.5 119.5 -32.5 q65 0 120 32.5 q55 32.5 87 87 q32 54.5 32 119.5 Z" /><glyph glyph-name="096-zoom-out" unicode="&#xe060;" d="M717 420 q0 -14 -10 -24 q-10 -10 -24 -10 l-205 0 q-14 0 -24 10 q-10 10 -10 24 q0 14 10 24 q10 10 24 10 l205 0 q14 0 24 -10 q10 -10 10 -24 ZM887 420 q0 -83 -42 -155 q-40 -69 -110 -110 q-71 -42 -155 -42 q-53 0 -102 17.5 q-49 17.5 -89 49.5 l-194 -194 q-10 -10 -24 -10 q-14 0 -24 10 q-10 10 -10 24.5 q0 14.5 10 24.5 l194 194 q-33 40 -50.5 89 q-17.5 49 -17.5 102 q0 84 42 155 q41 70 110 110 q72 42 155.5 42 q83.5 0 154.5 -42 q70 -40 110 -110 q42 -71 42 -155 ZM819 420 q0 65 -32 120 q-32 55 -87 87 q-55 32 -120 32 q-65 0 -119.5 -32 q-54.5 -32 -87 -87 q-32.5 -55 -32.5 -120 q0 -65 32.5 -119.5 q32.5 -54.5 87 -87 q54.5 -32.5 119.5 -32.5 q65 0 120 32.5 q55 32.5 87 87 q32 54.5 32 119.5 Z" /><glyph glyph-name="097-suitcase" unicode="&#xe061;" d="M853 659 l-170 0 l0 68 q0 29 -20 49 q-20 20 -49 20 l-204 0 q-29 0 -49 -20 q-20 -20 -20 -49 l0 -68 l-170 0 q-43 0 -73 -30 q-30 -30 -30 -72 l0 -478 q0 -14 10 -24 q10 -10 24 -10 l820 0 q14 0 24 10 q10 10 10 24 l0 478 q0 42 -30 72 q-30 30 -73 30 ZM683 591 l0 -478 l-342 0 l0 478 l342 0 ZM410 727 l204 0 l0 -68 l-204 0 l0 68 ZM137 557 q0 14 10 24 q10 10 24 10 l102 0 l0 -478 l-136 0 l0 444 ZM887 113 l-136 0 l0 478 l102 0 q14 0 24 -10 q10 -10 10 -24 l0 -444 Z" /><glyph glyph-name="098-ambulance" unicode="&#xe062;" d="M853 659 l-170 0 l0 68 q0 29 -20 49 q-20 20 -49 20 l-204 0 q-29 0 -49 -20 q-20 -20 -20 -49 l0 -68 l-170 0 q-43 0 -73 -30 q-30 -30 -30 -72 l0 -478 q0 -14 10 -24 q10 -10 24 -10 l820 0 q14 0 24 10 q10 10 10 24 l0 478 q0 42 -30 72 q-30 30 -73 30 ZM410 727 l204 0 l0 -68 l-204 0 l0 68 ZM887 113 l-750 0 l0 444 q0 14 10 24 q10 10 24 10 l682 0 q14 0 24 -10 q10 -10 10 -24 l0 -444 ZM683 352 q0 -14 -10 -24 q-10 -10 -24 -10 l-103 0 l0 -103 q0 -14 -10 -24 q-10 -10 -24 -10 q-14 0 -24 10 q-10 10 -10 24 l0 103 l-103 0 q-14 0 -24 10 q-10 10 -10 24 q0 14 10 24 q10 10 24 10 l103 0 l0 103 q0 14 10 24 q10 10 24 10 q14 0 24 -10 q10 -10 10 -24 l0 -103 l103 0 q14 0 24 -10 q10 -10 10 -24 Z" /><glyph glyph-name="099-ambulance-2" unicode="&#xe063;" d="M512 420 q0 -14 -10 -24 q-10 -10 -24 -10 l-68 0 l0 -68 q0 -14 -10 -24 q-10 -10 -24.5 -10 q-14.5 0 -24.5 10 q-10 10 -10 24 l0 68 l-68 0 q-14 0 -24 10 q-10 10 -10 24 q0 14 10 24 q10 10 24 10 l68 0 l0 69 q0 14 10 24 q10 10 24.5 10 q14.5 0 24.5 -10 q10 -10 10 -24 l0 -69 l68 0 q14 0 24 -10 q10 -10 10 -24 ZM956 352 l0 -273 q0 -14 -10 -24 q-10 -10 -24 -10 l-81 0 q-14 -31 -43 -49.5 q-29 -18.5 -64 -18.5 q-35 0 -64 18.5 q-29 18.5 -44 49.5 l-228 0 q-15 -31 -44 -49.5 q-29 -18.5 -64 -18.5 q-35 0 -64 18.5 q-29 18.5 -43 49.5 l-81 0 q-14 0 -24 10 q-10 10 -10 24 l0 478 q0 42 30 72 q30 30 73 30 l358 0 l0 17 q0 22 15 36.5 q15 14.5 36.5 14.5 q21.5 0 36 -14.5 q14.5 -14.5 14.5 -36.5 l0 -17 l112 0 q29 0 53.5 -15 q24.5 -15 37.5 -41 l118 -236 q4 -7 4 -15 ZM341 96 q0 21 -15 36 q-15 15 -36 15 q-21 0 -36 -15 q-15 -15 -15 -36 q0 -21 15 -36 q15 -15 36 -15 q21 0 36 15 q15 15 15 36 ZM785 96 q0 21 -15 36 q-15 15 -36 15 q-21 0 -36 -15 q-15 -15 -15 -36 q0 -21 15 -36 q15 -15 36 -15 q21 0 36 15 q15 15 15 36 ZM887 318 l-238 0 q-15 0 -25 10 q-10 10 -10 24 l0 137 q0 14 10 24 q10 10 25 10 l149 0 l-25 49 q-4 9 -12 14 q-8 5 -18 5 l-572 0 q-14 0 -24 -10 q-10 -10 -10 -24 l0 -444 l35 0 q7 44 40 73 q33 29 78 29 q45 0 78 -29 q33 -29 40 -73 l208 0 q7 44 40 73 q33 29 78 29 q45 0 78 -29 q33 -29 40 -73 l35 0 l0 205 Z" /><glyph glyph-name="100-van" unicode="&#xe064;" d="M952 367 l-118 236 q-13 26 -37.5 41 q-24.5 15 -53.5 15 l-572 0 q-43 0 -73 -30 q-30 -30 -30 -72 l0 -478 q0 -14 10 -24 q10 -10 24 -10 l81 0 q14 -31 43 -49.5 q29 -18.5 64 -18.5 q35 0 64 18.5 q29 18.5 44 49.5 l228 0 q15 -31 44 -49.5 q29 -18.5 64 -18.5 q35 0 64 18.5 q29 18.5 43 49.5 l81 0 q14 0 24 10 q10 10 10 24 l0 273 q0 8 -4 15 ZM290 45 q-21 0 -36 15 q-15 15 -15 36 q0 21 15 36 q15 15 36 15 q21 0 36 -15 q15 -15 15 -36 q0 -21 -15 -36 q-15 -15 -36 -15 ZM734 45 q-21 0 -36 15 q-15 15 -15 36 q0 21 15 36 q15 15 36 15 q21 0 36 -15 q15 -15 15 -36 q0 -21 -15 -36 q-15 -15 -36 -15 ZM852 113 q-7 44 -40 73 q-33 29 -78 29 q-45 0 -78 -29 q-33 -29 -40 -73 l-208 0 q-7 44 -40 73 q-33 29 -78 29 q-45 0 -78 -29 q-33 -29 -40 -73 l-35 0 l0 444 q0 14 10 24 q10 10 24 10 l572 0 q10 0 18 -5 q8 -5 12 -14 l25 -49 l-149 0 q-15 0 -25 -10 q-10 -10 -10 -24 l0 -137 q0 -14 10 -24 q10 -10 25 -10 l238 0 l0 -205 l-35 0 Z" /><glyph glyph-name="101-delivery" unicode="&#xe065;" d="M952 367 l-118 236 q-13 26 -37.5 41 q-24.5 15 -53.5 15 l-572 0 q-43 0 -73 -30 q-30 -30 -30 -72 l0 -478 q0 -14 10 -24 q10 -10 24 -10 l81 0 q14 -31 43 -49.5 q29 -18.5 64 -18.5 q35 0 64 18.5 q29 18.5 44 49.5 l228 0 q15 -31 44 -49.5 q29 -18.5 64 -18.5 q35 0 64 18.5 q29 18.5 43 49.5 l81 0 q14 0 24 10 q10 10 10 24 l0 273 q0 8 -4 15 ZM290 45 q-21 0 -36 15 q-15 15 -15 36 q0 21 15 36 q15 15 36 15 q21 0 36 -15 q15 -15 15 -36 q0 -21 -15 -36 q-15 -15 -36 -15 ZM734 45 q-21 0 -36 15 q-15 15 -15 36 q0 21 15 36 q15 15 36 15 q21 0 36 -15 q15 -15 15 -36 q0 -21 -15 -36 q-15 -15 -36 -15 ZM887 113 l-35 0 q-7 44 -40 73 q-33 29 -78 29 q-45 0 -78 -29 q-33 -29 -40 -73 l-208 0 q-7 44 -40 73 q-33 29 -78 29 q-45 0 -78 -29 q-33 -29 -40 -73 l-35 0 l0 444 q0 14 10 24 q10 10 24 10 l572 0 q10 0 18 -5 q8 -5 12 -14 l114 -228 l0 -231 ZM673 376 q10 -10 10 -24 q0 -14 -10 -24 l-137 -136 q-10 -10 -24 -10 q-14 0 -24 10 q-10 10 -10 24 q0 14 10 24 l78 78 l-259 0 q-14 0 -24 10 q-10 10 -10 24 q0 14 10 24 q10 10 24 10 l259 0 l-78 78 q-10 10 -10 24 q0 14 10 24 q10 10 24 10 q14 0 24 -10 l137 -136 Z" /><glyph glyph-name="102-delivery-2" unicode="&#xe066;" d="M952 572 l-68 137 q-5 8 -13 13 q-8 5 -18 5 l-682 0 q-10 0 -18 -5 q-8 -5 -13 -13 l-68 -137 q-4 -7 -4 -15 l0 -546 q0 -14 10 -24 q10 -10 24 -10 l820 0 q14 0 24 10 q10 10 10 24 l0 546 q0 8 -4 15 ZM192 659 l640 0 l34 -68 l-708 0 l34 68 ZM137 45 l0 478 l750 0 l0 -478 l-750 0 ZM741 308 q10 -10 10 -24 q0 -14 -10 -24 l-136 -137 q-10 -10 -24.5 -10 q-14.5 0 -24.5 10 q-10 10 -10 24 q0 14 10 24 l79 79 l-328 0 q-14 0 -24 10 q-10 10 -10 24 q0 14 10 24 q10 10 24 10 l328 0 l-79 78 q-10 10 -10 24 q0 14 10 24 q10 10 24.5 10 q14.5 0 24.5 -10 l136 -136 Z" /><glyph glyph-name="103-applications" unicode="&#xe067;" d="M375 796 l-204 0 q-43 0 -73 -30 q-30 -30 -30 -73 l0 -273 q0 -14 10 -24 q10 -10 24 -10 l342 0 q14 0 24 10 q10 10 10 24 l0 273 q0 43 -30 73 q-30 30 -73 30 ZM410 454 l-273 0 l0 239 q0 14 10 24 q10 10 24 10 l204 0 q15 0 25 -10 q10 -10 10 -24 l0 -239 ZM580 386 l342 0 q14 0 24 10 q10 10 10 24 l0 273 q0 43 -30 73 q-30 30 -73 30 l-204 0 q-43 0 -73 -30 q-30 -30 -30 -73 l0 -273 q0 -14 10 -24 q10 -10 24 -10 ZM649 727 l204 0 q14 0 24 -10 q10 -10 10 -24 l0 -239 l-273 0 l0 239 q0 14 10 24 q10 10 25 10 ZM853 318 l-204 0 q-43 0 -73 -30 q-30 -30 -30 -73 l0 -273 q0 -14 10 -24 q10 -10 24 -10 l342 0 q14 0 24 10 q10 10 10 24 l0 273 q0 43 -30 73 q-30 30 -73 30 ZM887 -23 l-273 0 l0 238 q0 15 10 25 q10 10 25 10 l204 0 q14 0 24 -10 q10 -10 10 -25 l0 -238 ZM675 515 q-9 10 -9 24.5 q0 14.5 9 24.5 l103 103 q10 10 24 10 q14 0 24 -10 q10 -10 10 -24 q0 -14 -10 -24 l-102 -103 q-10 -10 -24 -10.5 q-14 -0.5 -25 9.5 ZM341 591 q0 -28 -20 -48 q-20 -20 -48 -20 q-28 0 -48 20 q-20 20 -20 48 q0 28 20 48 q20 20 48 20 q28 0 48 -20 q20 -20 20 -48 ZM375 318 l-204 0 q-43 0 -73 -30 q-30 -30 -30 -73 l0 -273 q0 -14 10 -24 q10 -10 24 -10 l342 0 q14 0 24 10 q10 10 10 24 l0 273 q0 43 -30 73 q-30 30 -73 30 ZM410 -23 l-273 0 l0 238 q0 15 10 25 q10 10 24 10 l204 0 q15 0 25 -10 q10 -10 10 -25 l0 -238 ZM349 140 l-28 -27 l27 -27 q10 -10 10 -24 q0 -14 -10 -24 q-10 -10 -24 -10 q-14 0 -24 10 l-27 27 l-27 -28 q-10 -10 -24 -9.5 q-14 0.5 -24.5 10.5 q-10.5 10 -10 23.5 q0.5 13.5 10.5 23.5 l27 28 l-27 27 q-10 10 -10 24 q0 14 10 24 q10 10 24 10 q14 0 24 -10 l27 -26 l27 27 q10 10 24 10 q14 0 24 -10 q10 -10 10.5 -24.5 q0.5 -14.5 -9.5 -24.5 Z" /><glyph glyph-name="104-assistant" unicode="&#xe068;" d="M512 386 q56 0 103 27.5 q47 27.5 74.5 74.5 q27.5 47 27.5 103 q0 56 -27.5 103 q-27.5 47 -74.5 74.5 q-47 27.5 -103 27.5 q-56 0 -103 -27.5 q-47 -27.5 -74.5 -74.5 q-27.5 -47 -27.5 -103 q0 -56 27.5 -103 q27.5 -47 74.5 -74.5 q47 -27.5 103 -27.5 ZM512 727 q37 0 68.5 -18 q31.5 -18 50 -49.5 q18.5 -31.5 18.5 -68.5 q0 -37 -18.5 -68.5 q-18.5 -31.5 -50 -50 q-31.5 -18.5 -68.5 -18.5 q-37 0 -68.5 18.5 q-31.5 18.5 -50 50 q-18.5 31.5 -18.5 68.5 q0 37 18.5 68.5 q18.5 31.5 50 49.5 q31.5 18 68.5 18 ZM793 285 q-14 9 -29 4 q-15 -5 -21 -20 l-118 -292 l-227 0 l-117 292 q-6 15 -21 20 q-15 5 -29 -4 q-44 -28 -69 -73.5 q-25 -45.5 -25 -98.5 l0 -171 q0 -14 10 -24 q10 -10 24 -10 l682 0 q14 0 24 10 q10 10 10 24 l0 171 q0 53 -25 98.5 q-25 45.5 -69 73.5 ZM205 -23 l0 136 q0 49 31 86 l89 -222 l-120 0 ZM819 -23 l-120 0 l89 222 q31 -37 31 -86 l0 -136 ZM375 181 q0 -10 6 -18.5 q6 -8.5 15.5 -12.5 q9.5 -4 19.5 -2 q10 2 18 9 l78 79 l78 -79 q8 -7 18 -9 q10 -2 19.5 2 q9.5 4 15.5 12.5 q6 8.5 6 18.5 l0 137 q0 10 -6 18.5 q-6 8.5 -15.5 12.5 q-9.5 4 -19.5 2 q-10 -2 -18 -9 l-78 -78 l-78 78 q-8 7 -18 9 q-10 2 -19.5 -2 q-9.5 -4 -15.5 -12.5 q-6 -8.5 -6 -18.5 l0 -137 Z" /><glyph glyph-name="105-call-centre" unicode="&#xe069;" d="M649 113 l-274 0 q-75 0 -137 -44 q-62 -44 -87 -115 q-6 -17 4 -31.5 q10 -14.5 28 -14.5 l658 0 q18 0 28 14 q10 14 5 32 q-26 71 -88 115 q-62 44 -137 44 ZM239 -23 q24 31 60 49.5 q36 18.5 76 18.5 l274 0 q40 0 76 -18.5 q36 -18.5 60 -49.5 l-546 0 ZM828 581 q-25 64 -73 112.5 q-48 48.5 -111 75.5 q-63 27 -132 27 q-69 0 -132 -27 q-63 -27 -111 -75.5 q-48 -48.5 -73 -112.5 q-27 -12 -43 -37 q-16 -25 -16 -55 l0 -137 q0 -42 30 -72 q30 -30 72 -30 l106 0 q33 -33 76 -51 q43 -18 91 -18 q48 0 91 18 q43 18 76 51 l106 0 q42 0 72 30 q30 30 30 72 l0 137 q0 30 -16 55 q-16 25 -43 37 ZM512 727 q73 0 136 -36.5 q63 -36.5 100 -99.5 l-69 0 q-33 32 -76 50 q-43 18 -91 18 q-48 0 -91 -18 q-43 -18 -76 -50 l-69 0 q37 63 100 99.5 q63 36.5 136 36.5 ZM205 352 l0 137 q0 14 10 24 q10 10 24 10 l34 0 l0 -205 l-34 0 q-14 0 -24 10 q-10 10 -10 24 ZM512 250 q-46 0 -85.5 23 q-39.5 23 -62.5 62 q-23 39 -23 85.5 q0 46.5 23 85.5 q23 39 62.5 62 q39.5 23 85.5 23 q46 0 85.5 -23 q39.5 -23 62.5 -62 q23 -39 23 -86 q0 -16 -4 -34 l-167 0 q-14 0 -24 -10 q-10 -10 -10 -24 q0 -14 10 -24 q10 -10 24 -10 l136 0 q-24 -32 -59.5 -50 q-35.5 -18 -76.5 -18 ZM819 352 q0 -14 -10 -24 q-10 -10 -24 -10 l-34 0 l0 205 l34 0 q14 0 24 -10 q10 -10 10 -24 l0 -137 Z" /><glyph glyph-name="106-bill" unicode="&#xe06a;" d="M922 45 l-820 0 q-14 0 -24 10 q-10 10 -10 24 l0 546 q0 14 10 24 q10 10 24 10 l820 0 q14 0 24 -10 q10 -10 10 -24 l0 -546 q0 -14 -10 -24 q-10 -10 -24 -10 ZM137 113 l750 0 l0 478 l-750 0 l0 -478 ZM546 420 l0 103 q0 14 -10 24 q-10 10 -24 10 q-14 0 -24 -10 q-10 -10 -10 -24 l0 -103 q0 -14 10 -24 q10 -10 24 -10 q14 0 24 10 q10 10 10 24 ZM546 181 l0 103 q0 14 -10 24 q-10 10 -24 10 q-14 0 -24 -10 q-10 -10 -10 -24 l0 -103 q0 -14 10 -24 q10 -10 24 -10 q14 0 24 10 q10 10 10 24 ZM410 215 q0 15 -10 25 q-10 10 -25 10 l-136 0 q-14 0 -24 -10 q-10 -10 -10 -24.5 q0 -14.5 10 -24.5 q10 -10 24 -10 l136 0 q15 0 25 10 q10 10 10 24 ZM410 352 q0 14 -10 24 q-10 10 -25 10 l-136 0 q-14 0 -24 -10 q-10 -10 -10 -24 q0 -14 10 -24 q10 -10 24 -10 l136 0 q15 0 25 10 q10 10 10 24 ZM717 318 q-42 0 -72.5 30 q-30.5 30 -30.5 72.5 q0 42.5 30.5 72.5 q30.5 30 72.5 30 q42 0 72 -30 q30 -30 30 -72.5 q0 -42.5 -30 -72.5 q-30 -30 -72 -30 ZM717 454 q-14 0 -24 -10 q-10 -10 -10 -24 q0 -14 10 -24 q10 -10 24 -10 q14 0 24 10 q10 10 10 24 q0 14 -10 24 q-10 10 -24 10 Z" /><glyph glyph-name="107-child-protection" unicode="&#xe06b;" d="M887 557 l0 -615 q0 -14 -10 -24 q-10 -10 -24 -10 q-14 0 -24 10 q-10 10 -10 24 l0 595 l-307 185 l-307 -185 l0 -595 q0 -14 -10 -24 q-10 -10 -24 -10 q-14 0 -24 10 q-10 10 -10 24 l0 615 q0 9 4 17 q4 8 12 12 l342 205 q8 5 17.5 5 q9.5 0 17.5 -5 l341 -205 q8 -4 12 -12 q4 -8 4 -17 ZM715 90 q6 -17 -4.5 -31 q-10.5 -14 -27.5 -14 l-42 0 l-28 -111 q-2 -11 -11.5 -18.5 q-9.5 -7.5 -21.5 -7.5 l-136 0 q-12 0 -21.5 7.5 q-9.5 7.5 -11.5 18.5 l-28 111 l-42 0 q-17 0 -27.5 14 q-10.5 14 -4.5 31 l68 205 q4 10 13 16.5 q9 6.5 20 6.5 l204 0 q11 0 20 -6.5 q9 -6.5 13 -16.5 l68 -205 ZM571 45 l-118 0 l17 -68 l84 0 l17 68 ZM635 113 l-45 137 l-156 0 l-45 -137 l246 0 ZM351 445 l42 41 l-1 3 q0 32 16 59.5 q16 27.5 43.5 43.5 q27.5 16 60 16 q32.5 0 60 -16 q27.5 -16 43.5 -43.5 q16 -27.5 16 -59.5 l0 -3 l41 -41 q10 -10 10 -24.5 q0 -14.5 -10 -24.5 q-10 -10 -24 -10 q-14 0 -24 10 l-19 19 q-16 -21 -40.5 -33.5 q-24.5 -12.5 -52.5 -12.5 q-28 0 -52.5 12.5 q-24.5 12.5 -41.5 33.5 l-18 -19 q-10 -10 -24 -10 q-14 0 -24.5 10 q-10.5 10 -10.5 24 q0 14 10 25 ZM461 489 q0 -22 15 -37 q15 -15 36 -15 q21 0 36 15 q15 15 15 36.5 q0 21.5 -15 36.5 q-15 15 -36 15 q-21 0 -36 -15 q-15 -15 -15 -36 Z" /><glyph glyph-name="108-coins" unicode="&#xe06c;" d="M649 796 q-66 0 -121 -23 q-55 -23 -86.5 -62 q-31.5 -39 -31.5 -86 l0 -96 q-48 28 -103 28 q-55 0 -102 -27.5 q-47 -27.5 -75 -74.5 q-28 -47 -28 -103 q0 -56 28 -103 q28 -47 75 -74.5 q47 -27.5 102 -27.5 q55 0 101.5 27 q46.5 27 74.5 73 q28 46 29 101 q60 -30 137 -30 q65 0 120 22.5 q55 22.5 86.5 61.5 q31.5 39 31.5 87 l0 136 q0 47 -31.5 86 q-31.5 39 -86.5 62 q-55 23 -120 23 ZM649 727 q45 0 84.5 -13.5 q39.5 -13.5 62.5 -37.5 q23 -24 23 -51 q0 -27 -23 -50.5 q-23 -23.5 -62.5 -37.5 q-39.5 -14 -85 -14 q-45.5 0 -85 14 q-39.5 14 -62.5 37.5 q-23 23.5 -23 50.5 q0 27 23 51 q23 24 62.5 37.5 q39.5 13.5 85.5 13.5 ZM307 215 q-37 0 -68.5 18.5 q-31.5 18.5 -49.5 50 q-18 31.5 -18 68.5 q0 37 18 68.5 q18 31.5 49.5 50 q31.5 18.5 68.5 18.5 q37 0 68.5 -18.5 q31.5 -18.5 50 -50 q18.5 -31.5 18.5 -68.5 q0 -37 -18.5 -68.5 q-18.5 -31.5 -50 -50 q-31.5 -18.5 -68.5 -18.5 ZM649 386 q-46 0 -85.5 14 q-39.5 14 -62.5 37.5 q-23 23.5 -23 51.5 l0 16 q33 -24 77 -37.5 q44 -13.5 93.5 -13.5 q49.5 0 93.5 13.5 q44 13.5 77 37.5 l0 -16 q0 -28 -23 -51.5 q-23 -23.5 -62.5 -37.5 q-39.5 -14 -84.5 -14 ZM649 250 q-47 0 -86 -23 q-39 -23 -62 -62.5 q-23 -39.5 -23 -85.5 q0 -46 23 -85.5 q23 -39.5 62 -62.5 q39 -23 85.5 -23 q46.5 0 85.5 23 q39 23 62 62.5 q23 39.5 23 85.5 q0 46 -23 85.5 q-23 39.5 -62 62.5 q-39 23 -85 23 ZM649 -23 q-43 0 -73 30 q-30 30 -30 72 q0 42 30 72 q30 30 72.5 30 q42.5 0 72.5 -30 q30 -30 30 -72 q0 -42 -30 -72 q-30 -30 -72 -30 Z" /><glyph glyph-name="109-compass" unicode="&#xe06d;" d="M512 796 q-120 0 -224 -61 q-100 -59 -159 -159 q-61 -104 -61 -224 q0 -120 61 -224 q59 -100 159 -159 q104 -61 224 -61 q120 0 224 61 q100 59 159 159 q61 104 61 224 q0 120 -61 224 q-59 100 -159 159 q-104 61 -224 61 ZM512 -23 q-102 0 -189 51 q-85 50 -135 135 q-51 87 -51 189 q0 102 51 189 q50 85 135 135 q87 51 189 51 q102 0 189 -51 q85 -50 135 -135 q51 -87 51 -189 q0 -102 -51 -189 q-50 -85 -135 -135 q-87 -51 -189 -51 ZM337 130 l147 89 q14 -4 28 -4 q37 0 68.5 18.5 q31.5 18.5 50 50 q18.5 31.5 18.5 68.5 q0 13 -3 28 l89 147 q6 10 4.5 22 q-1.5 12 -10 20 q-8.5 8 -20 9.5 q-11.5 1.5 -21.5 -4.5 l-148 -89 q-14 4 -28 4 q-37 0 -68.5 -18.5 q-31.5 -18.5 -50 -50 q-18.5 -31.5 -18.5 -68.5 q0 -13 3 -28 l-89 -147 q-6 -10 -4.5 -22 q1.5 -12 10 -20.5 q8.5 -8.5 20 -9.5 q11.5 -1 22.5 5 ZM512 284 q-28 0 -48 20 q-20 20 -20 48 q0 28 20 48 q20 20 48 20 q28 0 48 -20 q20 -20 20 -48 q0 -28 -20 -48 q-20 -20 -48 -20 Z" /><glyph glyph-name="110-mobile-phone" unicode="&#xe06e;" d="M717 796 l-410 0 q-42 0 -72 -30 q-30 -30 -30 -73 l0 -682 q0 -43 30 -73 q30 -30 72 -30 l410 0 q42 0 72 30 q30 30 30 73 l0 682 q0 43 -30 73 q-30 30 -72 30 ZM751 11 q0 -14 -10 -24 q-10 -10 -24 -10 l-410 0 q-14 0 -24 10 q-10 10 -10 24 l0 682 q0 14 10 24 q10 10 24 10 l410 0 q14 0 24 -10 q10 -10 10 -24 l0 -682 ZM478 79 q0 -14 -10 -24 q-10 -10 -24 -10 l-69 0 q-14 0 -24 10 q-10 10 -10 24 q0 14 10 24 q10 10 24 10 l69 0 q14 0 24 -10 q10 -10 10 -24 ZM683 79 q0 -14 -10 -24 q-10 -10 -24 -10 l-69 0 q-14 0 -24 10 q-10 10 -10 24 q0 14 10 24 q10 10 24 10 l69 0 q14 0 24 -10 q10 -10 10 -24 ZM478 215 q0 -14 -10 -24 q-10 -10 -24 -10 l-69 0 q-14 0 -24 10 q-10 10 -10 24.5 q0 14.5 10 24.5 q10 10 24 10 l69 0 q14 0 24 -10 q10 -10 10 -25 ZM683 215 q0 -14 -10 -24 q-10 -10 -24 -10 l-69 0 q-14 0 -24 10 q-10 10 -10 24.5 q0 14.5 10 24.5 q10 10 24 10 l69 0 q14 0 24 -10 q10 -10 10 -25 ZM341 659 l342 0 l0 -341 l-342 0 l0 341 Z" /><glyph glyph-name="111-smartphone" unicode="&#xe06f;" d="M717 796 l-410 0 q-42 0 -72 -30 q-30 -30 -30 -73 l0 -682 q0 -43 30 -73 q30 -30 72 -30 l410 0 q42 0 72 30 q30 30 30 73 l0 682 q0 43 -30 73 q-30 30 -72 30 ZM751 11 q0 -14 -10 -24 q-10 -10 -24 -10 l-410 0 q-14 0 -24 10 q-10 10 -10 24 l0 682 q0 14 10 24 q10 10 24 10 l410 0 q14 0 24 -10 q10 -10 10 -24 l0 -682 ZM341 659 l342 0 l0 -478 l-342 0 l0 478 ZM614 79 q0 -14 -10 -24 q-10 -10 -24 -10 l-136 0 q-14 0 -24 10 q-10 10 -10 24 q0 14 10 24 q10 10 24 10 l136 0 q14 0 24 -10 q10 -10 10 -24 Z" /><glyph glyph-name="112-tablet" unicode="&#xe070;" d="M853 693 l-682 0 q-43 0 -73 -30 q-30 -30 -30 -72 l0 -478 q0 -42 30 -72 q30 -30 73 -30 l682 0 q43 0 73 30 q30 30 30 72 l0 478 q0 42 -30 72 q-30 30 -73 30 ZM887 113 q0 -14 -10 -24 q-10 -10 -24 -10 l-682 0 q-14 0 -24 10 q-10 10 -10 24 l0 478 q0 14 10 24 q10 10 24 10 l682 0 q14 0 24 -10 q10 -10 10 -24 l0 -478 ZM205 557 l614 0 l0 -410 l-614 0 l0 410 Z" /><glyph glyph-name="113-laptop" unicode="&#xe071;" d="M952 94 l-65 130 l0 401 q0 42 -30 72 q-30 30 -72 30 l-546 0 q-42 0 -72 -30 q-30 -30 -30 -72 l0 -401 l-65 -130 q-4 -7 -4 -15 l0 -68 q0 -14 10 -24 q10 -10 24 -10 l820 0 q14 0 24 10 q10 10 10 24 l0 68 q0 8 -4 15 ZM205 625 q0 14 10 24 q10 10 24 10 l546 0 q14 0 24 -10 q10 -10 10 -24 l0 -375 l-614 0 l0 375 ZM887 45 l-750 0 l0 26 l55 110 l640 0 l55 -110 l0 -26 ZM273 591 l478 0 l0 -273 l-478 0 l0 273 Z" /><glyph glyph-name="114-computer" unicode="&#xe072;" d="M853 727 l-682 0 q-43 0 -73 -30 q-30 -30 -30 -72 l0 -478 q0 -14 10 -24 q10 -10 24 -10 l376 0 l0 -68 l-171 0 q-14 0 -24 -10 q-10 -10 -10 -24 q0 -14 10 -24 q10 -10 24 -10 l410 0 q14 0 24 10 q10 10 10 24 q0 14 -10 24 q-10 10 -24 10 l-171 0 l0 68 l376 0 q14 0 24 10 q10 10 10 24 l0 478 q0 42 -30 72 q-30 30 -73 30 ZM887 181 l-750 0 l0 444 q0 14 10 24 q10 10 24 10 l682 0 q14 0 24 -10 q10 -10 10 -24 l0 -444 ZM205 591 l614 0 l0 -341 l-614 0 l0 341 Z" /><glyph glyph-name="115-workstation" unicode="&#xe073;" d="M853 796 l-341 0 q-42 0 -72 -30 q-30 -30 -30 -73 l0 -170 l-239 0 q-43 0 -73 -30 q-30 -30 -30 -73 l0 -341 q0 -14 10 -24 q10 -10 24 -10 l308 0 l0 -68 l-103 0 q-14 0 -24 -10.5 q-10 -10.5 -10 -24.5 q0 -14 10 -24 q10 -10 24 -10 l273 0 q14 0 24 10 q10 10 10 24 q0 14 -10 24.5 q-10 10.5 -24 10.5 l-102 0 l0 68 l307 0 q14 0 24 10 q10 10 10 24 l0 341 q0 43 -30 73 q-30 30 -72 30 l-239 0 l0 170 q0 14 10 24 q10 10 24 10 l341 0 q14 0 24 -10 q10 -10 10 -24 l0 -716 l-204 0 l0 -69 l239 0 q14 0 24 10 q10 10 10 24 l0 751 q0 43 -30 73 q-30 30 -73 30 ZM751 420 l0 -307 l-614 0 l0 307 q0 14 10 24 q10 10 24 10 l546 0 q14 0 24 -10 q10 -10 10 -24 ZM785 659 q14 0 24 -10 q10 -10 10 -24 q0 -14 -10 -24 q-10 -10 -24 -10 l-205 0 q-14 0 -24 10 q-10 10 -10 24 q0 14 10 24 q10 10 24 10 l205 0 ZM683 181 l-478 0 l0 205 l478 0 l0 -205 Z" /><glyph glyph-name="116-credit-card" unicode="&#xe074;" d="M853 659 l-682 0 q-43 0 -73 -30 q-30 -30 -30 -72 l0 -410 q0 -42 30 -72 q30 -30 73 -30 l682 0 q43 0 73 30 q30 30 30 72 l0 410 q0 42 -30 72 q-30 30 -73 30 ZM171 591 l682 0 q14 0 24 -10 q10 -10 10 -24 l0 -34 l-750 0 l0 34 q0 14 10 24 q10 10 24 10 ZM853 113 l-682 0 q-14 0 -24 10 q-10 10 -10 24 l0 205 l750 0 l0 -205 q0 -14 -10 -24 q-10 -10 -24 -10 Z" /><glyph glyph-name="117-directory" unicode="&#xe075;" d="M785 727 l-614 0 q-14 0 -24 -10 q-10 -10 -10 -24 l0 -102 l-35 0 q-14 0 -24 -10 q-10 -10 -10 -24 q0 -14 10 -24 q10 -10 24 -10 l35 0 l0 -137 l-35 0 q-14 0 -24 -10 q-10 -10 -10 -24 q0 -14 10 -24 q10 -10 24 -10 l35 0 l0 -137 l-35 0 q-14 0 -24 -10 q-10 -10 -10 -24 q0 -14 10 -24 q10 -10 24 -10 l35 0 l0 -102 q0 -14 10 -24 q10 -10 24 -10 l546 0 q42 0 72 30 q30 30 30 72 l0 245 q30 10 49 36.5 q19 26.5 19 59.5 l0 205 q0 42 -30 72 q-30 30 -72 30 ZM819 420 q0 -14 -10 -24 q-10 -10 -24 -10 q-14 0 -24 -10 q-10 -10 -10 -24 l0 -273 q0 -14 -10 -24 q-10 -10 -24 -10 l-512 0 l0 68 l34 0 q14 0 24 10 q10 10 10 24 q0 14 -10 24 q-10 10 -24 10 l-34 0 l0 137 l34 0 q14 0 24 10 q10 10 10 24 q0 14 -10 24 q-10 10 -24 10 l-34 0 l0 137 l34 0 q14 0 24 10 q10 10 10 24 q0 14 -10 24 q-10 10 -24 10 l-34 0 l0 68 l580 0 q14 0 24 -10 q10 -10 10 -24 l0 -205 ZM456 522 l-119 -341 l66 0 l24 70 l129 0 l24 -70 l73 0 l-122 341 l-75 0 ZM444 303 l30 87 q11 34 16 57 l1 0 q5 -24 16 -54 l31 -90 l-94 0 Z" /><glyph glyph-name="118-document" unicode="&#xe076;" d="M785 -92 l-614 0 q-14 0 -24 10 q-10 10 -10 24 l0 649 q0 56 27.5 103 q27.5 47 74.5 74.5 q47 27.5 102 27.5 l444 0 q14 0 24 -10 q10 -10 10 -24 l0 -820 q0 -14 -10 -24 q-10 -10 -24 -10 ZM205 -23 l546 0 l0 750 l-410 0 q-37 0 -68 -18 q-31 -18 -49.5 -49.5 q-18.5 -31.5 -18.5 -68.5 l0 -614 ZM649 489 q0 14 -10.5 24 q-10.5 10 -24.5 10 l-273 0 q-14 0 -24 -10 q-10 -10 -10 -24.5 q0 -14.5 10 -24.5 q10 -10 24 -10 l273 0 q14 0 24.5 10 q10.5 10 10.5 25 ZM649 352 q0 14 -10.5 24 q-10.5 10 -24.5 10 l-273 0 q-14 0 -24 -10 q-10 -10 -10 -24 q0 -14 10 -24 q10 -10 24 -10 l273 0 q14 0 24.5 10 q10.5 10 10.5 24 Z" /><glyph glyph-name="119-document-new" unicode="&#xe077;" d="M546 147 l0 103 l-102 0 q-14 0 -24 10 q-10 10 -10 24 q0 14 10 24 q10 10 24 10 l102 0 l0 102 q0 14 10 24 q10 10 24 10 q14 0 24 -10 q10 -10 10 -24 l0 -102 l103 0 q14 0 24 -10 q10 -10 10 -24 q0 -14 -10 -24 q-10 -10 -24 -10 l-103 0 l0 -103 q0 -14 -10 -24 q-10 -10 -24 -10 q-14 0 -24 10 q-10 10 -10 24 ZM785 796 l-444 0 q-55 0 -102 -27.5 q-47 -27.5 -74.5 -74.5 q-27.5 -47 -27.5 -103 l0 -649 q0 -14 10 -24 q10 -10 24 -10 l614 0 q14 0 24 10 q10 10 10 24 l0 171 l-68 0 l0 -136 l-546 0 l0 614 q0 37 18.5 68.5 q18.5 31.5 49.5 49.5 q31 18 68 18 l410 0 l0 -273 l68 0 l0 308 q0 14 -10 24 q-10 10 -24 10 Z" /><glyph glyph-name="120-document-excel" unicode="&#xe078;" d="M348 111 l86 141 l-81 136 l73 0 l51 -90 l49 90 l72 0 l-80 -136 l90 -140 l-80 0 l-53 93 l-52 -93 l-75 0 l0 -1 ZM819 762 l0 -820 q0 -14 -10 -24 q-10 -10 -24 -10 l-614 0 q-14 0 -24 10 q-10 10 -10 24 l0 649 q0 56 27.5 103 q27.5 47 74.5 74.5 q47 27.5 102 27.5 l444 0 q14 0 24 -10 q10 -10 10 -24 ZM751 727 l-410 0 q-37 0 -68 -18 q-31 -18 -49.5 -49.5 q-18.5 -31.5 -18.5 -68.5 l0 -614 l546 0 l0 750 Z" /><glyph glyph-name="121-document-powerpoint" unicode="&#xe079;" d="M476 203 q6 0 14 0 q51 0 81 29 q28 27 28 69.5 q0 42.5 -28 65.5 q-28 23 -81 23 q-43 0 -78 -2 l0 -277 l64 0 l0 92 ZM476 337 q4 1 13 1 q23 0 34 -11 q11 -11 11 -30 q0 -19 -13.5 -30 q-13.5 -11 -33.5 -12 l-11 1 l0 81 ZM785 796 l-444 0 q-55 0 -102 -27.5 q-47 -27.5 -74.5 -74.5 q-27.5 -47 -27.5 -103 l0 -649 q0 -14 10 -24 q10 -10 24 -10 l614 0 q14 0 24 10 q10 10 10 24 l0 820 q0 14 -10 24 q-10 10 -24 10 ZM751 -23 l-546 0 l0 614 q0 37 18.5 68.5 q18.5 31.5 49.5 49.5 q31 18 68 18 l410 0 l0 -750 Z" /><glyph glyph-name="122-document-word" unicode="&#xe07a;" d="M785 796 l-444 0 q-55 0 -102 -27.5 q-47 -27.5 -74.5 -74.5 q-27.5 -47 -27.5 -103 l0 -649 q0 -14 10 -24 q10 -10 24 -10 l614 0 q14 0 24 10 q10 10 10 24 l0 820 q0 14 -10 24 q-10 10 -24 10 ZM751 -23 l-546 0 l0 614 q0 37 18.5 68.5 q18.5 31.5 49.5 49.5 q31 18 68 18 l410 0 l0 -750 ZM290 388 l68 0 l32 -135 q7 -30 9 -58 l1 0 q5 34 10 56 l36 136 l66 0 l36 -133 q7 -27 11 -57 l0 0 q5 32 11 58 l31 132 l64 0 l-70 -276 l-77 0 l-33 130 q-6 27 -10 63 l-1 0 q-3 -31 -10 -61 l-33 -132 l-73 0 l-68 277 Z" /><glyph glyph-name="123-document-pdf" unicode="&#xe07b;" d="M751 762 l0 -308 l-68 0 l0 273 l-410 0 q-37 0 -68.5 -18 q-31.5 -18 -49.5 -49.5 q-18 -31.5 -18 -68.5 l0 -614 l546 0 l0 68 l68 0 l0 -103 q0 -14 -10 -24 q-10 -10 -24 -10 l-615 0 q-14 0 -24 10 q-10 10 -10 24 l0 649 q0 56 27.5 103 q27.5 47 74.5 74.5 q47 27.5 103 27.5 l444 0 q14 0 24 -10 q10 -10 10 -24 ZM352 390 q53 0 81 -23 q28 -23 28 -65.5 q0 -42.5 -28 -69.5 q-30 -29 -81 -29 l-15 0 l0 -92 l-64 0 l0 277 q48 2 79 2 ZM351 338 q-9 0 -14 -1 l0 -81 l11 0 q20 0 33.5 11.5 q13.5 11.5 13.5 30.5 q0 19 -11 29.5 q-11 10.5 -33 10.5 ZM583 390 q138 0 138 -135 q0 -69 -41 -107 q-41 -38 -109 -38 q-25 0 -71 2 l-11 0 l0 275 q50 3 94 3 ZM579 336 q-19 0 -26 -1 l0 -169 q13 -2 24 -2 q34 0 54 21 q22 23 22 65 q0 42 -16 62 q-17 24 -58 24 ZM907 333 l0 55 l-152 0 l0 -277 l64 0 l0 111 l83 0 l0 53 l-83 0 l0 59 l88 0 l0 -1 Z" /><glyph glyph-name="124-document-txt" unicode="&#xe07c;" d="M683 45 l68 0 l0 -103 q0 -14 -10 -24 q-10 -10 -24 -10 l-615 0 q-14 0 -24 10 q-10 10 -10 24 l0 649 q0 56 27.5 103 q27.5 47 74.5 74.5 q47 27.5 103 27.5 l444 0 q14 0 24 -10 q10 -10 10 -24 l0 -308 l-68 0 l0 273 l-410 0 q-37 0 -68.5 -18 q-31.5 -18 -49.5 -49.5 q-18 -31.5 -18 -68.5 l0 -614 l546 0 l0 68 ZM384 111 l0 222 l67 0 l0 55 l-197 0 l0 -55 l67 0 l0 -222 l63 0 ZM631 388 l-49 -90 l-51 90 l-74 0 l82 -136 l-86 -141 l75 0 l52 94 l53 -93 l80 0 l-89 140 l79 136 l-72 0 ZM709 388 l0 -55 l67 0 l0 -222 l63 0 l0 222 l66 0 l0 55 l-196 0 Z" /><glyph glyph-name="125-document-zip" unicode="&#xe07d;" d="M356 310 q4 8 14 21 q-15 -1 -43 -1 l-57 0 l0 58 l179 0 l0 -52 l-94 -151 l-11 -15 q6 0 54 0 l52 0 l0 -59 l-183 0 l0 50 l89 149 ZM553 111 l0 277 l-64 0 l0 -277 l64 0 ZM793 301 q0 -42 -28 -69 q-30 -30 -81 -30 l-15 1 l0 -92 l-64 0 l0 276 q36 3 79 3 q52 0 80.5 -23 q28.5 -23 28.5 -66 ZM727 298 q0 18 -11 29 q-11 11 -33 11 l-14 -1 l0 -81 l11 0 q21 0 34 11 q13 11 13 31 ZM683 -23 l-546 0 l0 614 q0 37 18 68.5 q18 31.5 49.5 49.5 q31.5 18 68.5 18 l410 0 l0 -273 l68 0 l0 308 q0 14 -10 24 q-10 10 -24 10 l-444 0 q-56 0 -103 -27.5 q-47 -27.5 -74.5 -74.5 q-27.5 -47 -27.5 -103 l0 -649 q0 -14 10 -24 q10 -10 24 -10 l615 0 q14 0 24 10 q10 10 10 24 l0 103 l-68 0 l0 -68 Z" /><glyph glyph-name="126-document-code" unicode="&#xe07e;" d="M462 111 l106 277 l62 0 l-105 -277 l-63 0 ZM390 369 l-119 -119 l119 -120 l37 36 l-84 84 l84 83 l-37 36 ZM702 130 l119 120 l-119 119 l-36 -36 l83 -83 l-83 -84 l36 -36 ZM683 -23 l-546 0 l0 614 q0 37 18 68.5 q18 31.5 49.5 49.5 q31.5 18 68.5 18 l410 0 l0 -273 l68 0 l0 308 q0 14 -10 24 q-10 10 -24 10 l-444 0 q-56 0 -103 -27.5 q-47 -27.5 -74.5 -74.5 q-27.5 -47 -27.5 -103 l0 -649 q0 -14 10 -24 q10 -10 24 -10 l615 0 q14 0 24 10 q10 10 10 24 l0 103 l-68 0 l0 -68 Z" /><glyph glyph-name="128-film-camera" unicode="&#xe080;" d="M580 454 l-273 0 q-42 0 -72 -30 q-30 -30 -30 -72 q0 -42 30 -72 q30 -30 72 -30 q42 0 72.5 30 q30.5 30 30.5 72 q0 17 -7 34 l81 0 q-6 -17 -6 -34 q0 -42 30 -72 q30 -30 72.5 -30 q42.5 0 72.5 30 q30 30 30 72 q0 42 -30 72 q-30 30 -73 30 ZM307 318 q-14 0 -24 10 q-10 10 -10 24 q0 14 10 24 q10 10 24 10 q14 0 24 -10 q10 -10 10 -24 q0 -14 -10 -24 q-10 -10 -24 -10 ZM580 318 q-14 0 -24 10 q-10 10 -10 24 q0 14 10 24 q10 10 24 10 q14 0 24 -10 q10 -10 10 -24 q0 -14 -10 -24 q-10 -10 -24 -10 ZM943 515 q-13 11 -30 7 l-94 -24 l0 59 q0 42 -30 72 q-30 30 -72 30 l-243 0 q-12 59 -59 98 q-47 39 -108 39 l-205 0 q-14 0 -24 -10 q-10 -10 -10 -24 l0 -615 q0 -42 30 -72 q30 -30 73 -30 l546 0 q42 0 72 30 q30 30 30 72 l0 59 l94 -24 q5 -1 9 -1 q12 0 21 8 q13 10 13 26 l0 274 q0 16 -13 26 ZM137 727 l170 0 q33 0 59.5 -19 q26.5 -19 36.5 -49 l-232 0 q-17 0 -34 -6 l0 74 ZM751 147 q0 -14 -10 -24 q-10 -10 -24 -10 l-546 0 q-14 0 -24 10 q-10 10 -10 24 l0 410 q0 14 10 24 q10 10 24 10 l546 0 q14 0 24 -10 q10 -10 10 -24 l0 -410 ZM887 259 l-68 17 l0 152 l68 17 l0 -186 Z" /><glyph glyph-name="129-film-camera-2" unicode="&#xe081;" d="M943 379 q-13 10 -30 6 l-95 -24 q-2 28 -18.5 50.5 q-16.5 22.5 -41.5 34.5 q29 28 45 65.5 q16 37.5 16 79.5 q0 56 -27.5 103 q-27.5 47 -74.5 74.5 q-47 27.5 -103 27.5 q-52 0 -97 -25 q-45 -25 -73 -68 q-28 43 -73 68 q-45 25 -98 25 q-56 0 -103 -27.5 q-47 -27.5 -74.5 -74.5 q-27.5 -47 -27.5 -103 q0 -42 16.5 -79.5 q16.5 -37.5 44.5 -65.5 q-27 -13 -44 -38 q-17 -25 -17 -56 l0 -273 q0 -42 30 -72 q30 -30 73 -30 l546 0 q40 0 69 26.5 q29 26.5 32 66.5 l95 -24 q16 -4 29.5 6 q13.5 10 13.5 27 l0 273 q0 17 -13 27 ZM443 479 q10 -14 19 -25 l-37 0 q9 11 18 25 ZM273 727 q37 0 68.5 -18 q31.5 -18 50 -49.5 q18.5 -31.5 18.5 -68.5 q0 -37 -18.5 -68.5 q-18.5 -31.5 -50 -50 q-31.5 -18.5 -68.5 -18.5 q-37 0 -68.5 18.5 q-31.5 18.5 -49.5 50 q-18 31.5 -18 68.5 q0 37 18 68.5 q18 31.5 49.5 49.5 q31.5 18 68.5 18 ZM751 79 q0 -14 -10 -24 q-10 -10 -24 -10 l-546 0 q-14 0 -24 10 q-10 10 -10 24 l0 273 q0 14 10 24 q10 10 24 10 l546 0 q14 0 24 -10 q10 -10 10 -24 l0 -273 ZM614 454 q-37 0 -68 18.5 q-31 18.5 -49.5 50 q-18.5 31.5 -18.5 68.5 q0 37 18.5 68.5 q18.5 31.5 49.5 49.5 q31 18 68.5 18 q37.5 0 68.5 -18 q31 -18 49.5 -49.5 q18.5 -31.5 18.5 -68.5 q0 -37 -18.5 -68.5 q-18.5 -31.5 -49.5 -50 q-31 -18.5 -69 -18.5 ZM887 123 l-68 17 l0 151 l68 17 l0 -185 Z" /><glyph glyph-name="130-film-camera-3" unicode="&#xe082;" d="M941 584 q-14 11 -30 5 l-160 -53 l0 21 q0 42 -30 72 q-30 30 -72 30 l-478 0 q-43 0 -73 -30 q-30 -30 -30 -72 l0 -410 q0 -42 30 -72 q30 -30 73 -30 l478 0 q42 0 72 30 q30 30 30 72 l0 21 l160 -53 q16 -6 30.5 4.5 q14.5 10.5 14.5 27.5 l0 410 q0 17 -15 27 ZM683 147 q0 -14 -10 -24 q-10 -10 -24 -10 l-478 0 q-14 0 -24 10 q-10 10 -10 24 l0 410 q0 14 10 24 q10 10 24 10 l478 0 q14 0 24 -10 q10 -10 10 -24 l0 -410 ZM887 195 l-136 45 l0 224 l136 45 l0 -314 Z" /><glyph glyph-name="131-film-reel" unicode="&#xe083;" d="M512 454 q42 0 72 30 q30 30 30 72.5 q0 42.5 -30 72.5 q-30 30 -72 30 q-42 0 -72 -30 q-30 -30 -30 -72.5 q0 -42.5 30 -72.5 q30 -30 72 -30 ZM512 591 q14 0 24 -10 q10 -10 10 -24 q0 -14 -10 -24 q-10 -10 -24 -10 q-14 0 -24 10 q-10 10 -10 24 q0 14 10 24 q10 10 24 10 ZM512 250 q-42 0 -72 -30 q-30 -30 -30 -72.5 q0 -42.5 30 -72.5 q30 -30 72 -30 q42 0 72 30 q30 30 30 72.5 q0 42.5 -30 72.5 q-30 30 -72 30 ZM512 113 q-14 0 -24 10 q-10 10 -10 24 q0 14 10 24 q10 10 24 10 q14 0 24 -10 q10 -10 10 -24 q0 -14 -10 -24 q-10 -10 -24 -10 ZM819 352 q0 42 -30 72 q-30 30 -72.5 30 q-42.5 0 -72.5 -30 q-30 -30 -30 -72 q0 -42 30 -72 q30 -30 72.5 -30 q42.5 0 72.5 30 q30 30 30 72 ZM717 318 q-14 0 -24 10 q-10 10 -10 24 q0 14 10 24 q10 10 24 10 q14 0 24 -10 q10 -10 10 -24 q0 -14 -10 -24 q-10 -10 -24 -10 ZM307 454 q-42 0 -72 -30 q-30 -30 -30 -72 q0 -42 30 -72 q30 -30 72.5 -30 q42.5 0 72.5 30 q30 30 30 72 q0 42 -30 72 q-30 30 -73 30 ZM307 318 q-14 0 -24 10 q-10 10 -10 24 q0 14 10 24 q10 10 24 10 q14 0 24 -10 q10 -10 10 -24 q0 -14 -10 -24 q-10 -10 -24 -10 ZM921 45 l-90 0 q59 61 91 139 q34 80 34 168 q0 120 -61 224 q-59 100 -159 159 q-104 61 -224 61 q-120 0 -224 -61 q-100 -59 -159 -159 q-61 -104 -61 -224 q0 -120 61 -224 q59 -100 159 -159 q104 -61 224 -61 q127 0 236 69 l173 0 q14 0 24 10 q10 10 10 24 q0 14 -10 24 q-10 10 -24 10 ZM137 352 q0 102 51 189 q50 85 135 135 q87 51 189 51 q102 0 189 -51 q85 -50 135 -135 q51 -87 51 -189 q0 -102 -51 -189 q-50 -85 -135 -135 q-87 -51 -189 -51 q-102 0 -189 51 q-85 50 -135 135 q-51 87 -51 189 Z" /><glyph glyph-name="132-folder" unicode="&#xe084;" d="M853 659 l-307 0 l-68 68 l-341 0 q-29 0 -49 -20 q-20 -20 -20 -48 l0 -580 q0 -14 10 -24 q10 -10 24 -10 l820 0 q14 0 24 10 q10 10 10 24 l0 478 q0 42 -30 72 q-30 30 -73 30 ZM887 113 l-750 0 l0 478 l716 0 q14 0 24 -10 q10 -10 10 -24 l0 -444 Z" /><glyph glyph-name="133-football" unicode="&#xe085;" d="M512 796 q-120 0 -224 -61 q-100 -59 -159 -159 q-61 -104 -61 -224 q0 -120 61 -224 q59 -100 159 -159 q104 -61 224 -61 q120 0 224 61 q100 59 159 159 q61 104 61 224 q0 120 -61 224 q-59 100 -159 159 q-104 61 -224 61 ZM851 512 q21 -44 30 -90 l-47 34 l17 56 ZM559 724 l-47 -34 l-47 34 q25 3 47 3 q22 0 47 -3 ZM191 456 l-48 -34 q10 48 30 90 l18 -56 ZM255 79 l58 0 l18 -56 q-40 22 -76 56 ZM414 -10 l-43 134 q-4 10 -13 16.5 q-9 6.5 -20 6.5 l-140 0 q-56 85 -60 186 l113 83 q9 6 12.5 17 q3.5 11 0.5 21 l-44 134 q63 78 158 114 l114 -82 q9 -7 20 -7 q11 0 20 7 l114 82 q94 -36 158 -114 l-43 -134 q-4 -10 -0.5 -21 q3.5 -11 12.5 -17 l114 -83 q-5 -101 -60 -186 l-141 0 q-11 0 -20 -6.5 q-9 -6.5 -12 -16.5 l-43 -134 q-50 -13 -99 -13 q-49 0 -98 13 ZM769 79 q-36 -34 -76 -56 l18 56 l58 0 ZM642 205 l60 185 q3 10 -0.5 20.5 q-3.5 10.5 -12.5 17.5 l-157 114 q-9 7 -20 7 q-11 0 -20 -7 l-157 -114 q-9 -7 -12.5 -17.5 q-3.5 -10.5 -0.5 -20.5 l60 -185 q4 -11 13 -17.5 q9 -6.5 20 -6.5 l194 0 q11 0 20 6.5 q9 6.5 13 17.5 ZM440 250 l-45 137 l117 85 l117 -85 l-45 -137 l-144 0 Z" /><glyph glyph-name="134-game" unicode="&#xe086;" d="M580 352 q0 -28 -20 -48 q-20 -20 -48 -20 q-28 0 -48 20 q-20 20 -20 48 q0 28 20 48 q20 20 48 20 q28 0 48 -20 q20 -20 20 -48 ZM341 591 q-28 0 -48 -20 q-20 -20 -20 -48 q0 -28 20 -48.5 q20 -20.5 48 -20.5 q28 0 48.5 20.5 q20.5 20.5 20.5 48.5 q0 28 -20.5 48 q-20.5 20 -48.5 20 ZM341 250 q-28 0 -48 -20.5 q-20 -20.5 -20 -48.5 q0 -28 20 -48 q20 -20 48 -20 q28 0 48.5 20 q20.5 20 20.5 48 q0 28 -20.5 48.5 q-20.5 20.5 -48.5 20.5 ZM683 250 q-28 0 -48.5 -20.5 q-20.5 -20.5 -20.5 -48.5 q0 -28 20.5 -48 q20.5 -20 48.5 -20 q28 0 48 20 q20 20 20 48 q0 28 -20 48.5 q-20 20.5 -48 20.5 ZM683 591 q-28 0 -48.5 -20 q-20.5 -20 -20.5 -48 q0 -28 20.5 -48.5 q20.5 -20.5 48.5 -20.5 q28 0 48 20.5 q20 20.5 20 48.5 q0 28 -20 48 q-20 20 -48 20 ZM887 591 l0 -478 q0 -37 -18 -68.5 q-18 -31.5 -49.5 -49.5 q-31.5 -18 -68.5 -18 l-478 0 q-37 0 -68.5 18 q-31.5 18 -49.5 49.5 q-18 31.5 -18 68.5 l0 478 q0 37 18 68.5 q18 31.5 49.5 49.5 q31.5 18 68.5 18 l478 0 q37 0 68.5 -18 q31.5 -18 49.5 -49.5 q18 -31.5 18 -68.5 ZM819 591 q0 28 -20 48 q-20 20 -48 20 l-478 0 q-28 0 -48 -20 q-20 -20 -20 -48 l0 -478 q0 -28 20 -48 q20 -20 48 -20 l478 0 q28 0 48 20 q20 20 20 48 l0 478 Z" /><glyph glyph-name="135-gaming" unicode="&#xe087;" d="M434 225 l-45 -44 l44 -44 q10 -10 10 -24 q0 -14 -9.5 -24 q-9.5 -10 -24 -10 q-14.5 0 -24.5 10 l-44 44 l-44 -44 q-10 -10 -24 -10 q-14 0 -24 10 q-10 10 -10 24 q0 14 10 24 l44 44 l-44 44 q-10 10 -10 24.5 q0 14.5 10 24 q10 9.5 24 9.5 q14 0 24 -10 l44 -44 l44 44 q10 10 24.5 10 q14.5 0 24.5 -10 q10 -10 10 -24 q0 -14 -10 -24 ZM614 642 q-21 0 -36 -15 q-15 -15 -15 -36 q0 -21 15 -36 q15 -15 36.5 -15 q21.5 0 36.5 15 q15 15 15 36 q0 21 -15 36 q-15 15 -37 15 ZM614 506 q-21 0 -36 -15 q-15 -15 -15 -36.5 q0 -21.5 15 -36.5 q15 -15 36.5 -15 q21.5 0 36.5 15 q15 15 15 36.5 q0 21.5 -15 36.5 q-15 15 -37 15 ZM751 506 q-21 0 -36 -15 q-15 -15 -15 -36.5 q0 -21.5 15 -36.5 q15 -15 36 -15 q21 0 36 15 q15 15 15 36.5 q0 21.5 -15 36.5 q-15 15 -36 15 ZM751 642 q-21 0 -36 -15 q-15 -15 -15 -36 q0 -21 15 -36 q15 -15 36 -15 q21 0 36 15 q15 15 15 36 q0 21 -15 36 q-15 15 -36 15 ZM956 523 q0 -71 -34.5 -132 q-34.5 -61 -93 -98.5 q-58.5 -37.5 -128.5 -42.5 l-86 -86 q-5 -70 -42.5 -128.5 q-37.5 -58.5 -98.5 -93 q-61 -34.5 -132 -34.5 q-74 0 -136.5 37 q-62.5 37 -99.5 99.5 q-37 62.5 -37 136.5 q0 56 21 106 q21 50 61 89 l338 338 q39 40 89 61 q50 21 106 21 q74 0 136.5 -37 q62.5 -37 99.5 -99.5 q37 -62.5 37 -136.5 ZM887 523 q0 55 -27.5 102 q-27.5 47 -74.5 74.5 q-47 27.5 -102 27.5 q-42 0 -79.5 -15.5 q-37.5 -15.5 -66.5 -45.5 l-339 -338 q-30 -30 -45.5 -67.5 q-15.5 -37.5 -15.5 -79.5 q0 -55 27.5 -102 q27.5 -47 74.5 -74.5 q47 -27.5 102 -27.5 q55 0 102 27 q47 27 74.5 73.5 q27.5 46.5 28.5 101.5 q0 14 10 24 l105 105 q10 10 24 10 q55 1 101.5 28.5 q46.5 27.5 73.5 74.5 q27 47 27 102 Z" /><glyph glyph-name="136-globe" unicode="&#xe088;" d="M512 796 q-120 0 -224 -61 q-100 -59 -159 -159 q-61 -104 -61 -224 q0 -120 61 -224 q59 -100 159 -159 q104 -61 224 -61 q120 0 224 61 q100 59 159 159 q61 104 61 224 q0 120 -61 224 q-59 100 -159 159 q-104 61 -224 61 ZM846 523 l-129 0 q-19 0 -29 -16 q-5 -8 -5.5 -17 q-0.5 -9 3.5 -16 l59 -123 l-115 -170 l-29 0 l-58 118 q-5 9 -13 14 q-8 5 -18 5 l-102 0 l0 136 l170 0 q14 0 24 10 q10 10 10 25 l0 136 q0 14 -10 24 q-10 10 -24 10 l-81 0 l33 67 q102 -5 186 -61 q83 -54 128 -142 ZM137 337 l68 -67 l0 -133 q-31 43 -48.5 94 q-17.5 51 -19.5 106 ZM512 -23 q-67 0 -129 22 q-60 23 -110 64 l0 221 q0 14 -10 24 l-119 119 q15 76 59 139 q44 63 109.5 104 q65.5 41 141.5 53 l-41 -83 q-4 -7 -3.5 -16 q0.5 -9 5 -16.5 q4.5 -7.5 12.5 -12 q8 -4.5 17 -4.5 l102 0 l0 -68 l-171 0 q-14 0 -24 -10 q-10 -10 -10 -24 l0 -205 q0 -14 10 -24 q10 -10 24 -10 l116 0 l59 -118 q4 -9 12 -14 q8 -5 18 -5 l69 0 q17 0 28 15 l136 202 q5 7 5.5 16 q0.5 9 -3.5 18 l-44 90 l102 0 q15 -52 15 -102 q0 -102 -52 -189 q-50 -85 -135 -135 q-87 -51 -189 -51 Z" /><glyph glyph-name="137-handset" unicode="&#xe089;" d="M946 649 l-64 64 q-41 42 -107 49.5 q-66 7.5 -149 -20.5 q-76 -25 -154.5 -76.5 q-78.5 -51.5 -150 -123 q-71.5 -71.5 -123 -150 q-51.5 -78.5 -76.5 -154.5 q-28 -83 -20.5 -149 q7.5 -66 49.5 -107 l64 -64 q10 -10 24 -10 q14 0 24 10 l205 205 q10 10 10 24 q0 14 -10 24 l-79 79 l225 225 l79 -79 q10 -10 24 -10 q14 0 24 10 l204 205 q11 10 11 24 q0 14 -10 24 ZM717 468 l-78 79 q-10 10 -24.5 10 q-14.5 0 -23.5 -10 l-274 -274 q-10 -9 -10 -23.5 q0 -14.5 10 -24.5 l79 -78 l-157 -156 l-40 39 q-26 27 -29.5 75.5 q-3.5 48.5 17.5 110.5 q23 69 70 140.5 q47 71.5 113 137 q66 65.5 137.5 113 q71.5 47.5 140.5 70.5 q62 21 110.5 17.5 q48.5 -3.5 75.5 -30.5 l39 -39 l-156 -157 Z" /><glyph glyph-name="138-headphone" unicode="&#xe08a;" d="M512 796 q-120 0 -224 -61 q-100 -59 -159 -159 q-61 -104 -61 -224 q0 -90 36 -173 q36 -83 101 -146 l0 -22 q0 -43 30 -73 q30 -30 72 -30 l68 0 q15 0 25 10 q10 10 10 24 l0 342 q0 14 -10 24 q-10 10 -25 10 l-68 0 q-42 0 -72 -30 q-30 -30 -30 -73 l0 -78 q-33 48 -50.5 103 q-17.5 55 -17.5 112 q0 98 47 182 q14 -21 36.5 -33 q22.5 -12 48.5 -12 q42 0 73 30 q34 35 78 53.5 q44 18.5 92 18.5 q48 0 92.5 -18.5 q44.5 -18.5 77.5 -53.5 q31 -30 73 -30 q26 0 48.5 12 q22.5 12 36.5 33 q47 -84 47 -182 q0 -57 -17.5 -112 q-17.5 -55 -50.5 -103 l0 78 q0 43 -30 73 q-30 30 -72 30 l-68 0 q-15 0 -25 -10 q-10 -10 -10 -24 l0 -342 q0 -14 10 -24 q10 -10 25 -10 l68 0 q42 0 72 30 q30 30 30 73 l0 22 q65 63 101 146 q36 83 36 173 q0 120 -61 224 q-59 100 -159 159 q-104 61 -224 61 ZM273 215 q0 15 10 25 q10 10 24 10 l34 0 l0 -273 l-34 0 q-14 0 -24 10 q-10 10 -10 24 l0 204 ZM780 566 q-10 -10 -24 -10 q-14 0 -24 11 q-44 45 -101 68.5 q-57 23.5 -119 23.5 q-62 0 -119 -24 q-57 -24 -100 -68 q-10 -10 -24.5 -10.5 q-14.5 -0.5 -24.5 9.5 q-10 10 -10 24 q0 14 10 24 q53 55 122.5 84 q69.5 29 145.5 29 q76 0 145.5 -29 q69.5 -29 122.5 -84 q10 -10 10 -24 q0 -14 -10 -24 ZM751 11 q0 -14 -10 -24 q-10 -10 -24 -10 l-34 0 l0 273 l34 0 q14 0 24 -10 q10 -10 10 -25 l0 -204 Z" /><glyph glyph-name="139-headset" unicode="&#xe08b;" d="M956 352 q0 120 -61 224 q-59 100 -159 159 q-104 61 -224 61 q-120 0 -224 -61 q-100 -59 -159 -159 q-61 -104 -61 -224 q0 -90 36 -173 q36 -83 101 -146 l0 -22 q0 -43 30 -73 q30 -30 72 -30 l68 0 q15 0 25 10 q10 10 10 24 l0 342 q0 14 -10 24 q-10 10 -25 10 l-68 0 q-42 0 -72 -30 q-30 -30 -30 -73 l0 -78 q-33 48 -50.5 103 q-17.5 55 -17.5 112 q0 98 47 182 q14 -21 36.5 -33 q22.5 -12 48.5 -12 q42 0 73 30 q34 35 78 53.5 q44 18.5 92 18.5 q48 0 92.5 -18.5 q44.5 -18.5 77.5 -53.5 q31 -30 73 -30 q26 0 48.5 12 q22.5 12 36.5 33 q47 -84 47 -182 q0 -73 -27.5 -141 q-27.5 -68 -79.5 -120 q-28 22 -63 22 q-42 0 -72.5 -30 q-30.5 -30 -30.5 -72.5 q0 -42.5 30.5 -72.5 q30.5 -30 72.5 -30 q42 0 72 30 q30 30 30 73 q0 10 -2 20 q66 63 102.5 146.5 q36.5 83.5 36.5 174.5 ZM273 215 q0 15 10 25 q10 10 24 10 l34 0 l0 -273 l-34 0 q-14 0 -24 10 q-10 10 -10 24 l0 204 ZM780 566 q-10 -10 -24 -10 q-14 0 -24 11 q-44 45 -101 68.5 q-57 23.5 -119 23.5 q-62 0 -119 -24 q-57 -24 -100 -68 q-10 -10 -24.5 -10.5 q-14.5 -0.5 -24.5 9.5 q-10 10 -10 24 q0 14 10 24 q53 55 122.5 84 q69.5 29 145.5 29 q76 0 145.5 -29 q69.5 -29 122.5 -84 q10 -10 10 -24 q0 -14 -10 -24 ZM717 -23 q-14 0 -24 10 q-10 10 -10 24 q0 14 10 24 q10 10 24 10 q14 0 24 -10 q10 -10 10 -24 q0 -14 -10 -24 q-10 -10 -24 -10 Z" /><glyph glyph-name="140-index-card" unicode="&#xe08c;" d="M853 659 l-682 0 q-43 0 -73 -30 q-30 -30 -30 -72 l0 -546 q0 -14 10 -24 q10 -10 24 -10 l820 0 q14 0 24 10 q10 10 10 24 l0 546 q0 42 -30 72 q-30 30 -73 30 ZM887 45 l-136 0 l0 68 q0 14 -10 24 q-10 10 -24 10 q-14 0 -24 -10 q-10 -10 -10 -24 l0 -68 l-342 0 l0 68 q0 14 -10 24 q-10 10 -24 10 q-14 0 -24 -10 q-10 -10 -10 -24 l0 -68 l-136 0 l0 512 q0 14 10 24 q10 10 24 10 l682 0 q14 0 24 -10 q10 -10 10 -24 l0 -512 ZM341 386 q-28 0 -48 20 q-20 20 -20 48.5 q0 28.5 20 48.5 q20 20 48 20 q28 0 48.5 -20 q20.5 -20 20.5 -48.5 q0 -28.5 -20.5 -48.5 q-20.5 -20 -48.5 -20 ZM819 420 q0 -14 -10 -24 q-10 -10 -24 -10 l-205 0 q-14 0 -24 10 q-10 10 -10 24 q0 14 10 24 q10 10 24 10 l205 0 q14 0 24 -10 q10 -10 10 -24 ZM819 284 q0 -14 -10 -24 q-10 -10 -24 -10 l-205 0 q-14 0 -24 10 q-10 10 -10 24 q0 14 10 24 q10 10 24 10 l205 0 q14 0 24 -10 q10 -10 10 -24 ZM444 284 q0 -14 -10 -24 q-10 -10 -24 -10 l-137 0 q-14 0 -24 10 q-10 10 -10 24 q0 42 30 72 q30 30 72.5 30 q42.5 0 72.5 -30 q30 -30 30 -72 Z" /><glyph glyph-name="141-leaf" unicode="&#xe08d;" d="M853 727 l-341 0 q-102 0 -189 -51 q-85 -50 -135 -135 q-51 -87 -51 -189 q0 -67 23 -130 q22 -60 64 -110 l-78 -77 q-10 -10 -10 -24 q0 -14 10 -24 q10 -10 24.5 -10 q14.5 0 24.5 10 l77 77 q49 -42 111 -64.5 q62 -22.5 129 -22.5 q102 0 189 51 q85 50 135 135 q51 87 51 189 l0 341 q0 14 -10 24 q-10 10 -24 10 ZM819 352 q0 -83 -42 -155 q-41 -69 -110 -110 q-72 -42 -155 -42 q-53 0 -102 17.5 q-49 17.5 -89 49.5 l68 69 l260 0 q14 0 24 10 q10 10 10 24.5 q0 14.5 -10 24.5 q-10 10 -24 10 l-191 0 l214 214 q10 10 10 24 q0 14 -10 24 q-10 10 -24 10 q-14 0 -24 -10 l-214 -214 l0 191 q0 14 -10 24 q-10 10 -24.5 10 q-14.5 0 -24.5 -10 q-10 -10 -10 -24 l0 -260 l-69 -69 q-32 41 -49.5 90 q-17.5 49 -17.5 102 q0 83 42 155 q41 69 110 110 q72 42 155 42 l307 0 l0 -307 Z" /><glyph glyph-name="142-lifesaver" unicode="&#xe08e;" d="M512 796 q-120 0 -224 -61 q-100 -59 -159 -159 q-61 -104 -61 -224 q0 -120 61 -224 q59 -100 159 -159 q104 -61 224 -61 q120 0 224 61 q100 59 159 159 q61 104 61 224 q0 120 -61 224 q-59 100 -159 159 q-104 61 -224 61 ZM722 238 q29 54 29 114 q0 60 -29 114 l99 99 q32 -47 49 -101 q17 -54 17 -112 q0 -58 -17 -112 q-17 -54 -49 -101 l-99 99 ZM341 352 q0 46 23 85.5 q23 39.5 62.5 62.5 q39.5 23 85.5 23 q46 0 85.5 -23 q39.5 -23 62.5 -62.5 q23 -39.5 23 -85.5 q0 -46 -23 -85.5 q-23 -39.5 -62.5 -62.5 q-39.5 -23 -85.5 -23 q-46 0 -85.5 23 q-39.5 23 -62.5 62.5 q-23 39.5 -23 85.5 ZM725 661 l-99 -99 q-54 29 -114 29 q-60 0 -114 -29 l-99 99 q47 32 101 49 q54 17 112 17 q58 0 112 -17 q54 -17 101 -49 ZM203 565 l99 -99 q-29 -54 -29 -114 q0 -60 29 -114 l-99 -99 q-32 47 -49 101 q-17 54 -17 112 q0 58 17 112 q17 54 49 101 ZM299 43 l99 99 q54 -29 114 -29 q60 0 114 29 l99 -99 q-47 -32 -101 -49 q-54 -17 -112 -17 q-58 0 -112 17 q-54 17 -101 49 Z" /><glyph glyph-name="143-modem-wlan" unicode="&#xe08f;" d="M198 618 q-10 10 -10 24 q0 14 10 24 q85 85 201 115 q113 29 226 0 q116 -30 201 -115 q10 -10 10 -24 q0 -14 -10 -24 q-10 -10 -24 -10 q-14 0 -24 10 q-72 72 -171 97 q-95 25 -190 0 q-99 -25 -171 -97 q-10 -10 -24 -10 q-14 0 -24 10 ZM729 521 q10 10 10 24 q0 14 -10 24 q-59 59 -139 80 q-78 20 -156 0 q-81 -21 -139 -80 q-10 -10 -10 -24 q0 -14 10 -24 q10 -10 24 -10 q14 0 24 10 q46 46 107.5 62 q61.5 16 123 0 q61.5 -16 107.5 -62 q10 -10 24 -10 q14 0 24 10 ZM391 473 q-10 -10 -10 -24 q0 -14 10 -24 q10 -10 24 -10 q14 0 24 10 q19 19 46 25.5 q27 6.5 53.5 0 q26.5 -6.5 45.5 -25.5 q10 -10 24 -10 q14 0 24 10 q10 10 10 24 q0 14 -10 24 q-32 33 -76 44 q-44 11 -88 0 q-44 -11 -77 -44 ZM956 215 l0 -204 q0 -14 -10 -24 q-10 -10 -24 -10 l-820 0 q-14 0 -24 10 q-10 10 -10 24 l0 204 q0 43 30 73 q30 30 73 30 l682 0 q43 0 73 -30 q30 -30 30 -73 ZM887 215 q0 15 -10 25 q-10 10 -24 10 l-682 0 q-14 0 -24 -10 q-10 -10 -10 -25 l0 -170 l750 0 l0 170 ZM375 181 l-136 0 q-14 0 -24 -10 q-10 -10 -10 -24 q0 -14 10 -24 q10 -10 24 -10 l136 0 q15 0 25 10 q10 10 10 24 q0 14 -10 24 q-10 10 -25 10 Z" /><glyph glyph-name="144-movie" unicode="&#xe090;" d="M785 727 l-546 0 q-42 0 -72 -30 q-30 -30 -30 -72 l0 -614 q0 -14 10 -24 q10 -10 24 -10 l682 0 q14 0 24 10 q10 10 10 24 l0 614 q0 42 -30 72 q-30 30 -72 30 ZM819 625 l0 -34 l-68 0 l0 68 l34 0 q14 0 24 -10 q10 -10 10 -24 ZM273 454 l-68 0 l0 69 l68 0 l0 -69 ZM273 386 l0 -68 l-68 0 l0 68 l68 0 ZM273 250 l0 -69 l-68 0 l0 69 l68 0 ZM341 659 l342 0 l0 -614 l-342 0 l0 614 ZM751 250 l68 0 l0 -69 l-68 0 l0 69 ZM751 318 l0 68 l68 0 l0 -68 l-68 0 ZM751 454 l0 69 l68 0 l0 -69 l-68 0 ZM239 659 l34 0 l0 -68 l-68 0 l0 34 q0 14 10 24 q10 10 24 10 ZM205 113 l68 0 l0 -68 l-68 0 l0 68 ZM751 45 l0 68 l68 0 l0 -68 l-68 0 Z" /><glyph glyph-name="145-movie-2" unicode="&#xe091;" d="M853 727 l-682 0 q-43 0 -73 -30 q-30 -30 -30 -72 l0 -614 q0 -14 10 -24 q10 -10 24 -10 l820 0 q14 0 24 10 q10 10 10 24 l0 614 q0 42 -30 72 q-30 30 -73 30 ZM887 625 l0 -34 l-224 0 l68 68 l122 0 q14 0 24 -10 q10 -10 10 -24 ZM634 659 l-68 -68 l-177 0 l69 68 l176 0 ZM171 659 l190 0 l-68 -68 l-156 0 l0 34 q0 14 10 24 q10 10 24 10 ZM137 45 l0 478 l750 0 l0 -478 l-750 0 Z" /><glyph glyph-name="146-movie-3" unicode="&#xe092;" d="M410 181 l0 205 q0 9 4.5 17 q4.5 8 12.5 12.5 q8 4.5 17 4.5 q9 0 17 -5 l171 -102 q8 -4 12.5 -12 q4.5 -8 4.5 -17 q0 -9 -4.5 -17 q-4.5 -8 -12.5 -13 l-171 -102 q-8 -5 -17 -5 q-9 0 -17 4.5 q-8 4.5 -12.5 12.5 q-4.5 8 -4.5 17 ZM956 625 l0 -614 q0 -14 -10 -24 q-10 -10 -24 -10 l-820 0 q-14 0 -24 10 q-10 10 -10 24 l0 614 q0 42 30 72 q30 30 73 30 l682 0 q43 0 73 -30 q30 -30 30 -72 ZM389 591 l177 0 l68 68 l-176 0 l-69 -68 ZM137 591 l156 0 l68 68 l-190 0 q-14 0 -24 -10 q-10 -10 -10 -24 l0 -34 ZM887 523 l-750 0 l0 -478 l750 0 l0 478 ZM887 625 q0 14 -10 24 q-10 10 -24 10 l-122 0 l-68 -68 l224 0 l0 34 Z" /></font>
</defs>
</svg>
