<?xml version="1.0" standalone="no"?><!DOCTYPE svg PUBLIC "-//W3C//DTD SVG 1.1//EN" "http://www.w3.org/Graphics/SVG/1.1/DTD/svg11.dtd" ><svg xmlns="http://www.w3.org/2000/svg"><metadata></metadata><defs><font id="Luc[as]deGroot: TheSans B7 Bold: 2010" horiz-adv-x="1316"><font-face font-family="TheSans B7 Bold" font-weight="530" font-stretch="normal" units-per-em="1000" panose-1="2 11 8 3 4 3 3 6 2 4" ascent="980" descent="-320" x-height="4" bbox="-256 -320 1080 980" underline-thickness="102" underline-position="-144" unicode-range="U+0000-fb04" /><missing-glyph horiz-adv-x="550" d="M450 100 l0 350 l-350 0 l0 -350 l350 0 ZM250 350 l0 50 l150 0 l0 -250 l-50 0 l0 100 l-100 0 l0 50 l100 0 l0 50 l-100 0 ZM50 50 l0 450 l450 0 l0 -450 l-450 0 ZM150 150 l0 250 l50 0 l0 -200 l100 0 l0 -50 l-150 0 Z" /><glyph glyph-name=".null" unicode="" d="" /><glyph glyph-name="nonmarkingreturn" unicode="" d="" /><glyph glyph-name="nonbreakingspace" unicode="  " d="" /><glyph glyph-name="exclam" unicode="!" d="M247 65 q0 -32 -22.5 -54 q-22.5 -22 -56.5 -22 q-33 0 -55.5 22 q-22.5 22 -22.5 54 q0 32 22.5 54 q22.5 22 55.5 22 q34 0 56.5 -22 q22.5 -22 22.5 -54 ZM225 188 l-110 0 l-21 520 l150 0 l-19 -520 Z" /><glyph glyph-name="quotedbl" unicode="&quot;" d="M156 448 l-96 0 l-16 254 l128 0 l-16 -254 ZM344 448 l-95 0 l-16 254 l128 0 l-17 -254 Z" /><glyph glyph-name="numbersign" unicode="#" d="M467 411 l-15 -143 l80 0 l0 -90 l-90 0 l-18 -178 l-102 0 l19 178 l-132 0 l-19 -178 l-102 0 l19 178 l-79 0 l0 90 l88 0 l16 143 l-80 0 l0 89 l89 0 l18 175 l102 0 l-19 -175 l132 0 l19 175 l102 0 l-19 -175 l79 0 l0 -89 l-88 0 ZM234 411 l-16 -143 l132 0 l15 143 l-131 0 Z" /><glyph glyph-name="dollar" unicode="$" d="M448 185 q0 -34 -11.5 -64.5 q-11.5 -30.5 -32.5 -55.5 q-21 -25 -52 -43 q-31 -18 -69 -26 l0 -122 l-92 0 l0 115 q-34 1 -63 4 q-29 3 -58 9 l9 116 q14 -5 30.5 -9.5 q16.5 -4.5 33 -6.5 q16.5 -2 32.5 -3.5 q16 -1.5 31 -1.5 q23 0 43 4 q20 4 34 13.5 q14 9.5 22 23.5 q8 14 8 34 q0 27 -19.5 43.5 q-19.5 16.5 -49.5 29.5 q-30 13 -64.5 26 q-34.5 13 -64 33.5 q-29.5 20.5 -49.5 53 q-20 32.5 -20 84.5 q0 34 11.5 63 q11.5 29 32 52 q20.5 23 49.5 39.5 q29 16.5 65 22.5 l0 101 l91 0 l0 -94 q26 -1 52 -3.5 q26 -2.5 50 -8.5 l-8 -109 q-30 8 -58.5 12.5 q-28.5 4.5 -52.5 4.5 q-28 0 -46.5 -5.5 q-18.5 -5.5 -30.5 -15 q-12 -9.5 -17.5 -21 q-5.5 -11.5 -5.5 -25.5 q0 -26 20 -42 q20 -16 50 -28.5 q30 -12.5 65 -26.5 q35 -14 65 -35 q30 -21 50 -54 q20 -33 20 -84 Z" /><glyph glyph-name="percent" unicode="%" d="M247 527 q0 45 -14 62.5 q-14 17.5 -42 17.5 q-23 0 -39 -20.5 q-16 -20.5 -16 -57.5 q0 -45 14.5 -63 q14.5 -18 41.5 -18 q23 0 39 20.5 q16 20.5 16 58.5 ZM625 148 q0 44 -14 61.5 q-14 17.5 -41 17.5 q-24 0 -40 -20 q-16 -20 -16 -57 q0 -45 14.5 -63 q14.5 -18 42.5 -18 q23 0 38.5 20.5 q15.5 20.5 15.5 58.5 ZM343 534 q0 -37 -12 -67.5 q-12 -30.5 -33 -52.5 q-21 -22 -50 -34 q-29 -12 -62 -12 q-73 0 -110.5 42 q-37.5 42 -37.5 114 q0 36 12 66 q12 30 33 51.5 q21 21.5 50 33.5 q29 12 62 12 q69 0 108.5 -38 q39.5 -38 39.5 -115 ZM168 -22 l-80 57 l501 661 l80 -58 l-501 -660 ZM722 154 q0 -37 -12 -67.5 q-12 -30.5 -33.5 -52 q-21.5 -21.5 -50 -33.5 q-28.5 -12 -61.5 -12 q-73 0 -110.5 41.5 q-37.5 41.5 -37.5 114.5 q0 36 12 66 q12 30 33 51.5 q21 21.5 49.5 33.5 q28.5 12 61.5 12 q69 0 109 -38 q40 -38 40 -116 Z" /><glyph glyph-name="ampersand" unicode="&amp;" d="M440 147 q-26 21 -52.5 43.5 q-26.5 22.5 -51.5 45.5 q-25 23 -47.5 44 q-22.5 21 -39.5 39 q-30 -26 -45.5 -49 q-15.5 -23 -18.5 -34.5 q-3 -11.5 -4 -18 q-1 -6.5 -1 -14.5 q0 -21 8 -40 q8 -19 23 -33.5 q15 -14.5 36.5 -23 q21.5 -8.5 48.5 -8.5 q45 0 81 14.5 q36 14.5 63 34.5 ZM340 582 q0 25 -15 42.5 q-15 17.5 -47 17.5 q-28 0 -45.5 -17 q-17.5 -17 -17.5 -45 q0 -12 3.5 -24 q3.5 -12 9.5 -23.5 q6 -11.5 16.5 -27 q10.5 -15.5 27.5 -35.5 q21 18 31 29.5 q10 11.5 17.5 22.5 q7.5 11 13.5 26 q6 15 6 34 ZM671 -23 q-17 12 -35.5 25 q-18.5 13 -36.5 26 q-18 13 -35 25.5 q-17 12.5 -30 23.5 q-24 -19 -53.5 -36 q-29.5 -17 -60 -27.5 q-30.5 -10.5 -67.5 -17.5 q-37 -7 -79 -7 q-59 0 -101.5 16 q-42.5 16 -70.5 43 q-28 27 -41.5 63 q-13.5 36 -13.5 76 q0 17 2.5 33.5 q2.5 16.5 11 40 q8.5 23.5 25 46.5 q16.5 23 33.5 40 q17 17 55 48 q-23 27 -39 50 q-16 23 -26 44 q-10 21 -15 41.5 q-5 20.5 -5 42.5 q0 33 13 63 q13 30 38 52.5 q25 22.5 62.5 36 q37.5 13.5 85.5 13.5 q87 0 132.5 -40.5 q45.5 -40.5 45.5 -106.5 q0 -14 -2 -29 q-2 -15 -9 -33 q-7 -18 -18.5 -37.5 q-11.5 -19.5 -26.5 -35.5 q-15 -16 -31 -31 q-16 -15 -32 -27 q28 -28 87.5 -81.5 q59.5 -53.5 93.5 -78.5 q0 -1 8 12 q8 13 14.5 26.5 q6.5 13.5 16.5 40.5 q10 27 15.5 60 q5.5 33 5.5 47.5 q0 14.5 0 33.5 l127 0 q1 -20 -0.5 -39 q-1.5 -19 -10 -68.5 q-8.5 -49.5 -32 -100 q-23.5 -50.5 -48.5 -82.5 q33 -25 68.5 -50.5 q35.5 -25.5 62.5 -43.5 l-84 -97 Z" /><glyph glyph-name="quotesingle" unicode="&#39;" d="M156 448 l-96 0 l-16 254 l128 0 l-16 -254 Z" /><glyph glyph-name="parenleft" unicode="(" d="M200 -215 q-84 132 -116 256 q-32 124 -32 244 q0 118 34.5 245 q34.5 127 114.5 257 l93 -43 q-57 -101 -86.5 -216 q-29.5 -115 -29.5 -238 q0 -254 119 -460 l-97 -45 Z" /><glyph glyph-name="parenright" unicode=")" d="M256 288 q0 -121 -33 -247 q-33 -126 -116 -256 l-93 43 q57 101 87 216 q30 115 30 239 q0 253 -118 460 l97 44 q82 -132 114 -255.5 q32 -123.5 32 -243.5 Z" /><glyph glyph-name="asterisk" unicode="*" d="M305 452 l-85 69 l16 -109 l-91 0 l16 109 l-85 -69 l-45 79 l101 40 l-101 40 l45 79 l85 -68 l-16 108 l91 0 l-16 -108 l85 68 l45 -79 l-101 -40 l101 -40 l-45 -79 Z" /><glyph glyph-name="plus" unicode="+" d="M335 244 l0 -186 l-121 0 l0 186 l-175 0 l0 107 l175 0 l0 185 l121 0 l0 -185 l176 0 l0 -107 l-176 0 Z" /><glyph glyph-name="comma" unicode="," d="M128 149 q35 0 58 -27.5 q23 -27.5 23 -72.5 q0 -45 -29.5 -103 q-29.5 -58 -99.5 -119 l-53 47 q52 55 58.5 90 q6.5 35 -17.5 63 q-14 17 -16 38 q-2 21 6 40 q8 19 26 31.5 q18 12.5 44 12.5 Z" /><glyph glyph-name="hyphen" unicode="-­&#x2010;" d="M44 226 l0 103 l246 0 l0 -103 l-246 0 Z" /><glyph glyph-name="period" unicode="." d="M210 71 q0 -34 -23.5 -58 q-23.5 -24 -57.5 -24 q-34 0 -58 24 q-24 24 -24 58 q0 33 24 57 q24 24 58 24 q34 0 57.5 -24 q23.5 -24 23.5 -57 Z" /><glyph glyph-name="slash" unicode="/" d="M115 -161 l-126 0 l350 918 l126 0 l-350 -918 Z" /><glyph glyph-name="zero" unicode="0" d="M376 326 q0 69 -6 113 q-6 44 -19 69.5 q-13 25.5 -32 35 q-19 9.5 -45 9.5 q-22 0 -40.5 -10.5 q-18.5 -10.5 -32 -35.5 q-13.5 -25 -21 -68 q-7.5 -43 -7.5 -107 q0 -68 5.5 -113 q5.5 -45 17.5 -71.5 q12 -26.5 31.5 -37.5 q19.5 -11 47.5 -11 q24 0 43 11.5 q19 11.5 31.5 38.5 q12.5 27 19.5 70.5 q7 43.5 7 106.5 ZM514 330 q0 -90 -20 -155 q-20 -65 -54 -106 q-34 -41 -78 -60.5 q-44 -19.5 -93 -19.5 q-55 0 -98.5 16.5 q-43.5 16.5 -73.5 55.5 q-30 39 -46 104 q-16 65 -16 163 q0 85 18 147.5 q18 62.5 50.5 104 q32.5 41.5 77.5 61.5 q45 20 99 20 q55 0 98.5 -17.5 q43.5 -17.5 73.5 -56.5 q30 -39 46 -102 q16 -63 16 -155 Z" /><glyph glyph-name="one" unicode="1" d="M66 0 l0 115 l163 0 l0 403 l-145 -57 l-21 121 l200 68 l99 0 l0 -535 l142 0 l0 -115 l-438 0 Z" /><glyph glyph-name="two" unicode="2" d="M51 0 l0 104 l98 96 q57 56 92.5 94.5 q35.5 38.5 54.5 65.5 q19 27 25.5 47 q6.5 20 6.5 40 q0 42 -27.5 69.5 q-27.5 27.5 -81.5 27.5 q-41 0 -76.5 -14 q-35.5 -14 -61.5 -32 l-25 114 q38 21 87 35 q49 14 104 14 q58 0 100 -16 q42 -16 69 -42.5 q27 -26.5 40 -61.5 q13 -35 13 -72 q0 -32 -7.5 -62 q-7.5 -30 -25.5 -61.5 q-18 -31.5 -49.5 -68 q-31.5 -36.5 -79.5 -81.5 l-79 -74 l0 -1 q35 1 82.5 1.5 q47.5 0.5 102.5 0.5 l80 0 l0 -123 l-442 0 Z" /><glyph glyph-name="three" unicode="3" d="M484 207 q0 -52 -21 -92.5 q-21 -40.5 -59 -68.5 q-38 -28 -91.5 -42.5 q-53.5 -14.5 -117.5 -14.5 q-37 0 -71.5 4.5 q-34.5 4.5 -57.5 11.5 l12 110 q56 -19 125 -19 q74 0 108.5 27.5 q34.5 27.5 34.5 69.5 q0 42 -34 67 q-34 25 -108 25 q-28 0 -52 -1.5 q-24 -1.5 -50 -4.5 l0 99 l29 0 q46 0 83.5 6 q37.5 6 64 18 q26.5 12 41 30.5 q14.5 18.5 14.5 44.5 q0 36 -27 57 q-27 21 -81 21 q-42 0 -76.5 -9.5 q-34.5 -9.5 -62.5 -23.5 l-12 108 q38 14 81.5 22.5 q43.5 8.5 95.5 8.5 q109 0 162.5 -45 q53.5 -45 53.5 -115 q0 -57 -29.5 -93.5 q-29.5 -36.5 -83.5 -52.5 l-1 -3 q28 -3 52 -16 q24 -13 41.5 -32.5 q17.5 -19.5 27 -44 q9.5 -24.5 9.5 -52.5 Z" /><glyph glyph-name="four" unicode="4" d="M315 522 l-1 0 l-167 -268 q16 1 40 1.5 q24 0.5 48 0.5 l80 0 l0 266 ZM439 141 l0 -141 l-126 0 l0 141 l-283 0 l-12 106 l247 403 l174 0 l0 -394 l90 0 l0 -115 l-90 0 Z" /><glyph glyph-name="five" unicode="5" d="M489 217 q0 -52 -20.5 -94 q-20.5 -42 -58 -72 q-37.5 -30 -90.5 -46 q-53 -16 -117 -16 q-35 0 -65 3.5 q-30 3.5 -59 10.5 l0 115 q29 -9 60.5 -14 q31.5 -5 72.5 -5 q66 0 101 28 q35 28 35 77 q0 48 -39.5 73 q-39.5 25 -108.5 25 q-33 0 -62 -2 q-29 -2 -50 -6 l0 356 l373 0 l0 -120 l-252 0 l0 -128 q14 1 22 1 q8 0 17 0 q58 0 103 -14 q45 -14 75.5 -38.5 q30.5 -24.5 46.5 -59 q16 -34.5 16 -74.5 Z" /><glyph glyph-name="six" unicode="6" d="M386 203 q0 50 -26.5 78 q-26.5 28 -78.5 28 q-25 0 -45 -8.5 q-20 -8.5 -33.5 -23 q-13.5 -14.5 -20.5 -32 q-7 -17.5 -7 -35.5 q0 -50 27.5 -83.5 q27.5 -33.5 82.5 -33.5 q48 0 74.5 31 q26.5 31 26.5 79 ZM515 223 q0 -55 -17 -98.5 q-17 -43.5 -48 -73.5 q-31 -30 -75 -46 q-44 -16 -97 -16 q-110 0 -174 70.5 q-64 70.5 -64 213.5 q0 97 24.5 170 q24.5 73 69 121 q44.5 48 107.5 72 q63 24 140 24 q19 0 39 -1 q20 -1 36 -3 l0 -111 q-38 7 -82 7 q-84 0 -130.5 -42 q-46.5 -42 -66.5 -119 q-5 -14 -9 -40 l1 0 q23 30 59.5 46.5 q36.5 16.5 83.5 16.5 q49 0 87 -15 q38 -15 64 -41 q26 -26 39 -61 q13 -35 13 -74 Z" /><glyph glyph-name="seven" unicode="7" d="M499 540 q-34 -65 -66 -135.5 q-32 -70.5 -60.5 -140.5 q-28.5 -70 -52.5 -137 q-24 -67 -43 -127 l-147 0 q21 65 47.5 135.5 q26.5 70.5 55.5 139.5 q29 69 59 133.5 q30 64.5 59 118.5 q-11 0 -35 -0.5 q-24 -0.5 -54 -1 q-30 -0.5 -64 -0.5 l-148 0 l0 125 l449 0 l0 -110 l0 0 Z" /><glyph glyph-name="eight" unicode="8" d="M377 167 q0 21 -9 36.5 q-9 15.5 -24 28.5 q-15 13 -35.5 23.5 q-20.5 10.5 -43.5 20.5 q-38 -22 -65 -46 q-27 -24 -27 -61 q0 -34 26.5 -56 q26.5 -22 79.5 -22 q42 0 70 20.5 q28 20.5 28 55.5 ZM365 488 q0 32 -23.5 53 q-23.5 21 -68.5 21 q-44 0 -66 -22 q-22 -22 -22 -51 q0 -33 24 -54 q24 -21 72 -44 q35 20 59.5 42.5 q24.5 22.5 24.5 54.5 ZM509 179 q0 -46 -19 -81.5 q-19 -35.5 -52 -59.5 q-33 -24 -77 -36.5 q-44 -12.5 -93 -12.5 q-53 0 -95 12 q-42 12 -71.5 34 q-29.5 22 -45.5 53.5 q-16 31.5 -16 70.5 q0 29 9.5 53 q9.5 24 26 44 q16.5 20 38.5 37 q22 17 46 32 q-48 26 -76 62 q-28 36 -28 91 q0 41 16.5 75 q16.5 34 46.5 58 q30 24 71.5 37 q41.5 13 91.5 13 q50 0 89.5 -12 q39.5 -12 66.5 -33.5 q27 -21.5 41.5 -51.5 q14.5 -30 14.5 -65 q0 -27 -8.5 -49 q-8.5 -22 -23 -41 q-14.5 -19 -33.5 -35 q-19 -16 -41 -30 q24 -13 45.5 -28.5 q21.5 -15.5 38.5 -35 q17 -19.5 27 -44.5 q10 -25 10 -57 Z" /><glyph glyph-name="nine" unicode="9" d="M370 440 q0 51 -27 84 q-27 33 -81 33 q-48 0 -74 -31.5 q-26 -31.5 -26 -77.5 q0 -51 26.5 -79.5 q26.5 -28.5 76.5 -28.5 q51 0 78 29.5 q27 29.5 27 70.5 ZM508 377 q0 -99 -24.5 -171.5 q-24.5 -72.5 -69 -120.5 q-44.5 -48 -107.5 -71.5 q-63 -23.5 -139 -23.5 q-21 0 -45 1.5 q-24 1.5 -47 5.5 l0 113 q49 -12 100 -12 q81 0 127.5 39 q46.5 39 64.5 115 q2 11 4.5 19.5 q2.5 8.5 4.5 19.5 l-1 0 q-23 -26 -58.5 -41 q-35.5 -15 -80.5 -15 q-49 0 -87 15 q-38 15 -63.5 41 q-25.5 26 -39 61.5 q-13.5 35.5 -13.5 76.5 q0 54 17.5 97 q17.5 43 49 73 q31.5 30 75 46 q43.5 16 95.5 16 q54 0 98 -17 q44 -17 74.5 -52 q30.5 -35 47.5 -88.5 q17 -53.5 17 -126.5 Z" /><glyph glyph-name="colon" unicode=":" d="M242 71 q0 -34 -23.5 -58 q-23.5 -24 -57.5 -24 q-34 0 -58 24 q-24 24 -24 58 q0 33 24 57 q24 24 58 24 q34 0 57.5 -24 q23.5 -24 23.5 -57 ZM242 354 q0 -34 -23.5 -58 q-23.5 -24 -57.5 -24 q-34 0 -58 24 q-24 24 -24 58 q0 33 24 57 q24 24 58 24 q34 0 57.5 -24 q23.5 -24 23.5 -57 Z" /><glyph glyph-name="semicolon" unicode=";&#x37e;" d="M160 149 q36 0 59 -27.5 q23 -27.5 23 -72.5 q0 -45 -29.5 -103 q-29.5 -58 -99.5 -119 l-53 47 q51 55 57.5 90 q6.5 35 -16.5 63 q-14 17 -16 38 q-2 21 6 40 q8 19 25.5 31.5 q17.5 12.5 43.5 12.5 ZM242 354 q0 -34 -23.5 -58 q-23.5 -24 -57.5 -24 q-34 0 -58 24 q-24 24 -24 58 q0 33 24 57 q24 24 58 24 q34 0 57.5 -24 q23.5 -24 23.5 -57 Z" /><glyph glyph-name="less" unicode="&lt;" d="M382 6 l-319 295 l318 294 l84 -84 l-237 -209 l238 -209 l-84 -87 Z" /><glyph glyph-name="equal" unicode="=" d="M53 150 l0 103 l444 0 l0 -103 l-444 0 ZM53 341 l0 103 l444 0 l0 -103 l-444 0 Z" /><glyph glyph-name="greater" unicode="&gt;" d="M169 6 l-84 84 l237 209 l-238 209 l84 87 l319 -295 l-318 -294 Z" /><glyph glyph-name="question" unicode="?" d="M271 65 q0 -32 -22.5 -54 q-22.5 -22 -55.5 -22 q-33 0 -55.5 22 q-22.5 22 -22.5 54 q0 32 22.5 54 q22.5 22 55.5 22 q33 0 55.5 -22 q22.5 -22 22.5 -54 ZM404 513 q0 -42 -14.5 -71.5 q-14.5 -29.5 -35 -52 q-20.5 -22.5 -43.5 -42 q-23 -19.5 -40 -42 q-17 -22.5 -23.5 -50 q-6.5 -27.5 5.5 -67.5 l-124 0 q-16 47 -12 81.5 q4 34.5 19 60.5 q15 26 36.5 46.5 q21.5 20.5 42 39 q20.5 18.5 35 38.5 q14.5 20 14.5 45 q0 45 -52 72 q-52 27 -145 30 l16 116 q82 -2 142.5 -19.5 q60.5 -17.5 100.5 -45.5 q40 -28 59 -64 q19 -36 19 -75 Z" /><glyph glyph-name="at" unicode="@" d="M538 449 q-20 6 -44 6 q-26 0 -46 -16 q-20 -16 -33 -40 q-13 -24 -19.5 -52 q-6.5 -28 -6.5 -53 q0 -65 32 -65 q28 0 59 42 q31 42 49 134 l9 44 l0 0 ZM881 413 q0 -70 -18.5 -123 q-18.5 -53 -50.5 -88.5 q-32 -35.5 -76 -53.5 q-44 -18 -96 -18 q-56 0 -81.5 28 q-25.5 28 -23.5 68 l-3 0 q-8 -16 -21.5 -33 q-13.5 -17 -32 -31 q-18.5 -14 -40.5 -23 q-22 -9 -47 -9 q-48 0 -74.5 35.5 q-26.5 35.5 -26.5 107.5 q0 55 14 104 q14 49 43 85 q29 36 73 57 q44 21 104 21 q35 0 67.5 -6 q32.5 -6 54.5 -14 l-35 -198 q-9 -51 2 -71.5 q11 -20.5 42 -20.5 q23 0 43.5 10 q20.5 10 35.5 32 q15 22 23.5 55 q8.5 33 8.5 80 q0 43 -13.5 84 q-13.5 41 -43 73 q-29.5 32 -77 51 q-47.5 19 -116.5 19 q-67 0 -125 -24.5 q-58 -24.5 -101.5 -69.5 q-43.5 -45 -68.5 -108 q-25 -63 -25 -139 q0 -126 69 -198 q69 -72 215 -72 q88 0 175 29 l19 -100 q-50 -17 -106.5 -25.5 q-56.5 -8.5 -103.5 -8.5 q-94 0 -165.5 25.5 q-71.5 25.5 -120 73 q-48.5 47.5 -73.5 114 q-25 66.5 -25 149.5 q0 99 34.5 183 q34.5 84 94.5 144.5 q60 60.5 140.5 94.5 q80.5 34 173.5 34 q89 0 156 -25.5 q67 -25.5 112 -69.5 q45 -44 67.5 -102.5 q22.5 -58.5 22.5 -125.5 Z" /><glyph glyph-name="A" unicode="a" d="M333 442 q-8 25 -15 48 q-7 23 -12 45 l-1 0 q-6 -22 -12.5 -45 q-6.5 -23 -13.5 -48 l-69 -201 l192 0 l-69 201 ZM481 0 l-46 138 l-256 0 l-47 -138 l-131 0 l233 675 l153 0 l238 -675 l-144 0 Z" /><glyph glyph-name="B" unicode="b" d="M400 205 q0 50 -39.5 71.5 q-39.5 21.5 -103.5 21.5 q-8 0 -23 0 q-15 0 -34 -1 l0 -189 q12 -2 30.5 -3 q18.5 -1 41.5 -1 q64 0 96 27.5 q32 27.5 32 73.5 ZM382 491 q0 38 -24.5 60.5 q-24.5 22.5 -84.5 22.5 q-21 0 -38.5 -0.5 q-17.5 -0.5 -34.5 -1.5 l0 -176 q18 -1 27.5 -1 q9.5 0 25.5 0 q67 0 98 25.5 q31 25.5 31 70.5 ZM539 208 q0 -37 -13.5 -74.5 q-13.5 -37.5 -45.5 -67.5 q-32 -30 -84 -49 q-52 -19 -128 -19 q-30 0 -82 1 q-52 1 -116 1 l0 674 q43 2 102.5 3.5 q59.5 1.5 121.5 1.5 q109 0 167.5 -43 q58.5 -43 58.5 -124 q0 -51 -26.5 -91 q-26.5 -40 -75.5 -60 l0 -2 q30 -6 52.5 -21 q22.5 -15 38 -35.5 q15.5 -20.5 23 -45 q7.5 -24.5 7.5 -49.5 Z" /><glyph glyph-name="C" unicode="c" d="M526 23 q-38 -14 -83 -22.5 q-45 -8.5 -93 -8.5 q-89 0 -148.5 27 q-59.5 27 -96 72 q-36.5 45 -52 103.5 q-15.5 58.5 -15.5 121.5 q0 80 21 147 q21 67 63 115.5 q42 48.5 105.5 75.5 q63.5 27 148.5 27 q36 0 73.5 -5 q37.5 -5 70.5 -15 l-18 -119 q-63 23 -133 23 q-47 0 -82.5 -17 q-35.5 -17 -59 -47 q-23.5 -30 -35 -72 q-11.5 -42 -11.5 -91 q0 -110 47 -169 q47 -59 150 -59 q31 0 66.5 7.5 q35.5 7.5 61.5 20.5 l20 -115 l0 0 Z" /><glyph glyph-name="D" unicode="d" d="M490 339 q0 54 -11.5 97 q-11.5 43 -36.5 73 q-25 30 -65 45.5 q-40 15.5 -98 15.5 q-23 0 -43 -0.5 q-20 -0.5 -36 -2.5 l0 -455 q14 -2 32.5 -3.5 q18.5 -1.5 38.5 -1.5 q48 0 88 13.5 q40 13.5 69 42 q29 28.5 45.5 72.5 q16.5 44 16.5 104 ZM630 349 q0 -87 -27 -153 q-27 -66 -76.5 -110.5 q-49.5 -44.5 -118 -67 q-68.5 -22.5 -150.5 -22.5 q-53 0 -99 1.5 q-46 1.5 -89 3.5 l0 673 q40 2 97.5 3.5 q57.5 1.5 120.5 1.5 q78 0 141.5 -18 q63.5 -18 108 -58 q44.5 -40 68.5 -102.5 q24 -62.5 24 -151.5 Z" /><glyph glyph-name="E" unicode="e" d="M70 0 l0 675 l367 0 l0 -109 l-237 0 l0 -166 l225 0 l0 -106 l-225 0 l0 -183 l237 0 l0 -111 l-367 0 Z" /><glyph glyph-name="F" unicode="f" d="M200 565 l0 -174 l218 0 l0 -107 l-218 0 l0 -284 l-130 0 l0 675 l361 0 l0 -110 l-231 0 Z" /><glyph glyph-name="G" unicode="g" d="M608 32 q-51 -20 -110.5 -31 q-59.5 -11 -120.5 -11 q-80 0 -144.5 22.5 q-64.5 22.5 -109 64.5 q-44.5 42 -66 105 q-21.5 63 -21.5 135 q0 84 25 152 q25 68 73.5 116 q48.5 48 119 74 q70.5 26 157.5 26 q53 0 101.5 -8 q48.5 -8 89.5 -21 l-26 -118 q-79 31 -173 31 q-50 0 -92.5 -15 q-42.5 -15 -72 -45.5 q-29.5 -30.5 -45.5 -74 q-16 -43.5 -16 -100.5 q0 -108 56 -167.5 q56 -59.5 159 -59.5 q47 0 86 12 l0 235 l130 0 l0 -322 l0 0 Z" /><glyph glyph-name="H" unicode="h" d="M486 0 l0 293 l-286 0 l0 -293 l-130 0 l0 675 l130 0 l0 -270 l286 0 l0 270 l130 0 l0 -675 l-130 0 Z" /><glyph glyph-name="I" unicode="i" d="M70 0 l0 675 l130 0 l0 -675 l-130 0 Z" /><glyph glyph-name="J" unicode="j" d="M266 189 q0 -42 -9 -78 q-9 -36 -30.5 -62.5 q-21.5 -26.5 -56.5 -42 q-35 -15.5 -86 -15.5 q-27 0 -47 2.5 q-20 2.5 -37 5.5 l0 112 q12 -5 28 -7.5 q16 -2.5 34 -2.5 q35 0 54.5 19 q19.5 19 19.5 74 l0 481 l130 0 l0 -486 l0 0 Z" /><glyph glyph-name="K" unicode="k" d="M417 0 l-217 324 l0 -324 l-130 0 l0 675 l130 0 l0 -306 l218 306 l160 0 l-248 -326 l258 -349 l-171 0 Z" /><glyph glyph-name="L" unicode="l" d="M70 0 l0 675 l130 0 l0 -561 l219 0 l0 -114 l-349 0 Z" /><glyph glyph-name="M" unicode="m" d="M715 0 l-49 326 q-8 54 -12.5 94 q-4.5 40 -8.5 75 l-2 0 q-7 -32 -15 -67.5 q-8 -35.5 -23 -86.5 l-109 -341 l-126 0 l-104 317 q-14 44 -25 90 q-11 46 -19 88 l-2 0 q-3 -45 -8 -90 q-5 -45 -10 -90 l-39 -315 l-131 0 l104 675 l152 0 l114 -349 q9 -30 18.5 -66 q9.5 -36 18.5 -76 l2 0 q9 39 17.5 71.5 q8.5 32.5 19.5 68.5 l115 351 l152 0 l105 -675 l-135 0 Z" /><glyph glyph-name="N" unicode="n" d="M503 0 l-46 0 l-209 372 q-23 44 -35.5 72.5 q-12.5 28.5 -24.5 59.5 q1 -22 2.5 -52.5 q1.5 -30.5 2.5 -66 q1 -35.5 1.5 -87 q0.5 -51.5 0.5 -115.5 l0 -183 l-125 0 l0 675 l126 0 l46 0 l204 -363 q18 -32 33.5 -64.5 q15.5 -32.5 31.5 -70.5 q-2 25 -3.5 82 q-1.5 57 -2 92 q-0.5 35 -1 50.5 q-0.5 15.5 -0.5 63.5 l0 210 l125 0 l0 -675 l-126 0 Z" /><glyph glyph-name="O" unicode="o" d="M531 337 q0 113 -46 172.5 q-46 59.5 -134 59.5 q-35 0 -67.5 -14 q-32.5 -14 -57 -42 q-24.5 -28 -39.5 -70.5 q-15 -42.5 -15 -99.5 q0 -54 10.5 -97.5 q10.5 -43.5 32.5 -74 q22 -30.5 55.5 -47.5 q33.5 -17 78.5 -17 q33 0 65.5 13 q32.5 13 58.5 41 q26 28 42 71.5 q16 43.5 16 104.5 ZM670 347 q0 -84 -26 -150 q-26 -66 -70.5 -112.5 q-44.5 -46.5 -104.5 -71 q-60 -24.5 -129 -24.5 q-77 0 -135 23.5 q-58 23.5 -96 68 q-38 44.5 -57 107.5 q-19 63 -19 141 q0 84 26 150 q26 66 71 112 q45 46 105 70.5 q60 24.5 128 24.5 q67 0 123.5 -20.5 q56.5 -20.5 97.5 -62.5 q41 -42 63.5 -105.5 q22.5 -63.5 22.5 -150.5 Z" /><glyph glyph-name="P" unicode="p" d="M515 471 q0 -51 -17.5 -95 q-17.5 -44 -51.5 -76 q-34 -32 -84 -50.5 q-50 -18.5 -115 -18.5 q-7 0 -10.5 0 q-3.5 0 -14.5 0.5 q-11 0.5 -22 1.5 l0 -233 l-130 0 l0 675 q27 1 55.5 2 q28.5 1 63 1.5 q34.5 0.5 70.5 0.5 q125 0 190.5 -54 q65.5 -54 65.5 -154 ZM380 458 q0 55 -30.5 84.5 q-30.5 29.5 -99.5 29.5 q-10 0 -28.5 -0.5 q-18.5 -0.5 -21.5 -0.5 l0 -227 q11 -2 20 -3 q9 -1 16.5 -1.5 q7.5 -0.5 18.5 -0.5 q62 0 93.5 31.5 q31.5 31.5 31.5 87.5 Z" /><glyph glyph-name="Q" unicode="q" d="M531 337 q-3 113 -48.5 172.5 q-45.5 59.5 -131.5 59.5 q-35 0 -67.5 -14 q-32.5 -14 -57 -42 q-24.5 -28 -39.5 -70.5 q-15 -42.5 -15 -99.5 q0 -54 10.5 -97.5 q10.5 -43.5 32.5 -74 q22 -30.5 55.5 -47.5 q33.5 -17 78.5 -17 q33 0 67 12.5 q34 12.5 59 41 q25 28.5 40.5 72 q15.5 43.5 15.5 104.5 ZM702 -66 q-65 -9 -106.5 -2 q-41.5 7 -75 20 q-33.5 13 -67.5 25 q-34 12 -84 12 l-29 0 q-77 0 -135 23.5 q-58 23.5 -96 68 q-38 44.5 -57 107.5 q-19 63 -19 141 q0 83 27 149.5 q27 66.5 71 112.5 q44 46 104 70.5 q60 24.5 128 24.5 q67 0 124.5 -20.5 q57.5 -20.5 98 -62.5 q40.5 -42 62.5 -105.5 q22 -63.5 22 -150.5 q0 -66 -16 -119.5 q-16 -53.5 -44 -92.5 q-13 -20 -35.5 -39.5 q-22.5 -19.5 -43.5 -30.5 q21 0 39 -4.5 q18 -4.5 37 -9.5 q19 -5 41.5 -7.5 q22.5 -2.5 53.5 1.5 l0 -111 l0 0 Z" /><glyph glyph-name="R" unicode="r" d="M373 476 q0 97 -122 97 q-14 0 -27.5 -0.5 q-13.5 -0.5 -23.5 -2.5 l0 -195 q7 -1 19.5 -1.5 q12.5 -0.5 27.5 -0.5 q59 0 92.5 27.5 q33.5 27.5 33.5 75.5 ZM393 0 l-182 279 l-11 0 l0 -279 l-130 0 l0 675 q40 2 87.5 3 q47.5 1 106.5 1 q56 0 101 -10.5 q45 -10.5 77 -33 q32 -22.5 49.5 -58.5 q17.5 -36 17.5 -88 q0 -38 -12.5 -69.5 q-12.5 -31.5 -35 -56 q-22.5 -24.5 -53 -40.5 q-30.5 -16 -65.5 -22 q14 -19 28 -37.5 q14 -18.5 26 -36.5 l157 -227 l-161 0 Z" /><glyph glyph-name="S" unicode="s" d="M467 207 q0 -47 -19 -87 q-19 -40 -53 -69 q-34 -29 -82.5 -45.5 q-48.5 -16.5 -106.5 -16.5 q-89 0 -156 18 l14 125 q33 -14 69.5 -21.5 q36.5 -7.5 77.5 -7.5 q23 0 43.5 5 q20.5 5 36 15.5 q15.5 10.5 24.5 27 q9 16.5 9 40.5 q0 32 -21 51 q-21 19 -52.5 33 q-31.5 14 -68.5 27.5 q-37 13.5 -68.5 35 q-31.5 21.5 -52.5 55.5 q-21 34 -21 90 q0 45 17 82.5 q17 37.5 49.5 64 q32.5 26.5 80 41.5 q47.5 15 108.5 15 q28 0 60.5 -3.5 q32.5 -3.5 61.5 -9.5 l-12 -114 q-28 9 -57 14 q-29 5 -59 5 q-57 0 -84 -22.5 q-27 -22.5 -27 -58.5 q0 -30 21.5 -48.5 q21.5 -18.5 53.5 -33 q32 -14.5 69.5 -28.5 q37.5 -14 69.5 -36.5 q32 -22.5 53.5 -56.5 q21.5 -34 21.5 -87 Z" /><glyph glyph-name="T" unicode="t" d="M320 564 l0 -564 l-130 0 l0 564 l-175 0 l0 111 l480 0 l0 -111 l-175 0 Z" /><glyph glyph-name="U" unicode="u" d="M611 262 q0 -139 -73 -206 q-73 -67 -207 -67 q-80 0 -130.5 20 q-50.5 20 -79.5 54 q-29 34 -40 78.5 q-11 44.5 -11 92.5 l0 441 l130 0 l0 -433 q0 -32 6 -58.5 q6 -26.5 22 -46 q16 -19.5 43 -30 q27 -10.5 69 -10.5 q75 0 108.5 35.5 q33.5 35.5 33.5 121.5 l0 421 l129 0 l0 -413 l0 0 Z" /><glyph glyph-name="V" unicode="v" d="M388 0 l-150 0 l-235 675 l142 0 l131 -395 q10 -29 20.5 -63.5 q10.5 -34.5 18.5 -66.5 l2 0 q8 33 19 68.5 q11 35.5 22 69.5 l133 387 l134 0 l-237 -675 Z" /><glyph glyph-name="W" unicode="w" d="M755 0 l-160 0 l-98 372 q-9 32 -15 67.5 q-6 35.5 -11 71.5 l-1 0 q-7 -70 -25 -136 l-98 -375 l-151 0 l-172 675 l139 0 l92 -373 q8 -33 14 -67.5 q6 -34.5 11 -69.5 l1 0 q5 34 11 67.5 q6 33.5 15 65.5 l103 377 l138 0 l104 -375 q8 -28 15 -62 q7 -34 12 -69 l1 0 q5 35 11 67 q6 32 14 62 l92 377 l130 0 l-172 -675 Z" /><glyph glyph-name="X" unicode="x" d="M454 0 l-145 248 l-145 -248 l-154 0 l215 345 l-202 330 l151 0 l137 -234 l136 234 l148 0 l-199 -329 l222 -346 l-164 0 Z" /><glyph glyph-name="Y" unicode="y" d="M344 239 l0 -239 l-130 0 l0 238 l-211 437 l142 0 l89 -194 q14 -30 25 -58 q11 -28 21 -54 l2 0 q11 29 25 61 q14 32 29 64 l85 181 l138 0 l-215 -436 Z" /><glyph glyph-name="Z" unicode="z" d="M45 0 l0 100 l243 396 q11 17 21.5 32.5 q10.5 15.5 22.5 31.5 q-18 -1 -45 -1.5 q-27 -0.5 -78 -0.5 l-156 0 l0 117 l436 0 l0 -104 l-257 -406 q-8 -12 -15 -23.5 q-7 -11.5 -16 -23.5 q13 2 48 2 q35 0 98 0 l146 0 l0 -120 l-448 0 Z" /><glyph glyph-name="bracketleft" unicode="[" d="M71 -205 l0 982 l221 0 l0 -101 l-101 0 l0 -778 l101 0 l0 -103 l-221 0 Z" /><glyph glyph-name="backslash" unicode="\" d="M357 -161 l-350 918 l126 0 l350 -918 l-126 0 Z" /><glyph glyph-name="bracketright" unicode="]" d="M36 -205 l0 103 l100 0 l0 778 l-100 0 l0 101 l220 0 l0 -982 l-220 0 Z" /><glyph glyph-name="asciicircum" unicode="^" d="M397 337 l-132 247 l-125 -247 l-85 45 l164 293 l98 0 l171 -292 l-91 -46 Z" /><glyph glyph-name="underscore" unicode="_" d="M0 -246 l0 103 l550 0 l0 -103 l-550 0 Z" /><glyph glyph-name="grave" unicode="`" d="M248 560 l-181 108 l59 86 l170 -125 l-48 -69 Z" /><glyph glyph-name="a" unicode="a" d="M325 221 q-49 0 -81 -6 q-32 -6 -50.5 -16 q-18.5 -10 -25.5 -24 q-7 -14 -7 -29 q0 -25 16.5 -41.5 q16.5 -16.5 43.5 -16.5 q24 0 43 10.5 q19 10.5 32.5 27 q13.5 16.5 21 37.5 q7.5 21 7.5 43 l0 15 ZM335 0 q0 22 1 43 q1 21 4 41 l-1 1 q-18 -42 -60.5 -68.5 q-42.5 -26.5 -98.5 -26.5 q-68 0 -105 40.5 q-37 40.5 -37 101.5 q0 44 20.5 76.5 q20.5 32.5 58 54 q37.5 21.5 90.5 32 q53 10.5 118 10.5 l0 18 q0 49 -21.5 68 q-21.5 19 -67.5 19 q-34 0 -77 -10 q-43 -10 -73 -25 l-21 99 q38 14 88 24 q50 10 99 10 q59 0 97 -11.5 q38 -11.5 61 -33.5 q23 -22 33 -54.5 q10 -32.5 10 -75.5 l0 -205 q0 -30 1 -62.5 q1 -32.5 3 -65.5 l-122 0 Z" /><glyph glyph-name="b" unicode="b" d="M389 261 q0 140 -85 140 q-25 0 -45 -13.5 q-20 -13.5 -33.5 -35.5 q-13.5 -22 -21 -51 q-7.5 -29 -7.5 -60 l0 -140 q27 -9 67 -9 q27 0 50 9 q23 9 39.5 29.5 q16.5 20.5 26 52.5 q9.5 32 9.5 78 ZM523 274 q0 -63 -18 -115.5 q-18 -52.5 -52.5 -90 q-34.5 -37.5 -84.5 -58 q-50 -20.5 -114 -20.5 q-54 0 -98 6 q-44 6 -87 18 l0 716 l128 0 l0 -214 q0 -23 -2 -50 q-2 -27 -6 -47 l1 0 q19 41 58.5 64.5 q39.5 23.5 91.5 23.5 q90 0 136.5 -61 q46.5 -61 46.5 -172 Z" /><glyph glyph-name="c" unicode="c" d="M398 14 q-29 -11 -66 -17 q-37 -6 -74 -6 q-52 0 -93.5 14 q-41.5 14 -70.5 43 q-29 29 -44.5 75 q-15.5 46 -15.5 109 q0 58 15.5 108 q15.5 50 46.5 87 q31 37 78.5 58 q47.5 21 112.5 21 q29 0 57 -4.5 q28 -4.5 52 -12.5 l-20 -110 q-20 8 -44 13.5 q-24 5.5 -49 5.5 q-57 0 -86 -42 q-29 -42 -29 -111 q0 -32 6 -58.5 q6 -26.5 20 -45.5 q14 -19 36 -29.5 q22 -10.5 54 -10.5 q52 0 97 20 l17 -107 l0 0 Z" /><glyph glyph-name="d" unicode="d" d="M361 397 q-17 4 -33.5 6 q-16.5 2 -33.5 2 q-55 0 -90 -38.5 q-35 -38.5 -35 -130.5 q0 -141 85 -141 q25 0 45 13.5 q20 13.5 33.5 36 q13.5 22.5 21 52 q7.5 29.5 7.5 61.5 l0 139 ZM369 0 q0 18 1.5 40.5 q1.5 22.5 4.5 42.5 l-2 0 q-20 -42 -60 -68 q-40 -26 -97 -26 q-91 0 -136 63 q-45 63 -45 170 q0 63 18 115 q18 52 51.5 89.5 q33.5 37.5 82.5 58.5 q49 21 111 21 q16 0 31 -1 q15 -1 32 -3 l0 228 l127 0 l0 -730 l-119 0 Z" /><glyph glyph-name="e" unicode="e" d="M349 309 q1 50 -21.5 77 q-22.5 27 -63.5 27 q-40 0 -66.5 -28 q-26.5 -28 -32.5 -76 l184 0 ZM476 296 q0 -23 -1 -37.5 q-1 -14.5 -4 -34.5 l-307 0 q-1 -135 137 -134 q73 0 144 29 l14 -97 q-39 -15 -86.5 -23.5 q-47.5 -8.5 -93.5 -8.5 q-120 0 -182.5 63 q-62.5 63 -62.5 191 q0 55 16.5 103.5 q16.5 48.5 46.5 84 q30 35.5 73.5 55.5 q43.5 20 99.5 20 q54 0 93.5 -16.5 q39.5 -16.5 66 -47.5 q26.5 -31 36.5 -70 q10 -39 10 -77 Z" /><glyph glyph-name="f" unicode="f" d="M365 625 q-15 5 -31.5 7 q-16.5 2 -30.5 2 q-42 0 -61.5 -22.5 q-19.5 -22.5 -19.5 -72.5 l0 -42 l116 0 l0 -99 l-116 0 l0 -398 l-127 0 l0 398 l-87 0 l0 99 l87 0 l0 40 q0 102 49 151.5 q49 49.5 149 49.5 q20 0 40.5 -1.5 q20.5 -1.5 40.5 -6.5 l-9 -105 Z" /><glyph glyph-name="g" unicode="g" d="M393 -70 q0 27 -18 44.5 q-18 17.5 -60 19.5 l-86 3 l-23 0 q-22 -16 -34 -35.5 q-12 -19.5 -12 -40.5 q0 -35 29 -54.5 q29 -19.5 77 -19.5 q63 0 95 24 q32 24 32 59 ZM351 327 q0 40 -22.5 64 q-22.5 24 -67.5 24 q-44 0 -68 -24.5 q-24 -24.5 -24 -62.5 q0 -40 23.5 -63 q23.5 -23 68.5 -23 q42 0 66 22.5 q24 22.5 24 62.5 ZM520 -53 q0 -40 -19.5 -76 q-19.5 -36 -55 -63 q-35.5 -27 -86 -43 q-50.5 -16 -112.5 -16 q-100 0 -156.5 37.5 q-56.5 37.5 -56.5 110.5 q0 39 23 72 q23 33 54 50 q-23 11 -36 31 q-13 20 -13 46 q0 29 16.5 53 q16.5 24 42.5 35 q-35 19 -54.5 53 q-19.5 34 -19.5 83 q0 37 14 71.5 q14 34.5 41.5 60 q27.5 25.5 68.5 41 q41 15.5 95 15.5 q24 0 42.5 -3 q18.5 -3 38.5 -8 l169 0 l0 -100 l-68 0 q25 -23 25 -63 q0 -40 -13.5 -73 q-13.5 -33 -40 -56.5 q-26.5 -23.5 -66.5 -36.5 q-40 -13 -93 -13 q-20 0 -39 4 q-12 -5 -18 -14.5 q-6 -9.5 -6 -17.5 q0 -17 16.5 -23 q16.5 -6 60.5 -8 l77 -3 q81 -3 125 -38.5 q44 -35.5 44 -107.5 Z" /><glyph glyph-name="h" unicode="h" d="M374 0 l0 318 q0 44 -15 63 q-15 19 -46 19 q-24 0 -45 -12.5 q-21 -12.5 -37 -34.5 q-16 -22 -25 -51.5 q-9 -29.5 -9 -62.5 l0 -239 l-128 0 l0 730 l128 0 l0 -214 q0 -23 -2 -50.5 q-2 -27.5 -7 -50.5 l2 0 q23 44 65.5 68 q42.5 24 97.5 24 q42 0 70.5 -12.5 q28.5 -12.5 45.5 -34 q17 -21.5 24.5 -50 q7.5 -28.5 7.5 -61.5 l0 -349 l-127 0 Z" /><glyph glyph-name="i" unicode="i" d="M69 0 l0 497 l128 0 l0 -497 l-128 0 ZM213 648 q0 -32 -23.5 -54.5 q-23.5 -22.5 -56.5 -22.5 q-33 0 -56 22.5 q-23 22.5 -23 54.5 q0 32 23 55 q23 23 56 23 q33 0 56.5 -22.5 q23.5 -22.5 23.5 -55.5 Z" /><glyph glyph-name="j" unicode="j" d="M201 -37 q0 -50 -10 -89.5 q-10 -39.5 -32.5 -66.5 q-22.5 -27 -59.5 -41 q-37 -14 -91 -14 q-17 0 -36 2.5 q-19 2.5 -34 7.5 l8 109 q14 -5 29.5 -8.5 q15.5 -3.5 29.5 -3.5 q40 0 54.5 20 q14.5 20 14.5 71 l0 547 l127 0 l0 -534 l0 0 ZM217 648 q0 -32 -23.5 -54.5 q-23.5 -22.5 -56.5 -22.5 q-33 0 -56.5 22.5 q-23.5 22.5 -23.5 54.5 q0 32 23.5 55 q23.5 23 56.5 23 q33 0 56.5 -22.5 q23.5 -22.5 23.5 -55.5 Z" /><glyph glyph-name="k" unicode="k" d="M351 0 l-154 246 l0 -246 l-128 0 l0 730 l128 0 l0 -440 l145 207 l156 0 l-174 -227 l187 -270 l-160 0 Z" /><glyph glyph-name="l" unicode="l" d="M69 0 l0 730 l128 0 l0 -730 l-128 0 Z" /><glyph glyph-name="m" unicode="m" d="M669 0 l0 314 q0 40 -12 63 q-12 23 -47 23 q-21 0 -41.5 -11.5 q-20.5 -11.5 -36.5 -33 q-16 -21.5 -26 -51.5 q-10 -30 -10 -66 l0 -238 l-126 0 l0 315 q0 37 -11 61 q-11 24 -48 24 q-22 0 -42.5 -12 q-20.5 -12 -36.5 -34 q-16 -22 -25.5 -51.5 q-9.5 -29.5 -9.5 -64.5 l0 -238 l-128 0 l0 497 l121 0 q0 -17 -1.5 -42.5 q-1.5 -25.5 -5.5 -46.5 l2 -1 q23 46 65.5 73 q42.5 27 98.5 27 q33 0 57 -8.5 q24 -8.5 40 -23 q16 -14.5 25.5 -32 q9.5 -17.5 14.5 -35.5 q9 18 23.5 35.5 q14.5 17.5 34.5 32 q20 14.5 46 23 q26 8.5 58 8.5 q72 0 110.5 -40 q38.5 -40 38.5 -125 l0 -342 l-128 0 Z" /><glyph glyph-name="n" unicode="n" d="M374 0 l0 318 q0 38 -13 60 q-13 22 -48 22 q-24 0 -45.5 -13 q-21.5 -13 -37 -34.5 q-15.5 -21.5 -24.5 -50.5 q-9 -29 -9 -62 l0 -240 l-128 0 l0 497 l121 0 q0 -17 -1.5 -43 q-1.5 -26 -5.5 -46 l1 0 q23 44 65.5 71.5 q42.5 27.5 103.5 27.5 q42 0 70.5 -12.5 q28.5 -12.5 45.5 -34 q17 -21.5 24.5 -50 q7.5 -28.5 7.5 -61.5 l0 -349 l-127 0 Z" /><glyph glyph-name="o" unicode="o" d="M387 251 q0 72 -26 110 q-26 38 -83 38 q-21 0 -41.5 -8.5 q-20.5 -8.5 -36.5 -26.5 q-16 -18 -25.5 -45.5 q-9.5 -27.5 -9.5 -65.5 q0 -154 111 -154 q48 0 79.5 38 q31.5 38 31.5 114 ZM519 258 q0 -59 -18.5 -108 q-18.5 -49 -52.5 -84.5 q-34 -35.5 -80.5 -55.5 q-46.5 -20 -102.5 -20 q-53 0 -96 14 q-43 14 -73 44.5 q-30 30.5 -46.5 78 q-16.5 47.5 -16.5 113.5 q0 58 18.5 107 q18.5 49 52 84.5 q33.5 35.5 80 55.5 q46.5 20 103.5 20 q106 0 169 -60.5 q63 -60.5 63 -188.5 Z" /><glyph glyph-name="p" unicode="p" d="M389 261 q0 141 -85 141 q-25 0 -45 -13.5 q-20 -13.5 -33.5 -36 q-13.5 -22.5 -21 -52 q-7.5 -29.5 -7.5 -61.5 l0 -138 q30 -9 67 -9 q27 0 50 9 q23 9 39.5 29.5 q16.5 20.5 26 52.5 q9.5 32 9.5 78 ZM523 275 q0 -65 -17 -117 q-17 -52 -50 -89 q-33 -37 -82 -56.5 q-49 -19.5 -113 -19.5 q-18 0 -33 1 q-15 1 -31 3 l0 -238 l-128 0 l0 738 l119 0 q0 -18 -1 -40.5 q-1 -22.5 -4 -42.5 l2 0 q21 44 60 68.5 q39 24.5 96 24.5 q89 0 135.5 -60.5 q46.5 -60.5 46.5 -171.5 Z" /><glyph glyph-name="q" unicode="q" d="M362 398 q-16 3 -32 5 q-16 2 -35 2 q-55 0 -90 -38.5 q-35 -38.5 -35 -130.5 q0 -141 84 -141 q25 0 45 13.5 q20 13.5 34 36.5 q14 23 21.5 52.5 q7.5 29.5 7.5 62.5 l0 138 ZM362 -241 l0 225 q0 20 1 46 q1 26 6 50 l-2 1 q-20 -43 -58.5 -67.5 q-38.5 -24.5 -88.5 -24.5 q-90 0 -137 59 q-47 59 -47 174 q0 63 17.5 115 q17.5 52 52 89.5 q34.5 37.5 85 58.5 q50.5 21 116.5 21 q53 0 97 -4 q44 -4 85 -11 l0 -732 l-127 0 Z" /><glyph glyph-name="r" unicode="r" d="M335 382 q-138 27 -138 -179 l0 -203 l-128 0 l0 497 l121 0 q0 -19 -2 -46.5 q-2 -27.5 -7 -53.5 l2 0 q9 24 22.5 45 q13.5 21 33 36.5 q19.5 15.5 45 23.5 q25.5 8 57.5 5 l-6 -125 Z" /><glyph glyph-name="s" unicode="s" d="M378 155 q0 -37 -15.5 -67.5 q-15.5 -30.5 -44.5 -52 q-29 -21.5 -69.5 -33.5 q-40.5 -12 -89.5 -12 q-29 0 -58 3 q-29 3 -53 10 l9 107 q23 -10 50.5 -15 q27.5 -5 55.5 -5 q36 0 58 14.5 q22 14.5 22 38.5 q0 22 -15 34.5 q-15 12.5 -37.5 21 q-22.5 8.5 -48.5 17.5 q-26 9 -48.5 24.5 q-22.5 15.5 -37.5 41 q-15 25.5 -15 67.5 q0 33 12.5 62 q12.5 29 38.5 50.5 q26 21.5 65.5 34 q39.5 12.5 93.5 12.5 q22 0 46 -2.5 q24 -2.5 45 -7.5 l-6 -100 q-20 6 -43.5 9.5 q-23.5 3.5 -46.5 3.5 q-38 0 -55.5 -14 q-17.5 -14 -17.5 -37 q0 -21 15 -33 q15 -12 38 -21 q23 -9 49.5 -18.5 q26.5 -9.5 49.5 -25.5 q23 -16 38 -41 q15 -25 15 -66 Z" /><glyph glyph-name="t" unicode="t" d="M344 4 q-24 -6 -53 -10 q-29 -4 -55 -4 q-41 0 -69 8 q-28 8 -44.5 26.5 q-16.5 18.5 -23.5 48 q-7 29.5 -7 73.5 l0 252 l-86 0 l0 99 l86 0 l0 153 l127 34 l0 -187 l121 0 l0 -99 l-121 0 l0 -218 q0 -48 13 -65 q13 -17 46 -17 q33 0 57 7 l9 -101 l0 0 Z" /><glyph glyph-name="u" unicode="u" d="M381 0 q0 17 1 43 q1 26 5 46 l-1 0 q-23 -44 -65 -71.5 q-42 -27.5 -104 -27.5 q-42 0 -70.5 12.5 q-28.5 12.5 -45.5 34 q-17 21.5 -24.5 50 q-7.5 28.5 -7.5 61.5 l0 349 l127 0 l0 -318 q0 -38 13 -60 q13 -22 49 -22 q24 0 45.5 13 q21.5 13 36.5 34.5 q15 21.5 24 50.5 q9 29 9 62 l0 240 l128 0 l0 -497 l-120 0 Z" /><glyph glyph-name="v" unicode="v" d="M328 0 l-152 0 l-171 497 l138 0 l80 -240 q11 -35 18.5 -64.5 q7.5 -29.5 13.5 -59.5 l2 0 q6 30 13 59.5 q7 29.5 17 63.5 l78 241 l135 0 l-172 -497 Z" /><glyph glyph-name="w" unicode="w" d="M630 0 l-139 0 l-72 221 q-8 26 -14.5 52.5 q-6.5 26.5 -13.5 58.5 l-1 0 q-8 -35 -16 -64.5 q-8 -29.5 -18 -60.5 l-63 -207 l-132 0 l-152 497 l140 0 l53 -188 q10 -37 20 -74.5 q10 -37.5 19 -75.5 l1 0 q8 42 16.5 76.5 q8.5 34.5 19.5 67.5 l60 194 l123 0 l61 -188 q14 -43 23 -78 q9 -35 17 -72 l2 0 q8 38 16 72.5 q8 34.5 19 71.5 l56 194 l131 0 l-156 -497 Z" /><glyph glyph-name="x" unicode="x" d="M356 0 l-96 167 l-96 -167 l-143 0 l-10 0 l171 251 l-161 246 l10 0 l143 0 l96 -164 l97 164 l131 0 l10 0 l-155 -245 l164 -252 l-10 0 l-151 0 Z" /><glyph glyph-name="y" unicode="y" d="M302 -28 q-24 -65 -50 -107.5 q-26 -42.5 -56 -67.5 q-30 -25 -65.5 -35.5 q-35.5 -10.5 -78.5 -10.5 q-16 0 -36 2 q-20 2 -34 5 l15 110 q14 -5 30.5 -7.5 q16.5 -2.5 32.5 -2.5 q16 0 31.5 4.5 q15.5 4.5 30.5 15.5 q15 11 28 30 q13 19 24 48 l15 44 l-184 497 l143 0 l67 -190 q11 -32 21 -67.5 q10 -35.5 18 -69.5 l1 0 q4 17 10 37.5 q6 20.5 12.5 41.5 q6.5 21 13 41.5 q6.5 20.5 12.5 37.5 l59 169 l137 0 l-197 -525 Z" /><glyph glyph-name="z" unicode="z" d="M45 0 l0 91 l200 293 q-14 -1 -42 -1.5 q-28 -0.5 -64 -0.5 l-88 0 l0 115 l348 0 l0 -91 l-196 -290 q43 1 54.5 1 q11.5 0 58.5 0 l87 0 l0 -117 l-358 0 Z" /><glyph glyph-name="braceleft" unicode="{" d="M309 -205 q-98 0 -140 53 q-42 53 -42 170 l0 135 q0 62 -25 85.5 q-25 23.5 -75 26.5 l0 96 q25 1 44 6.5 q19 5.5 31.5 17.5 q12.5 12 18.5 32 q6 20 6 52 l0 87 q0 109 41.5 165 q41.5 56 140.5 56 l21 0 l0 -101 q-24 0 -40.5 -5 q-16.5 -5 -26 -18 q-9.5 -13 -13.5 -36 q-4 -23 -4 -59 l0 -86 q0 -80 -25 -115 q-25 -35 -67 -43 l0 -1 q42 -7 67 -44.5 q25 -37.5 25 -117.5 l0 -134 q0 -36 4 -59.5 q4 -23.5 13.5 -36.5 q9.5 -13 26 -18 q16.5 -5 40.5 -5 l0 -103 l-21 0 Z" /><glyph glyph-name="bar" unicode="|" d="M91 -241 l0 1000 l102 0 l0 -1000 l-102 0 Z" /><glyph glyph-name="braceright" unicode="}" d="M338 265 q-50 -3 -75 -26.5 q-25 -23.5 -25 -85.5 l0 -135 q0 -117 -42 -170 q-42 -53 -139 -53 l-22 0 l0 103 q24 0 40.5 5 q16.5 5 26.5 18 q10 13 14 36.5 q4 23.5 4 59.5 l0 134 q0 80 25 117.5 q25 37.5 67 44.5 l0 1 q-43 6 -67.5 41.5 q-24.5 35.5 -24.5 113.5 l0 89 q0 36 -4 59 q-4 23 -14 36 q-10 13 -26.5 18 q-16.5 5 -40.5 5 l0 101 l22 0 q99 0 140 -56 q41 -56 41 -165 l0 -84 q0 -33 6 -53.5 q6 -20.5 18.5 -33 q12.5 -12.5 31 -18 q18.5 -5.5 44.5 -6.5 l0 -96 l0 0 Z" /><glyph glyph-name="asciitilde" unicode="~" d="M508 566 q0 -72 -40 -116 q-40 -44 -110 -44 q-43 0 -67.5 16 q-24.5 16 -41 35.5 q-16.5 19.5 -30.5 36 q-14 16.5 -35 16.5 q-25 0 -35.5 -20.5 q-10.5 -20.5 -11.5 -59.5 l-95 0 l0 18 q0 72 40.5 116 q40.5 44 110.5 44 q43 0 67.5 -16.5 q24.5 -16.5 41 -36 q16.5 -19.5 30.5 -36 q14 -16.5 35 -16.5 q24 0 35 20.5 q11 20.5 12 60.5 l94 0 l0 -18 l0 0 Z" /><glyph glyph-name="Euro" unicode="&#x20ac;" d="M565 40 q-36 -23 -83.5 -37 q-47.5 -14 -105.5 -14 q-251 0 -286 231 l-78 0 l0 77 l72 0 l0 19 q0 17 0.5 30 q0.5 13 1.5 27 l-74 0 l0 77 l83 0 q25 119 103 177.5 q78 58.5 193 58.5 q48 0 92 -10.5 q44 -10.5 73 -25.5 l-30 -103 q-25 14 -61 23.5 q-36 9.5 -75 9.5 q-60 0 -99.5 -32 q-39.5 -32 -53.5 -98 l194 0 l0 -77 l-206 0 q-1 -20 -1 -26.5 q0 -6.5 0 -12.5 q0 -10 0 -17 q0 -7 1 -20 l206 0 l0 -77 l-196 0 q11 -60 49 -92.5 q38 -32.5 110 -32.5 q31 0 68.5 11 q37.5 11 68.5 31 l34 -97 l0 0 Z" /><glyph glyph-name="florin" unicode="&#x192;" d="M231 105 q-8 -75 -24.5 -126.5 q-16.5 -51.5 -43.5 -83.5 q-27 -32 -65.5 -46 q-38.5 -14 -90.5 -14 q-18 0 -37.5 2 q-19.5 2 -36.5 7 l19 111 q13 -5 30 -9 q17 -4 34 -4 q20 0 34.5 6.5 q14.5 6.5 24 22 q9.5 15.5 16 41.5 q6.5 26 10.5 65 l24 247 l-111 0 l0 98 l120 0 l11 99 q11 110 61.5 164.5 q50.5 54.5 150.5 54.5 q15 0 35 -1.5 q20 -1.5 37 -5.5 l-14 -105 q-14 4 -31 6 q-17 2 -31 2 q-35 0 -55 -23 q-20 -23 -26 -83 l-10 -108 l144 0 l0 -98 l-153 0 l-22 -219 Z" /><glyph glyph-name="cent" unicode="¢" d="M409 55 q-19 -8 -42 -13.5 q-23 -5.5 -48 -7.5 l0 -102 l-96 0 l0 102 q-46 6 -80 25 q-34 19 -57 49.5 q-23 30.5 -34.5 71 q-11.5 40.5 -11.5 89.5 q0 47 12 88 q12 41 36 73.5 q24 32.5 57.5 54 q33.5 21.5 77.5 29.5 l0 93 l96 0 l0 -86 q21 -2 43.5 -6 q22.5 -4 45.5 -11 l-12 -108 q-42 21 -96 21 q-59 0 -93.5 -36.5 q-34.5 -36.5 -34.5 -104.5 q0 -29 7 -54 q7 -25 22 -42.5 q15 -17.5 39 -28 q24 -10.5 58 -10.5 q29 0 54 6.5 q25 6.5 48 18.5 l9 -111 l0 0 Z" /><glyph glyph-name="sterling" unicode="£" d="M42 0 l0 89 q47 33 67.5 67.5 q20.5 34.5 20.5 83.5 q0 10 -0.5 24 q-0.5 14 -3.5 37 l-97 0 l0 98 l86 0 q-4 23 -7.5 50.5 q-3.5 27.5 -3.5 50.5 q0 93 53.5 140 q53.5 47 150.5 47 q27 0 57.5 -3.5 q30.5 -3.5 53.5 -11.5 l-22 -105 q-18 7 -39.5 11 q-21.5 4 -42.5 4 q-38 0 -60 -20 q-22 -20 -22 -62 q0 -17 3 -44 q3 -27 7 -57 l135 0 l0 -98 l-123 0 q2 -15 2 -24 q0 -9 0 -25 q0 -46 -16 -81 q-16 -35 -51 -66 q9 2 22.5 3 q13.5 1 28 1.5 q14.5 0.5 29.5 1 q15 0.5 27 0.5 l154 0 l0 -111 l-409 0 Z" /><glyph glyph-name="currency" unicode="¤" d="M361 334 q0 47 -20 73 q-20 26 -67 26 q-34 0 -59.5 -25.5 q-25.5 -25.5 -25.5 -76.5 q0 -45 20 -74.5 q20 -29.5 66 -29.5 q33 0 59.5 25.5 q26.5 25.5 26.5 81.5 ZM417 47 l-77 103 q-35 -16 -74 -16 q-16 0 -29.5 2.5 q-13.5 2.5 -25.5 6.5 l-69 -95 l-99 70 l68 85 q-16 23 -25 53 q-9 30 -9 70 q0 73 39 123 l-72 92 l97 69 l71 -97 q32 13 72 13 q16 0 32.5 -2.5 q16.5 -2.5 31.5 -8.5 l70 96 l97 -71 l-71 -89 q14 -20 21.5 -48.5 q7.5 -28.5 7.5 -66.5 q0 -35 -10 -65.5 q-10 -30.5 -27 -53.5 l79 -99 l-98 -71 Z" /><glyph glyph-name="yen" unicode="¥" d="M395 309 l124 0 l0 -81 l-155 0 l0 -58 l155 0 l0 -83 l-155 0 l0 -87 l-129 0 l0 87 l-155 0 l0 83 l155 0 l0 58 l-155 0 l0 81 l125 0 l-183 366 l142 0 l89 -184 q15 -31 26.5 -59 q11.5 -28 20.5 -54 l2 0 q11 31 24.5 62.5 q13.5 31.5 30.5 63.5 l87 171 l137 0 l-186 -366 Z" /><glyph glyph-name="perthousand" unicode="&#x2030;" d="M329 536 q0 -39 -12 -69.5 q-12 -30.5 -32.5 -51.5 q-20.5 -21 -47.5 -32 q-27 -11 -57 -11 q-64 0 -102 38.5 q-38 38.5 -38 113.5 q0 38 12 68 q12 30 32.5 51 q20.5 21 47.5 32 q27 11 57 11 q30 0 55.5 -8.5 q25.5 -8.5 44 -26.5 q18.5 -18 29.5 -46.5 q11 -28.5 11 -68.5 ZM237 530 q0 42 -12.5 59 q-12.5 17 -38.5 17 q-23 0 -38 -20 q-15 -20 -15 -57 q0 -42 13.5 -59.5 q13.5 -17.5 37.5 -17.5 q23 0 38 20 q15 20 15 58 ZM136 -20 l-76 59 l519 655 l76 -59 l-519 -655 ZM677 153 q0 -39 -12 -69.5 q-12 -30.5 -32.5 -51.5 q-20.5 -21 -47.5 -32 q-27 -11 -57 -11 q-64 0 -102 38.5 q-38 38.5 -38 113.5 q0 38 12 68 q12 30 32.5 51 q20.5 21 47 32 q26.5 11 56.5 11 q30 0 56 -8.5 q26 -8.5 44.5 -26.5 q18.5 -18 29.5 -46.5 q11 -28.5 11 -68.5 ZM584 147 q0 42 -12.5 59 q-12.5 17 -37.5 17 q-23 0 -38 -20 q-15 -20 -15 -57 q0 -43 13.5 -60 q13.5 -17 37.5 -17 q23 0 37.5 20 q14.5 20 14.5 58 ZM1005 153 q0 -39 -12 -69.5 q-12 -30.5 -32.5 -51.5 q-20.5 -21 -47.5 -32 q-27 -11 -57 -11 q-64 0 -102 38.5 q-38 38.5 -38 113.5 q0 38 12 68 q12 30 32.5 51 q20.5 21 47 32 q26.5 11 56.5 11 q30 0 55.5 -8.5 q25.5 -8.5 44.5 -26.5 q19 -18 30 -46.5 q11 -28.5 11 -68.5 ZM912 147 q0 42 -12.5 59 q-12.5 17 -37.5 17 q-23 0 -38 -20 q-15 -20 -15 -57 q0 -43 13.5 -60 q13.5 -17 37.5 -17 q23 0 37.5 20 q14.5 20 14.5 58 Z" /><glyph glyph-name="onequarter" unicode="¼" d="M143 -34 l-92 66 l492 669 l92 -66 l-492 -669 ZM109 351 l0 232 l-59 -23 l-17 82 l94 33 l91 0 l0 -324 l-109 0 ZM642 54 l0 -54 l-101 0 l0 54 l-163 0 l-5 66 l117 204 l152 0 l0 -192 l46 0 l0 -78 l-46 0 ZM542 257 l-1 0 l-75 -127 q8 0 18 0.5 q10 0.5 20 1 q10 0.5 20 0.5 q10 0 18 0 l0 125 Z" /><glyph glyph-name="onehalf" unicode="½" d="M143 -34 l-92 66 l492 669 l92 -66 l-492 -669 ZM437 0 l0 73 l54 49 q34 28 52 53 q18 25 18 44 q0 19 -11.5 29 q-11.5 10 -35.5 10 q-16 0 -32.5 -5 q-16.5 -5 -30.5 -12 l-12 70 q22 8 50.5 14.5 q28.5 6.5 59.5 6.5 q33 0 56.5 -7.5 q23.5 -7.5 38 -20.5 q14.5 -13 21.5 -31 q7 -18 7 -38 q0 -31 -18.5 -59.5 q-18.5 -28.5 -53.5 -60.5 l-36 -33 q22 2 52 2.5 q30 0.5 65 0.5 l0 -85 l-244 0 ZM109 351 l0 232 l-59 -23 l-17 82 l94 33 l91 0 l0 -324 l-109 0 Z" /><glyph glyph-name="threequarters" unicode="¾" d="M158 -34 l-92 66 l492 669 l92 -66 l-492 -669 ZM276 452 q0 -24 -9.5 -44.5 q-9.5 -20.5 -28.5 -34.5 q-19 -14 -48.5 -22 q-29.5 -8 -69.5 -8 q-19 0 -41.5 2.5 q-22.5 2.5 -39.5 5.5 l10 70 q15 -4 29.5 -6.5 q14.5 -2.5 31.5 -2.5 q27 0 42 10.5 q15 10.5 15 28.5 q0 9 -5.5 16.5 q-5.5 7.5 -18 13 q-12.5 5.5 -33.5 6 q-21 0.5 -54 -3.5 l0 61 q58 0 83 11 q25 11 25 33 q0 14 -11 21 q-11 7 -32 7 q-15 0 -33.5 -4 q-18.5 -4 -34.5 -11 l-11 67 q24 8 52 12.5 q28 4.5 57 4.5 q33 0 55.5 -6.5 q22.5 -6.5 37 -18 q14.5 -11.5 21 -26.5 q6.5 -15 6.5 -33 q0 -28 -15.5 -46.5 q-15.5 -18.5 -40.5 -29.5 q26 -6 43.5 -26.5 q17.5 -20.5 17.5 -46.5 ZM655 54 l0 -54 l-101 0 l0 54 l-163 0 l-5 66 l117 204 l152 0 l0 -192 l46 0 l0 -78 l-46 0 ZM555 257 l-1 0 l-75 -127 q8 0 18 0.5 q10 0.5 20 1 q10 0.5 20 0.5 q10 0 18 0 l0 125 Z" /><glyph glyph-name="onesuperior" unicode="¹" d="M104 370 l0 298 l-74 -29 l-19 94 l111 42 l104 0 l0 -405 l-122 0 Z" /><glyph glyph-name="twosuperior" unicode="²" d="M35 370 l0 86 l73 70 q41 38 57.5 65.5 q16.5 27.5 16.5 48.5 q0 24 -12 37 q-12 13 -37 13 q-21 0 -41.5 -5.5 q-20.5 -5.5 -37.5 -15.5 l-15 90 q25 10 58 17 q33 7 67 7 q39 0 66.5 -9 q27.5 -9 45 -25 q17.5 -16 25.5 -38 q8 -22 8 -47 q0 -38 -18 -76.5 q-18 -38.5 -63 -79.5 l-46 -44 q30 2 64 2 q34 0 76 0 l0 -96 l-287 0 Z" /><glyph glyph-name="threesuperior" unicode="³" d="M306 498 q0 -30 -12.5 -55 q-12.5 -25 -36 -43 q-23.5 -18 -58 -28 q-34.5 -10 -79.5 -10 q-22 0 -46.5 3 q-24.5 3 -45.5 8 l13 80 q16 -5 34 -8 q18 -3 37 -3 q39 0 56 14 q17 14 17 35 q0 11 -7 21 q-7 10 -22 16.5 q-15 6.5 -39 9 q-24 2.5 -59 -1.5 l0 76 q32 0 54.5 4 q22.5 4 35.5 11 q13 7 19 17 q6 10 6 22 q0 17 -13 27.5 q-13 10.5 -37 10.5 q-19 0 -38.5 -4.5 q-19.5 -4.5 -39.5 -12.5 l-11 76 q26 9 57 14.5 q31 5.5 60 5.5 q37 0 63.5 -7.5 q26.5 -7.5 44 -20.5 q17.5 -13 25 -32 q7.5 -19 7.5 -41 q0 -34 -15.5 -56 q-15.5 -22 -46.5 -35 q37 -10 57 -35.5 q20 -25.5 20 -57.5 Z" /><glyph glyph-name="quotesinglbase" unicode="&#x201a;" d="M136 149 q35 0 58 -27.5 q23 -27.5 23 -72.5 q0 -45 -29.5 -103 q-29.5 -58 -99.5 -119 l-52 47 q51 55 57.5 90 q6.5 35 -17.5 63 q-14 17 -16 38 q-2 21 6 40 q8 19 26 31.5 q18 12.5 44 12.5 Z" /><glyph glyph-name="quotedblbase" unicode="&#x201e;" d="M136 149 q35 0 58 -27.5 q23 -27.5 23 -72.5 q0 -45 -29.5 -103 q-29.5 -58 -99.5 -119 l-52 47 q51 55 57.5 90 q6.5 35 -17.5 63 q-14 17 -16 38 q-2 21 6 40 q8 19 26 31.5 q18 12.5 44 12.5 ZM354 149 q36 0 59 -27.5 q23 -27.5 23 -72.5 q0 -45 -29.5 -103 q-29.5 -58 -99.5 -119 l-53 47 q51 55 57.5 90 q6.5 35 -16.5 63 q-14 17 -16 38 q-2 21 6 40 q8 19 25.5 31.5 q17.5 12.5 43.5 12.5 Z" /><glyph glyph-name="ellipsis" unicode="&#x2026;" d="M204 67 q0 -32 -23.5 -55 q-23.5 -23 -55.5 -23 q-32 0 -55 23 q-23 23 -23 55 q0 32 23 55 q23 23 55 23 q32 0 55.5 -23 q23.5 -23 23.5 -55 ZM437 67 q0 -32 -23 -55 q-23 -23 -55 -23 q-32 0 -55 23 q-23 23 -23 55 q0 32 23 55 q23 23 55 23 q32 0 55 -23 q23 -23 23 -55 ZM670 67 q0 -32 -23 -55 q-23 -23 -55 -23 q-32 0 -55 23 q-23 23 -23 55 q0 32 23 55 q23 23 55 23 q32 0 55 -23 q23 -23 23 -55 Z" /><glyph glyph-name="quoteleft" unicode="&#x2018;" d="M230 709 q-51 -55 -57.5 -90.5 q-6.5 -35.5 16.5 -63.5 q14 -17 16.5 -37.5 q2.5 -20.5 -5.5 -39.5 q-8 -19 -26 -31.5 q-18 -12.5 -44 -12.5 q-35 0 -58.5 27.5 q-23.5 27.5 -23 72.5 q0.5 45 30 103 q29.5 58 99.5 119 l52 -47 l0 0 Z" /><glyph glyph-name="quoteright" unicode="&#x2019;" d="M136 747 q35 0 58 -27.5 q23 -27.5 23 -72.5 q0 -45 -29.5 -103 q-29.5 -58 -99.5 -119 l-52 47 q51 55 57.5 90.5 q6.5 35.5 -17.5 63.5 q-14 16 -16 37 q-2 21 6 40 q8 19 26 31.5 q18 12.5 44 12.5 Z" /><glyph glyph-name="quotedblleft" unicode="&#x201c;" d="M230 709 q-51 -55 -57.5 -90.5 q-6.5 -35.5 16.5 -63.5 q14 -17 16.5 -37.5 q2.5 -20.5 -5.5 -39.5 q-8 -19 -26 -31.5 q-18 -12.5 -44 -12.5 q-35 0 -58.5 27.5 q-23.5 27.5 -23 72.5 q0.5 45 30 103 q29.5 58 99.5 119 l52 -47 l0 0 ZM449 709 q-51 -55 -57.5 -90.5 q-6.5 -35.5 16.5 -63.5 q14 -17 16 -37.5 q2 -20.5 -6 -39.5 q-8 -19 -25.5 -31.5 q-17.5 -12.5 -43.5 -12.5 q-36 0 -59 27.5 q-23 27.5 -23 72.5 q0 45 29.5 103 q29.5 58 99.5 119 l53 -47 l0 0 Z" /><glyph glyph-name="quotedblright" unicode="&#x201d;" d="M136 747 q35 0 58 -27.5 q23 -27.5 23 -72.5 q0 -45 -29.5 -103 q-29.5 -58 -99.5 -119 l-52 47 q51 55 57.5 90.5 q6.5 35.5 -17.5 63.5 q-14 16 -16 37 q-2 21 6 40 q8 19 26 31.5 q18 12.5 44 12.5 ZM354 747 q36 0 59 -27.5 q23 -27.5 23 -72.5 q0 -45 -29.5 -103 q-29.5 -58 -99.5 -119 l-53 47 q51 55 57.5 90.5 q6.5 35.5 -16.5 63.5 q-14 16 -16 37 q-2 21 6 40 q8 19 25.5 31.5 q17.5 12.5 43.5 12.5 Z" /><glyph glyph-name="guilsinglleft" unicode="&#x2039;" d="M154 100 l-113 192 l115 195 l97 -47 l-89 -147 l91 -145 l-101 -48 Z" /><glyph glyph-name="guilsinglright" unicode="&#x203a;" d="M156 100 l-97 47 l90 147 l-91 145 l101 48 l113 -192 l-116 -195 Z" /><glyph glyph-name="guillemotleft" unicode="«" d="M149 98 l-107 194 l110 197 l98 -45 l-85 -151 l87 -149 l-103 -46 ZM377 103 l-118 189 l120 192 l96 -46 l-92 -145 l94 -143 l-100 -47 Z" /><glyph glyph-name="guillemotright" unicode="»" d="M154 103 l-96 46 l93 145 l-94 143 l100 47 l118 -189 l-121 -192 ZM382 98 l-99 45 l86 151 l-87 149 l103 46 l107 -194 l-110 -197 Z" /><glyph glyph-name="exclamdown" unicode="¡" d="M227 -211 l-150 0 l19 520 l110 0 l21 -520 ZM232 432 q0 -32 -22.5 -54 q-22.5 -22 -56.5 -22 q-33 0 -55.5 22 q-22.5 22 -22.5 54 q0 32 22.5 54 q22.5 22 55.5 22 q34 0 56.5 -22 q22.5 -22 22.5 -54 Z" /><glyph glyph-name="questiondown" unicode="¿" d="M368 -220 q-83 2 -143 19.5 q-60 17.5 -100 45.5 q-40 28 -59 64 q-19 36 -19 75 q0 42 14.5 71.5 q14.5 29.5 35 52 q20.5 22.5 43.5 42 q23 19.5 39.5 42 q16.5 22.5 23 50 q6.5 27.5 -5.5 67.5 l125 0 q16 -47 12 -81.5 q-4 -34.5 -19 -60.5 q-15 -26 -36.5 -46.5 q-21.5 -20.5 -42 -39 q-20.5 -18.5 -35 -38.5 q-14.5 -20 -14.5 -45 q0 -45 52 -72 q52 -27 145 -30 l-16 -116 ZM336 432 q0 -32 -22.5 -54 q-22.5 -22 -55.5 -22 q-33 0 -55.5 22 q-22.5 22 -22.5 54 q0 32 22.5 54 q22.5 22 55.5 22 q33 0 55.5 -22 q22.5 -22 22.5 -54 Z" /><glyph glyph-name="periodcentered" unicode="·&#x2219;" d="M218 298 q0 -35 -24.5 -59 q-24.5 -24 -58.5 -24 q-35 0 -59 24 q-24 24 -24 59 q0 34 24 58 q24 24 59 24 q34 0 58.5 -24 q24.5 -24 24.5 -58 Z" /><glyph glyph-name="bullet" unicode="&#x2022;" d="M360 297 q0 -30 -12 -57 q-12 -27 -32 -47.5 q-20 -20.5 -47 -32 q-27 -11.5 -58 -11.5 q-31 0 -58 11.5 q-27 11.5 -47 32 q-20 20.5 -31.5 47.5 q-11.5 27 -11.5 57 q0 30 11.5 57 q11.5 27 31.5 47.5 q20 20.5 47 32 q27 11.5 58 11.5 q31 0 58 -11.5 q27 -11.5 47 -32 q20 -20.5 32 -47.5 q12 -27 12 -57 Z" /><glyph glyph-name="endash" unicode="&#x2013;" d="M0 242 l0 111 l550 0 l0 -111 l-550 0 Z" /><glyph glyph-name="emdash" unicode="&#x2014;" d="M111 242 l0 111 l778 0 l0 -111 l-778 0 Z" /><glyph glyph-name="copyright" unicode="©" d="M480 177 q-43 -20 -102 -20 q-77 0 -119 47 q-42 47 -42 126 q0 36 10 69 q10 33 31.5 58 q21.5 25 55 40 q33.5 15 79.5 15 q25 0 45 -4 q20 -4 37 -11 l-14 -85 q-11 8 -28 12.5 q-17 4.5 -35 4.5 q-40 0 -57.5 -26 q-17.5 -26 -17.5 -71 q0 -87 70 -87 q19 0 36.5 3 q17.5 3 33.5 11 l17 -82 l0 0 ZM625 333 q0 51 -19 96 q-19 45 -52.5 78.5 q-33.5 33.5 -78 53 q-44.5 19.5 -95.5 19.5 q-51 0 -96 -19.5 q-45 -19.5 -78 -52.5 q-33 -33 -52.5 -78 q-19.5 -45 -19.5 -96 q0 -51 19.5 -96 q19.5 -45 52.5 -78.5 q33 -33.5 78 -53 q45 -19.5 96 -19.5 q51 0 95.5 19.5 q44.5 19.5 78 52.5 q33.5 33 52.5 78 q19 45 19 96 ZM722 334 q0 -71 -27 -133 q-27 -62 -73.5 -108.5 q-46.5 -46.5 -108.5 -73.5 q-62 -27 -133 -27 q-72 0 -134.5 26.5 q-62.5 26.5 -108.5 73 q-46 46.5 -72.5 108.5 q-26.5 62 -26.5 133 q0 71 27 133 q27 62 73.5 108.5 q46.5 46.5 108.5 73.5 q62 27 133 27 q71 0 133 -26.5 q62 -26.5 108.5 -73 q46.5 -46.5 73.5 -108.5 q27 -62 27 -133 Z" /><glyph glyph-name="trademark" unicode="&#x2122;" d="M188 598 l0 -204 l-91 0 l0 204 l-68 0 l0 77 l224 0 l0 -77 l-65 0 ZM559 394 l-18 121 l-5 47 l-9 -43 l-33 -125 l-85 0 l-33 128 l-8 40 l-2 -36 l-19 -132 l-86 0 l45 281 l109 0 l34 -123 l8 -41 l7 39 l34 125 l109 0 l47 -281 l-95 0 Z" /><glyph glyph-name="registered" unicode="®" d="M306 573 q0 24 -30 24 l-16 0 l0 -51 l11 0 q18 0 26.5 8 q8.5 8 8.5 19 ZM305 420 l-38 85 l-7 0 l0 -85 l-60 0 l0 223 l93 0 q42 0 60.5 -17 q18.5 -17 18.5 -45 q0 -26 -12.5 -41.5 q-12.5 -15.5 -32.5 -21.5 q9 -11 17 -27 l33 -71 l-72 0 ZM438 530 q0 32 -12.5 61 q-12.5 29 -33.5 50.5 q-21 21.5 -49.5 34 q-28.5 12.5 -60.5 12.5 q-33 0 -61.5 -12.5 q-28.5 -12.5 -49.5 -33.5 q-21 -21 -33.5 -49.5 q-12.5 -28.5 -12.5 -61.5 q0 -32 12.5 -61 q12.5 -29 33.5 -50.5 q21 -21.5 49.5 -34 q28.5 -12.5 61.5 -12.5 q32 0 60.5 12.5 q28.5 12.5 49.5 33.5 q21 21 33.5 49.5 q12.5 28.5 12.5 61.5 ZM516 530 q0 -48 -18.5 -90 q-18.5 -42 -50.5 -73 q-32 -31 -74.5 -49 q-42.5 -18 -90.5 -18 q-49 0 -92 18 q-43 18 -74.5 49 q-31.5 31 -49.5 73 q-18 42 -18 90 q0 48 18.5 90.5 q18.5 42.5 50 73.5 q31.5 31 74.5 49 q43 18 91 18 q49 0 91.5 -17.5 q42.5 -17.5 74 -48.5 q31.5 -31 50 -73.5 q18.5 -42.5 18.5 -91.5 Z" /><glyph glyph-name="dagger" unicode="&#x2020;" d="M281 533 l21 -88 l-23 -255 l-100 0 l-24 255 l21 88 l-134 0 l0 99 l134 0 l-21 136 l147 0 l-21 -136 l135 0 l0 -99 l-135 0 Z" /><glyph glyph-name="daggerdbl" unicode="&#x2021;" d="M282 287 l21 -122 l-149 0 l21 122 l-133 0 l0 98 l133 0 l-20 81 l20 82 l-133 0 l0 98 l133 0 l-20 122 l147 0 l-20 -122 l134 0 l0 -98 l-134 0 l20 -82 l-20 -81 l134 0 l0 -98 l-134 0 Z" /><glyph glyph-name="section" unicode="§" d="M342 230 q0 24 -11 45 q-11 21 -29.5 41.5 q-18.5 20.5 -42.5 42 q-24 21.5 -51 47.5 q-17 -13 -24.5 -30 q-7.5 -17 -7.5 -34 q0 -22 9 -41.5 q9 -19.5 26 -39.5 q17 -20 42 -43 q25 -23 57 -51 q17 12 24.5 29 q7.5 17 7.5 34 ZM458 247 q0 -44 -21 -81.5 q-21 -37.5 -56 -63.5 q17 -21 27 -46.5 q10 -25.5 10 -57.5 q0 -31 -12 -60.5 q-12 -29.5 -39 -53 q-27 -23.5 -70 -37.5 q-43 -14 -104 -14 q-17 0 -40 2.5 q-23 2.5 -43 7.5 l8 107 q40 -12 77 -12 q45 0 65.5 17.5 q20.5 17.5 20.5 43.5 q0 23 -16.5 43.5 q-16.5 20.5 -41 41.5 q-24.5 21 -53 45 q-28.5 24 -53 52.5 q-24.5 28.5 -41 63.5 q-16.5 35 -16.5 80 q0 45 20.5 82 q20.5 37 55.5 63 q-18 23 -27.5 47.5 q-9.5 24.5 -9.5 56.5 q0 33 11.5 62.5 q11.5 29.5 37 52 q25.5 22.5 65 36 q39.5 13.5 96.5 13.5 q20 0 41.5 -1.5 q21.5 -1.5 40.5 -6.5 l-7 -106 q-34 10 -71 10 q-41 0 -59 -14.5 q-18 -14.5 -18 -41.5 q0 -22 16.5 -42.5 q16.5 -20.5 41 -42.5 q24.5 -22 53.5 -46.5 q29 -24.5 53.5 -54 q24.5 -29.5 41 -65.5 q16.5 -36 16.5 -80 Z" /><glyph glyph-name="paragraph" unicode="¶" d="M292 231 q-62 0 -106.5 17.5 q-44.5 17.5 -73.5 48 q-29 30.5 -43 71.5 q-14 41 -14 86 q0 50 17.5 91 q17.5 41 48.5 70 q31 29 74.5 44.5 q43.5 15.5 96.5 15.5 l0 -444 l0 0 ZM479 573 l0 -669 l-179 0 l0 102 l70 0 l0 669 l174 0 l0 -102 l-65 0 Z" /><glyph glyph-name="brokenbar" unicode="¦" d="M91 -241 l0 378 l102 0 l0 -378 l-102 0 ZM91 391 l0 368 l102 0 l0 -368 l-102 0 Z" /><glyph glyph-name="degree" unicode="°" d="M245 604 q0 20 -12.5 39 q-12.5 19 -40.5 19 q-24 0 -39.5 -16.5 q-15.5 -16.5 -15.5 -43.5 q0 -28 15 -43.5 q15 -15.5 39 -15.5 q25 0 39.5 17 q14.5 17 14.5 44 ZM340 604 q0 -35 -13 -61.5 q-13 -26.5 -34.5 -44.5 q-21.5 -18 -49.5 -27 q-28 -9 -57 -9 q-67 0 -105.5 37 q-38.5 37 -38.5 102 q0 33 13 59.5 q13 26.5 34.5 44.5 q21.5 18 48.5 27.5 q27 9.5 55 9.5 q39 0 67 -11 q28 -11 45.5 -30 q17.5 -19 26 -44 q8.5 -25 8.5 -53 Z" /><glyph glyph-name="logicalnot" unicode="¬" d="M376 95 l0 149 l-337 0 l0 107 l450 0 l0 -256 l-113 0 Z" /><glyph glyph-name="minus" unicode="&#x2212;" d="M39 242 l0 111 l472 0 l0 -111 l-472 0 Z" /><glyph glyph-name="multiply" unicode="×" d="M425 69 l-154 154 l-154 -154 l-70 70 l154 154 l-154 154 l78 78 l154 -154 l154 154 l70 -70 l-154 -154 l154 -154 l-78 -78 Z" /><glyph glyph-name="divide" unicode="÷" d="M352 97 q0 -32 -23 -55 q-23 -23 -55 -23 q-32 0 -55 23 q-23 23 -23 55 q0 32 23 55 q23 23 55 23 q32 0 55 -23 q23 -23 23 -55 ZM39 244 l0 107 l472 0 l0 -107 l-472 0 ZM352 498 q0 -32 -23 -55 q-23 -23 -55 -23 q-32 0 -55 23 q-23 23 -23 55 q0 32 23 55 q23 23 55 23 q32 0 55 -23 q23 -23 23 -55 Z" /><glyph glyph-name="notequal" unicode="&#x2260;" d="M281 150 l-48 -121 l-114 0 l48 121 l-114 0 l0 103 l154 0 l35 88 l-189 0 l0 103 l229 0 l48 121 l115 0 l-48 -121 l113 0 l0 -103 l-154 0 l-35 -88 l189 0 l0 -103 l-229 0 Z" /><glyph glyph-name="approxequal" unicode="&#x2248;" d="M513 174 q-28 -25 -66 -42.5 q-38 -17.5 -75 -17.5 q-35 0 -59.5 9 q-24.5 9 -45.5 20 q-21 11 -42 20 q-21 9 -47 9 q-28 0 -52.5 -13 q-24.5 -13 -45.5 -30 l-42 86 q24 23 59.5 43.5 q35.5 20.5 77.5 20.5 q34 0 58.5 -9 q24.5 -9 46.5 -20.5 q22 -11.5 44 -20.5 q22 -9 52 -9 q51 0 96 39 l41 -85 l0 0 ZM512 375 q-27 -27 -62 -45.5 q-35 -18.5 -78 -18.5 q-32 0 -55.5 9 q-23.5 9 -44.5 20 q-21 11 -43 20 q-22 9 -51 9 q-28 0 -53.5 -12.5 q-25.5 -12.5 -46.5 -29.5 l-40 85 q28 26 65.5 45 q37.5 19 78.5 19 q33 0 58.5 -9 q25.5 -9 47.5 -20.5 q22 -11.5 42.5 -20.5 q20.5 -9 43.5 -9 q26 0 50 12 q24 12 45 32 l43 -86 l0 0 Z" /><glyph glyph-name="plusminus" unicode="±" d="M43 0 l0 107 l464 0 l0 -107 l-464 0 ZM336 346 l0 -183 l-122 0 l0 183 l-175 0 l0 106 l175 0 l0 182 l122 0 l0 -182 l175 0 l0 -106 l-175 0 Z" /><glyph glyph-name="lessequal" unicode="&#x2264;" d="M71 0 l0 107 l408 0 l0 -107 l-408 0 ZM388 145 l-333 257 l332 257 l81 -87 l-242 -169 l242 -169 l-80 -89 Z" /><glyph glyph-name="greaterequal" unicode="&#x2265;" d="M71 0 l0 107 l408 0 l0 -107 l-408 0 ZM163 145 l-81 87 l242 169 l-242 169 l80 89 l333 -257 l-332 -257 Z" /><glyph glyph-name="infinity" unicode="&#x221e;" d="M392 296 q-47 35 -82.5 55.5 q-35.5 20.5 -65.5 20.5 q-38 0 -57.5 -22 q-19.5 -22 -19.5 -51 q0 -32 20.5 -52.5 q20.5 -20.5 57.5 -20.5 q31 0 67.5 19 q36.5 19 79.5 51 ZM818 300 q0 31 -20.5 51.5 q-20.5 20.5 -57.5 20.5 q-32 0 -69.5 -20 q-37.5 -20 -79.5 -51 q48 -35 83.5 -55 q35.5 -20 65.5 -20 q38 0 58 22 q20 22 20 52 ZM940 304 q0 -39 -13.5 -73 q-13.5 -34 -39.5 -60 q-26 -26 -64.5 -41 q-38.5 -15 -88.5 -15 q-57 0 -117 28 q-60 28 -129 79 q-27 -20 -57 -39.5 q-30 -19.5 -61.5 -34.5 q-31.5 -15 -64.5 -24 q-33 -9 -68 -9 q-48 0 -84.5 14 q-36.5 14 -60.5 38.5 q-24 24.5 -36 57 q-12 32.5 -12 69.5 q0 41 14.5 75.5 q14.5 34.5 41 60 q26.5 25.5 63.5 39.5 q37 14 82 14 q61 0 122 -29 q61 -29 128 -80 q26 19 55.5 38.5 q29.5 19.5 61.5 35.5 q32 16 65 25.5 q33 9.5 67 9.5 q47 0 83.5 -13.5 q36.5 -13.5 61.5 -37.5 q25 -24 38 -57 q13 -33 13 -71 Z" /><glyph glyph-name="partialdiff" unicode="&#x2202;" d="M414 238 q0 45 -27 74.5 q-27 29.5 -82 29.5 q-52 0 -84.5 -36 q-32.5 -36 -32.5 -91 q0 -55 27.5 -83.5 q27.5 -28.5 75.5 -28.5 q26 0 48.5 10 q22.5 10 39 28 q16.5 18 26 43 q9.5 25 9.5 54 ZM572 399 q0 -93 -24 -177 q-24 -84 -79 -144 q-35 -39 -86.5 -62 q-51.5 -23 -109.5 -23 q-52 0 -91.5 15 q-39.5 15 -66 43 q-26.5 28 -40 66.5 q-13.5 38.5 -13.5 86.5 q0 53 17.5 98 q17.5 45 50 78 q32.5 33 78.5 51.5 q46 18.5 102 18.5 q45 0 78 -17.5 q33 -17.5 52 -46.5 q-2 22 -3.5 37 q-1.5 15 -3.5 29 q-6 44 -23.5 77.5 q-17.5 33.5 -44 56 q-26.5 22.5 -61 33.5 q-34.5 11 -74.5 11 l18 107 q73 -1 133 -24.5 q60 -23.5 102.5 -67 q42.5 -43.5 65.5 -106 q23 -62.5 23 -140.5 Z" /><glyph glyph-name="summation" unicode="&#x2211;" d="M36 -241 l0 99 l291 396 l-273 376 l0 100 l489 0 l0 -108 l-332 0 l264 -364 l-288 -387 l371 0 l0 -112 l-522 0 Z" /><glyph glyph-name="product" unicode="&#x220f;" d="M646 622 l0 -863 l-119 0 l0 863 l-268 0 l0 -863 l-121 0 l0 863 l-97 0 l0 108 l702 0 l0 -108 l-97 0 Z" /><glyph glyph-name="Omega" unicode="&#x3a9;&#x2126;" d="M413 0 l0 103 q57 44 87 100.5 q30 56.5 30 145.5 q0 49 -10.5 90 q-10.5 41 -32.5 70 q-22 29 -54.5 45 q-32.5 16 -77.5 16 q-37 0 -68.5 -15 q-31.5 -15 -55 -43 q-23.5 -28 -36.5 -68.5 q-13 -40.5 -13 -91.5 q0 -44 6 -79.5 q6 -35.5 20 -64.5 q14 -29 36.5 -54.5 q22.5 -25.5 55.5 -50.5 l0 -103 l-263 0 l0 105 l123 0 q-52 36 -84.5 97 q-32.5 61 -32.5 151 q0 75 24 136.5 q24 61.5 67 105 q43 43.5 102.5 67.5 q59.5 24 130.5 24 q63 0 118 -18.5 q55 -18.5 95.5 -57.5 q40.5 -39 64 -99.5 q23.5 -60.5 23.5 -143.5 q0 -91 -34 -157 q-34 -66 -86 -105 l128 0 l0 -105 l-263 0 Z" /><glyph glyph-name="Delta" unicode="&#x394;&#x2206;" d="M27 0 l0 98 l198 577 l159 0 l204 -577 l0 -98 l-561 0 ZM327 450 q-8 26 -14.5 50.5 q-6.5 24.5 -11.5 51.5 l-2 0 q-5 -27 -12 -53.5 q-7 -26.5 -15 -51.5 l-111 -330 l279 0 l-113 333 Z" /><glyph glyph-name="mu" unicode="µ&#x3bc;" d="M556 -4 q-28 -5 -51 -5 q-33 0 -54.5 7.5 q-21.5 7.5 -34 20 q-12.5 12.5 -18 30 q-5.5 17.5 -6.5 38.5 l-1 0 q-18 -43 -53.5 -68.5 q-35.5 -25.5 -88.5 -25.5 q-43 0 -64 23 l15 -257 l-131 0 l0 738 l128 0 l0 -322 q0 -78 61 -78 q25 0 46.5 12 q21.5 12 37 33 q15.5 21 24 51 q8.5 30 8.5 66 l0 238 l127 0 l0 -318 q0 -26 2.5 -42 q2.5 -16 8.5 -25 q6 -9 16.5 -12 q10.5 -3 27.5 -3 l0 -101 l0 0 Z" /><glyph glyph-name="pi" unicode="&#x3c0;" d="M495 392 q0 -160 15 -230 q7 -38 18.5 -51.5 q11.5 -13.5 28.5 -13.5 q7 0 15 1 q8 1 16 3 l12 -102 q-30 -8 -72 -8 q-65 0 -98 29.5 q-33 29.5 -47 104.5 q-8 44 -12.5 113 q-4.5 69 -4.5 154 l-127 0 q1 -99 -11.5 -202 q-12.5 -103 -44.5 -203 l-136 26 q34 99 52 190 q18 91 17 189 l-104 0 l0 105 l588 0 l0 -105 l-105 0 Z" /><glyph glyph-name="integral" unicode="&#x222b;" d="M316 863 q-9 3 -21 5 q-12 2 -24 2 q-15 0 -26.5 -5 q-11.5 -5 -19 -19 q-7.5 -14 -11 -39.5 q-3.5 -25.5 -3.5 -65.5 q0 -40 1.5 -100.5 q1.5 -60.5 3.5 -132 q2 -71.5 5 -150 q3 -78.5 5 -153 q2 -74.5 3.5 -141.5 q1.5 -67 1.5 -116 q0 -144 -41 -206 q-41 -62 -126 -62 q-14 0 -28.5 2 q-14.5 2 -27.5 4 l0 111 q10 -3 21.5 -4.5 q11.5 -1.5 21.5 -1.5 q16 0 27.5 5 q11.5 5 19 19 q7.5 14 11 40 q3.5 26 3.5 67 q0 39 -1.5 98.5 q-1.5 59.5 -3.5 130.5 q-2 71 -4.5 149 q-2.5 78 -4.5 153 q-2 75 -3.5 142.5 q-1.5 67.5 -1.5 117.5 q0 73 11.5 124 q11.5 51 33.5 82.5 q22 31.5 53.5 46 q31.5 14.5 72.5 14.5 q11 0 25.5 -2 q14.5 -2 26.5 -5 l0 -110 Z" /><glyph glyph-name="radical" unicode="&#x221a;" d="M445 234 l-72 -234 l-148 0 l-47 141 l-88 260 l-87 0 l0 96 l192 0 l30 -96 l50 -162 q8 -23 15 -47.5 q7 -24.5 12 -49.5 l1 0 q5 26 10.5 48.5 q5.5 22.5 10.5 43.5 l141 524 l140 0 l-160 -524 Z" /><glyph glyph-name="lozenge" unicode="&#x25ca;" d="M308 545 l-145 -203 l154 -213 l147 202 l-156 214 ZM355 -9 l-80 0 l-253 348 l251 345 l78 0 l253 -348 l-249 -345 Z" /><glyph glyph-name="fraction" unicode="&#x2044;&#x2215;" d="M-177 -150 l-79 54 l652 905 l78 -55 l-651 -904 Z" /><glyph glyph-name="ordfeminine" unicode="ª" d="M239 477 q-54 0 -78.5 -12 q-24.5 -12 -24.5 -38 q0 -14 10 -23 q10 -9 27 -9 q16 0 28.5 7.5 q12.5 7.5 21 18.5 q8.5 11 12.5 23.5 q4 12.5 4 22.5 l0 10 ZM50 176 l0 99 l311 0 l0 -99 l-311 0 ZM244 325 q0 11 1 24 q1 13 3 25 l-1 1 q-11 -25 -39.5 -42 q-28.5 -17 -61.5 -17 q-56 0 -81 27.5 q-25 27.5 -25 69.5 q0 33 15 57.5 q15 24.5 42 40.5 q27 16 63.5 23.5 q36.5 7.5 78.5 7.5 l0 15 q0 8 -2 16.5 q-2 8.5 -8 15 q-6 6.5 -17.5 11 q-11.5 4.5 -30.5 4.5 q-30 0 -57.5 -7.5 q-27.5 -7.5 -52.5 -19.5 l-9 86 q27 10 61.5 16 q34.5 6 73.5 6 q42 0 69.5 -9.5 q27.5 -9.5 44 -26 q16.5 -16.5 23 -37.5 q6.5 -21 6.5 -43 l0 -159 q0 -26 0 -47 q0 -20 1 -38 l-97 0 Z" /><glyph glyph-name="ordmasculine" unicode="º" d="M281 504 q0 40 -15.5 66 q-15.5 26 -53.5 26 q-26 0 -48 -21 q-22 -21 -22 -73 q0 -19 3.5 -36 q3.5 -17 11 -30.5 q7.5 -13.5 20.5 -21.5 q13 -8 32 -8 q29 0 50.5 22 q21.5 22 21.5 76 ZM53 176 l0 99 l318 0 l0 -99 l-318 0 ZM385 506 q0 -43 -14 -78 q-14 -35 -38.5 -59.5 q-24.5 -24.5 -58 -38 q-33.5 -13.5 -72.5 -13.5 q-35 0 -64.5 9.5 q-29.5 9.5 -52 31.5 q-22.5 22 -35 56.5 q-12.5 34.5 -12.5 84.5 q0 43 14 77.5 q14 34.5 38.5 59 q24.5 24.5 57 37.5 q32.5 13 70.5 13 q36 0 66.5 -9.5 q30.5 -9.5 53 -31 q22.5 -21.5 35 -56 q12.5 -34.5 12.5 -83.5 Z" /><glyph glyph-name="apple" unicode="&#xf8ff;" d="M166 366 q-3 -31 0 -60 l-150 -15 q-6 44 0 89 l150 -14 ZM531 355 q2 0 2 5 q0 5 -2 5 q3 -5 0 -10 ZM528 357 q5 0 2.5 2 q-2.5 2 -0.5 2 l0 1 q-5 0 -2 -2 q3 -2 0 -2 l0 -1 l0 0 ZM525 359 q-2 -2 -2 -1 q0 2 2 1 ZM525 357 l1 0 l0 3 q0 5 -4 1 q2 0 3 -1 q-2 0 -3 -2 q-1 -2 3 0 l0 -1 ZM522 355 q-3 5 0 10 q-2 0 -2 -5 q0 -5 2 -5 ZM518 358 q-2 -1 -2 1 q0 3 2 2 l0 1 q-2 1 -2.5 -2.5 q-0.5 -3.5 2.5 -2.5 l0 1 ZM513 362 l0 -3 q0 -2 -0.5 -1.5 q-0.5 0.5 -0.5 1.5 l0 3 l-1 0 l0 -3 q0 -2 1 -2 q2 0 2 2 l0 3 l-1 0 ZM510 358 l-2 0 l0 6 l-1 0 l0 -7 l3 0 l0 1 ZM632 -20 l-234 -61 l23 -55 l202 0 l11 27 l-4 10 l-70 -18 l-15 41 l100 25 l-13 31 ZM632 64 l-234 -60 l13 -31 l234 59 l-13 32 ZM400 138 l0 -47 l14 -34 l230 59 l0 22 l-244 0 ZM561 329 q-11 2 -20.5 2.5 q-9.5 0.5 -18.5 0.5 q-8 0 -18 -0.5 q-10 -0.5 -22 -2.5 l15 -137 l51 0 l13 137 l0 0 ZM449 192 l-16 129 q-14 -3 -22.5 -6.5 q-8.5 -3.5 -15.5 -5.5 q-8 -3 -12.5 6 q-4.5 9 -5 20.5 q-0.5 11.5 1.5 22.5 q2 11 8 13 q30 8 65 14 q35 6 70 6 q37 0 71.5 -6 q34.5 -6 65.5 -14 q5 -2 7 -12.5 q2 -10.5 1 -22.5 q-1 -12 -5.5 -21 q-4.5 -9 -12.5 -6 q-14 6 -40 12 l-13 -129 l49 0 q28 24 47 61 q19 37 19 82 q0 39 -15 74 q-15 35 -40.5 60.5 q-25.5 25.5 -60 40.5 q-34.5 15 -73.5 15 q-39 0 -73.5 -15 q-34.5 -15 -60 -40.5 q-25.5 -25.5 -40.5 -60.5 q-15 -35 -15 -74 q0 -42 17.5 -79.5 q17.5 -37.5 48.5 -63.5 l50 0 ZM779 335 q0 -51 -18.5 -95.5 q-18.5 -44.5 -47.5 -75.5 l0 -80 l-16 -5 l32 -76 l-32 -8 l32 -73 l-33 -9 l10 -24 l-31 -71 l-57 0 q-3 -20 -30.5 -34 q-27.5 -14 -65.5 -14 q-39 0 -66 14 q-27 14 -30 34 l-57 0 l-54 130 l31 9 l-32 75 l35 10 l-19 44 l0 79 q-29 33 -47 77 q-18 44 -18 93 q0 54 20 100.5 q20 46.5 55 81.5 q35 35 82 55 q47 20 100 20 q53 0 99.5 -20 q46.5 -20 81.5 -55 q35 -35 55.5 -81.5 q20.5 -46.5 20.5 -100.5 ZM1028 379 q2 -23 2.5 -44 q0.5 -21 -1.5 -43 l-148 14 q3 29 0 60 l147 13 l0 0 ZM845 721 q17 -14 32.5 -29.5 q15.5 -15.5 29.5 -32.5 l-113 -93 q-8 11 -20 22.5 q-12 11.5 -22 19.5 l93 113 ZM552 685 q-14 2 -30 2 q-15 0 -29 -2 l-15 145 q22 2 44 2 q23 0 44 -2 l-14 -145 l0 0 ZM136 660 q15 17 30 32.5 q15 15.5 32 29.5 l96 -115 q-11 -8 -22.5 -19.5 q-11.5 -11.5 -19.5 -22.5 l-116 95 l0 0 Z" /><glyph glyph-name="AE" unicode="æ" d="M364 566 l-2 0 q-14 -35 -28 -67.5 q-14 -32.5 -34 -73.5 l-89 -174 l153 0 l0 315 ZM364 0 l0 149 l-197 0 l-72 -149 l-133 0 l334 675 l426 0 l0 -109 l-233 0 l0 -166 l225 0 l0 -106 l-225 0 l0 -182 l240 0 l0 -112 l-365 0 Z" /><glyph glyph-name="ae" unicode="æ" d="M325 223 q-49 0 -81 -6 q-32 -6 -50.5 -16.5 q-18.5 -10.5 -26 -24.5 q-7.5 -14 -7.5 -30 q0 -25 15.5 -41.5 q15.5 -16.5 43.5 -16.5 q24 0 43.5 10.5 q19.5 10.5 33.5 27 q14 16.5 21.5 38 q7.5 21.5 7.5 44.5 l0 15 ZM635 313 q2 48 -21.5 74.5 q-23.5 26.5 -64.5 26.5 q-40 0 -66 -27 q-26 -27 -31 -74 l183 0 l0 0 ZM762 286 q0 -13 -1 -27.5 q-1 -14.5 -3 -31.5 l-308 0 q-1 -137 137 -137 q36 0 72.5 7.5 q36.5 7.5 71.5 22.5 l14 -97 q-41 -17 -87.5 -25 q-46.5 -8 -92.5 -8 q-81 0 -130.5 28 q-49.5 28 -69.5 73 l-1 0 q-23 -43 -68.5 -72 q-45.5 -29 -113.5 -29 q-69 0 -106.5 40.5 q-37.5 40.5 -37.5 101.5 q0 44 20.5 77 q20.5 33 58 54.5 q37.5 21.5 90.5 32 q53 10.5 118 10.5 l0 25 q0 39 -21.5 59 q-21.5 20 -75.5 20 q-34 0 -72 -10 q-38 -10 -68 -25 l-23 101 q38 14 87 23 q49 9 98 9 q50 0 90 -13.5 q40 -13.5 66 -48.5 l1 0 q23 27 60.5 44.5 q37.5 17.5 85.5 17.5 q54 0 93.5 -17.5 q39.5 -17.5 65 -47.5 q25.5 -30 38 -70.5 q12.5 -40.5 12.5 -86.5 Z" /><glyph glyph-name="Aogonek" unicode="&#x104;" d="M333 442 q-8 25 -15 48 q-7 23 -12 45 l-1 0 q-6 -22 -12 -44.5 q-6 -22.5 -14 -48.5 l-69 -201 l192 0 l-69 201 ZM660 -155 q-26 -33 -62 -51 q-36 -18 -82 -18 q-57 0 -85.5 25 q-28.5 25 -28.5 65 q0 32 18.5 67 q18.5 35 60.5 67 l-46 138 l-256 0 l-47 -138 l-131 0 l233 675 l153 0 l238 -675 q-54 -21 -77.5 -46.5 q-23.5 -25.5 -23.5 -49.5 q0 -31 34 -31 q30 0 52 31 l50 -59 l0 0 Z" /><glyph glyph-name="aogonek" unicode="&#x105;" d="M325 223 q-49 0 -81 -6 q-32 -6 -50.5 -16.5 q-18.5 -10.5 -26 -24.5 q-7.5 -14 -7.5 -30 q0 -24 15.5 -41 q15.5 -17 43.5 -17 q24 0 43.5 10.5 q19.5 10.5 33.5 27 q14 16.5 21.5 38 q7.5 21.5 7.5 44.5 l0 15 ZM515 -149 q-27 -36 -66 -55.5 q-39 -19.5 -83 -19.5 q-45 0 -75 22 q-30 22 -30 68 q0 45 26 81 q26 36 60 62 q-8 38 -8 72 l-1 0 q-20 -41 -61.5 -66 q-41.5 -25 -96.5 -25 q-68 0 -105 40.5 q-37 40.5 -37 101.5 q0 44 20.5 77 q20.5 33 58 54.5 q37.5 21.5 90.5 32 q53 10.5 118 10.5 l0 25 q0 39 -19.5 59 q-19.5 20 -69.5 20 q-34 0 -74 -9 q-40 -9 -76 -24 l-21 98 q41 15 90 24 q49 9 98 9 q56 0 95 -11 q39 -11 62.5 -33.5 q23.5 -22.5 33 -54 q9.5 -31.5 9.5 -70.5 l0 -175 q0 -45 4 -86.5 q4 -41.5 12 -77.5 q-48 -25 -68.5 -48 q-20.5 -23 -20.5 -46 q0 -14 9 -21.5 q9 -7.5 24 -7.5 q14 0 28.5 9 q14.5 9 23.5 23 l50 -58 Z" /><glyph glyph-name="Eth" unicode="ð" d="M499 339 q0 54 -11.5 97 q-11.5 43 -36.5 72.5 q-25 29.5 -65 45.5 q-40 16 -98 16 q-23 0 -43.5 -0.5 q-20.5 -0.5 -36.5 -2.5 l0 -175 l122 0 l0 -98 l-122 0 l0 -183 q6 -1 29 -2.5 q23 -1.5 43 -1.5 q48 0 88 13.5 q40 13.5 69 42 q29 28.5 45.5 72.5 q16.5 44 16.5 104 ZM639 348 q0 -87 -27 -152.5 q-27 -65.5 -76 -110 q-49 -44.5 -117.5 -67 q-68.5 -22.5 -151.5 -22.5 q-52 0 -97.5 1.5 q-45.5 1.5 -90.5 3.5 l0 293 l-75 0 l0 98 l75 0 l0 282 q42 2 99.5 3.5 q57.5 1.5 120.5 1.5 q78 0 141 -18.5 q63 -18.5 107 -58 q44 -39.5 68 -102.5 q24 -63 24 -152 Z" /><glyph glyph-name="eth" unicode="ð" d="M385 260 q0 64 -26.5 101.5 q-26.5 37.5 -82.5 37.5 q-22 0 -42 -9 q-20 -9 -35 -27 q-15 -18 -24 -46 q-9 -28 -9 -67 q0 -74 30 -112.5 q30 -38.5 83 -38.5 q46 0 76 38.5 q30 38.5 30 122.5 ZM518 278 q0 -73 -19.5 -127 q-19.5 -54 -53.5 -90 q-34 -36 -79 -53.5 q-45 -17.5 -97 -17.5 q-52 0 -95 15 q-43 15 -74.5 46 q-31.5 31 -49 78 q-17.5 47 -17.5 111 q0 60 18 108.5 q18 48.5 50.5 83.5 q32.5 35 76.5 54 q44 19 96 19 q23 0 45 -7 q22 -7 34 -24 q-7 12 -13.5 22.5 q-6.5 10.5 -11.5 18.5 q-10 17 -23 34 q-13 17 -30 35 l-92 -41 l-52 60 l84 37 q-17 14 -36 28.5 q-19 14.5 -40 28.5 l125 53 q36 -27 69 -60 l89 39 l51 -60 l-86 -37 q63 -78 97 -167.5 q34 -89.5 34 -186.5 Z" /><glyph glyph-name="dcroat" unicode="&#x111;" d="M361 397 q-17 4 -33.5 6 q-16.5 2 -33.5 2 q-55 0 -90 -38.5 q-35 -38.5 -35 -130.5 q0 -141 85 -141 q25 0 45 13.5 q20 13.5 33.5 36 q13.5 22.5 21 52 q7.5 29.5 7.5 61.5 l0 139 ZM488 582 l0 -582 l-119 0 q0 18 1.5 40.5 q1.5 22.5 4.5 42.5 l-2 0 q-20 -42 -60 -68 q-40 -26 -97 -26 q-91 0 -136 63 q-45 63 -45 170 q0 63 18 115 q18 52 51.5 89.5 q33.5 37.5 82.5 58.5 q49 21 111 21 q16 0 31 -1 q15 -1 32 -3 l0 80 l-105 0 l0 81 l105 0 l0 67 l127 0 l0 -67 l61 0 l0 -81 l-61 0 Z" /><glyph glyph-name="Eogonek" unicode="&#x118;" d="M477 -155 q-26 -33 -62 -51 q-36 -18 -82 -18 q-57 0 -86.5 25 q-29.5 25 -29.5 65 q0 34 20 69.5 q20 35.5 58 64.5 l-225 0 l0 675 l364 0 l0 -109 l-234 0 l0 -166 l222 0 l0 -106 l-222 0 l0 -182 l241 0 l0 -109 q-50 -14 -75 -43 q-25 -29 -25 -56 q0 -14 9.5 -22.5 q9.5 -8.5 24.5 -8.5 q29 0 53 31 l49 -59 Z" /><glyph glyph-name="eogonek" unicode="&#x119;" d="M349 309 q2 50 -21 77 q-23 27 -64 27 q-39 0 -66 -28 q-27 -28 -33 -76 l184 0 ZM470 -155 q-27 -33 -63 -51 q-36 -18 -81 -18 q-58 0 -86.5 25 q-28.5 25 -28.5 65 q0 29 18 64 q18 35 55 64 q-6 -1 -12.5 -1.5 q-6.5 -0.5 -13.5 -0.5 q-41 0 -81.5 12 q-40.5 12 -72 41 q-31.5 29 -51 77.5 q-19.5 48.5 -19.5 121.5 q0 57 17 105.5 q17 48.5 47.5 83.5 q30.5 35 73 54.5 q42.5 19.5 98.5 19.5 q54 0 94.5 -17 q40.5 -17 65.5 -47 q25 -30 35.5 -67.5 q10.5 -37.5 10.5 -79.5 q0 -23 -1 -39 q-1 -16 -3 -33 l-308 0 q-1 -135 137 -134 q35 0 72 7 q37 7 72 23 l14 -98 q-25 -7 -50.5 -21.5 q-25.5 -14.5 -42 -31 q-16.5 -16.5 -25 -33.5 q-8.5 -17 -8.5 -32 q0 -14 9.5 -22.5 q9.5 -8.5 24.5 -8.5 q30 0 53 31 l50 -59 Z" /><glyph glyph-name="Gbreve" unicode="&#x11e;" d="M608 32 q-51 -20 -110.5 -31 q-59.5 -11 -120.5 -11 q-80 0 -144.5 22.5 q-64.5 22.5 -109 64.5 q-44.5 42 -66 105 q-21.5 63 -21.5 135 q0 84 25 152 q25 68 73.5 116 q48.5 48 119 74 q70.5 26 157.5 26 q53 0 101.5 -8 q48.5 -8 89.5 -21 l-26 -118 q-79 31 -173 31 q-50 0 -92.5 -15 q-42.5 -15 -72 -45.5 q-29.5 -30.5 -45.5 -74 q-16 -43.5 -16 -100.5 q0 -108 56 -167.5 q56 -59.5 159 -59.5 q47 0 86 12 l0 235 l130 0 l0 -322 l0 0 ZM532 859 q0 -28 -9.5 -53 q-9.5 -25 -27.5 -43.5 q-18 -18.5 -44.5 -29 q-26.5 -10.5 -61.5 -10.5 q-35 0 -61.5 11 q-26.5 11 -44 29.5 q-17.5 18.5 -26.5 43.5 q-9 25 -9 52 l76 0 q0 -24 18.5 -40.5 q18.5 -16.5 47.5 -16.5 q31 0 48 16.5 q17 16.5 17 40.5 l77 0 Z" /><glyph glyph-name="Gcommaaccent" unicode="&#x122;" d="M608 32 q-51 -20 -110.5 -31 q-59.5 -11 -120.5 -11 q-80 0 -144.5 22.5 q-64.5 22.5 -109 64.5 q-44.5 42 -66 105 q-21.5 63 -21.5 135 q0 84 25 152 q25 68 73.5 116 q48.5 48 119 74 q70.5 26 157.5 26 q53 0 101.5 -8 q48.5 -8 89.5 -21 l-26 -118 q-79 31 -173 31 q-50 0 -92.5 -15 q-42.5 -15 -72 -45.5 q-29.5 -30.5 -45.5 -74 q-16 -43.5 -16 -100.5 q0 -108 56 -167.5 q56 -59.5 159 -59.5 q47 0 86 12 l0 235 l130 0 l0 -322 l0 0 ZM383 -47 q26 0 43.5 -18 q17.5 -18 17.5 -48 q0 -19 -8 -38 q-8 -19 -24.5 -35.5 q-16.5 -16.5 -43 -31 q-26.5 -14.5 -64.5 -24.5 l-21 46 q29 16 39.5 28 q10.5 12 10.5 26 q0 11 -4.5 20.5 q-4.5 9.5 -4.5 18.5 q0 22 16 39 q16 17 43 17 Z" /><glyph glyph-name="dotlessi" unicode="&#x131;" d="M69 0 l0 497 l128 0 l0 -497 l-128 0 Z" /><glyph glyph-name="Iogonek" unicode="&#x12e;" d="M245 -150 q-27 -37 -65.5 -55.5 q-38.5 -18.5 -82.5 -18.5 q-45 0 -75 22 q-30 22 -30 68 q0 42 24 77.5 q24 35.5 54 59.5 l0 672 l130 0 l0 -675 q-50 -24 -69.5 -48.5 q-19.5 -24.5 -19.5 -45.5 q0 -15 9.5 -23 q9.5 -8 23.5 -8 q14 0 28 9 q14 9 24 23 l49 -57 Z" /><glyph glyph-name="iogonek" unicode="&#x12f;" d="M243 -150 q-27 -37 -66 -55.5 q-39 -18.5 -82 -18.5 q-46 0 -75.5 22 q-29.5 22 -29.5 68 q0 39 22 74.5 q22 35.5 57 62.5 l0 494 l128 0 l0 -497 q-49 -24 -68.5 -48.5 q-19.5 -24.5 -19.5 -45.5 q0 -15 9.5 -23 q9.5 -8 23.5 -8 q14 0 28 9 q14 9 24 23 l49 -57 ZM213 648 q0 -32 -23.5 -54.5 q-23.5 -22.5 -56.5 -22.5 q-33 0 -56 22.5 q-23 22.5 -23 54.5 q0 32 23 55 q23 23 56 23 q33 0 56.5 -22.5 q23.5 -22.5 23.5 -55.5 Z" /><glyph glyph-name="Lslash" unicode="&#x141;" d="M79 0 l0 315 l-66 -31 l-23 101 l89 41 l0 249 l130 0 l0 -188 l98 45 l24 -101 l-122 -55 l0 -262 l219 0 l0 -114 l-349 0 Z" /><glyph glyph-name="lslash" unicode="&#x142;" d="M215 393 l0 -393 l-128 0 l0 326 l-51 -29 l-25 95 l76 42 l0 296 l128 0 l0 -229 l54 31 l26 -95 l-80 -44 Z" /><glyph glyph-name="OE" unicode="&#x152;" d="M438 556 q-20 6 -41 9.5 q-21 3.5 -45 3.5 q-35 0 -67.5 -14 q-32.5 -14 -57.5 -42 q-25 -28 -40 -70.5 q-15 -42.5 -15 -99.5 q0 -54 10.5 -97.5 q10.5 -43.5 32.5 -74 q22 -30.5 55.5 -47.5 q33.5 -17 78.5 -17 q21 0 44.5 4 q23.5 4 44.5 12 l0 433 ZM449 0 q-53 -11 -109 -11 q-77 0 -135 23.5 q-58 23.5 -96 68 q-38 44.5 -57 107.5 q-19 63 -19 141 q0 84 26 150 q26 66 70.5 112 q44.5 46 103.5 70.5 q59 24.5 125 24.5 q29 0 55 -3 q26 -3 50 -8 l341 0 l0 -109 l-236 0 l0 -166 l224 0 l0 -106 l-224 0 l0 -183 l236 0 l0 -111 l-355 0 Z" /><glyph glyph-name="oe" unicode="&#x153;" d="M387 251 q0 72 -26 110 q-26 38 -83 38 q-21 0 -41.5 -8.5 q-20.5 -8.5 -36.5 -26.5 q-16 -18 -25.5 -45.5 q-9.5 -27.5 -9.5 -65.5 q0 -154 111 -154 q48 0 79.5 38 q31.5 38 31.5 114 ZM694 313 q2 48 -21 74.5 q-23 26.5 -65 26.5 q-39 0 -65.5 -27 q-26.5 -27 -31.5 -74 l183 0 l0 0 ZM821 286 q0 -13 -1 -27.5 q-1 -14.5 -3 -31.5 l-307 0 q-1 -137 136 -137 q36 0 72.5 7.5 q36.5 7.5 71.5 22.5 l14 -97 q-41 -17 -87 -25 q-46 -8 -93 -8 q-68 0 -112.5 21.5 q-44.5 21.5 -72.5 59.5 q-27 -36 -71.5 -58.5 q-44.5 -22.5 -102.5 -22.5 q-53 0 -95.5 14 q-42.5 14 -73 44.5 q-30.5 30.5 -47 78 q-16.5 47.5 -16.5 113.5 q0 58 18.5 107.5 q18.5 49.5 51.5 84.5 q33 35 80 55 q47 20 104 20 q48 0 93 -17.5 q45 -17.5 73 -55.5 q27 34 66 54 q39 20 93 20 q55 0 94.5 -17.5 q39.5 -17.5 65 -47.5 q25.5 -30 37.5 -70.5 q12 -40.5 12 -86.5 Z" /><glyph glyph-name="Oslash" unicode="ø" d="M381 571 q-21 2 -30 2 q-35 0 -68 -14 q-33 -14 -59 -42.5 q-26 -28.5 -41.5 -72 q-15.5 -43.5 -15.5 -101.5 q1 -56 12 -100 q11 -44 40 -82 l175 408 l-13 2 ZM536 336 q0 60 -14 108.5 q-14 48.5 -43 78.5 l-177 -415 q13 -3 24 -4 q11 -1 20 -1 q38 0 71.5 13 q33.5 13 60.5 41.5 q27 28.5 42.5 72.5 q15.5 44 15.5 106 ZM670 345 q0 -84 -25.5 -150 q-25.5 -66 -69.5 -111.5 q-44 -45.5 -104.5 -70 q-60.5 -24.5 -131.5 -24.5 q-48 0 -89 9 l-45 -101 l-91 41 l45 100 q-65 42 -95.5 117 q-30.5 75 -30.5 175 q0 83 26 149 q26 66 71 112 q45 46 105 70.5 q60 24.5 128 24.5 q42 0 82 -8 l44 100 l92 -40 l-43 -97 q63 -38 97.5 -111 q34.5 -73 34.5 -185 Z" /><glyph glyph-name="oslash" unicode="ø" d="M302 405 q-5 1 -11.5 1.5 q-6.5 0.5 -11.5 0.5 q-23 0 -45.5 -8.5 q-22.5 -8.5 -40 -26.5 q-17.5 -18 -28 -47 q-10.5 -29 -10.5 -71 q0 -68 29 -103 l118 254 l0 0 ZM400 251 q0 76 -37 107 l-121 -261 q13 -5 35 -5 q55 0 89 40 q34 40 34 119 ZM522 258 q0 -58 -18.5 -107.5 q-18.5 -49.5 -52 -85 q-33.5 -35.5 -80.5 -55.5 q-47 -20 -104 -20 q-45 0 -81 10 l-49 -98 l-70 32 l50 99 q-43 31 -63.5 84 q-20.5 53 -20.5 123 q0 58 18 107 q18 49 51.5 84.5 q33.5 35.5 80.5 55.5 q47 20 105 20 q37 0 68 -6 l46 88 l70 -33 l-45 -87 q44 -29 69.5 -80.5 q25.5 -51.5 25.5 -130.5 Z" /><glyph glyph-name="Thorn" unicode="þ" d="M394 357 q0 52 -32.5 86 q-32.5 34 -107.5 34 q-14 0 -27 -1 q-13 -1 -27 -3 l0 -239 q13 -2 27.5 -3 q14.5 -1 30.5 -1 q60 0 98 32 q38 32 38 95 ZM528 365 q0 -52 -19.5 -96 q-19.5 -44 -55.5 -76.5 q-36 -32.5 -87.5 -50.5 q-51.5 -18 -115.5 -18 q-14 0 -22.5 0 q-8.5 0 -27.5 2 l0 -126 l-130 0 l0 675 l130 0 l0 -94 q17 1 34 1.5 q17 0.5 39 0.5 q119 0 187 -54.5 q68 -54.5 68 -163.5 Z" /><glyph glyph-name="thorn" unicode="þ" d="M389 261 q0 141 -85 141 q-25 0 -45 -13.5 q-20 -13.5 -33.5 -36 q-13.5 -22.5 -21 -52 q-7.5 -29.5 -7.5 -61.5 l0 -138 q30 -9 67 -9 q27 0 50 9 q23 9 39.5 29.5 q16.5 20.5 26 52.5 q9.5 32 9.5 78 ZM523 275 q0 -65 -17 -117 q-17 -52 -50 -89 q-33 -37 -82 -56.5 q-49 -19.5 -113 -19.5 q-18 0 -33 1 q-15 1 -31 3 l0 -238 l-128 0 l0 971 l128 0 l0 -204 q0 -23 -1 -51 q-1 -28 -4 -51 l2 0 q19 37 55.5 60 q36.5 23 91.5 23 q89 0 135.5 -60.5 q46.5 -60.5 46.5 -171.5 Z" /><glyph glyph-name="Uogonek" unicode="&#x172;" d="M611 262 q0 -90 -30.5 -149 q-30.5 -59 -90.5 -91 q-46 -24 -72.5 -57 q-26.5 -33 -26.5 -61 q0 -14 9.5 -22.5 q9.5 -8.5 24.5 -8.5 q28 0 53 31 l49 -59 q-27 -33 -63 -51 q-36 -18 -81 -18 q-57 0 -85.5 25 q-28.5 25 -28.5 65 q0 31 17 63.5 q17 32.5 53 62.5 q-5 -1 -12 -1 q-6 0 -12 0 q-68 0 -115 18 q-47 18 -76 50.5 q-29 32.5 -41.5 77 q-12.5 44.5 -12.5 97.5 l0 441 l130 0 l0 -433 q0 -32 6 -58.5 q6 -26.5 22 -46 q16 -19.5 43 -30 q27 -10.5 69 -10.5 q75 0 108.5 35.5 q33.5 35.5 33.5 121.5 l0 421 l129 0 l0 -413 Z" /><glyph glyph-name="uogonek" unicode="&#x173;" d="M562 -149 q-27 -36 -66 -55.5 q-39 -19.5 -83 -19.5 q-45 0 -74.5 22 q-29.5 22 -29.5 68 q0 45 25.5 81 q25.5 36 59.5 62 q-4 18 -6 38.5 q-2 20.5 -1 37.5 l-1 0 q-24 -42 -65.5 -68.5 q-41.5 -26.5 -103.5 -26.5 q-42 0 -70.5 12.5 q-28.5 12.5 -45.5 34 q-17 21.5 -24.5 50 q-7.5 28.5 -7.5 61.5 l0 349 l127 0 l0 -318 q0 -38 13 -60 q13 -22 49 -22 q24 0 45 12 q21 12 36.5 32.5 q15.5 20.5 24.5 51.5 q9 31 9 64 l0 240 l128 0 l0 -333 q0 -45 3.5 -86.5 q3.5 -41.5 11.5 -77.5 q-48 -25 -68 -48 q-20 -23 -20 -46 q0 -14 9 -21.5 q9 -7.5 24 -7.5 q14 0 28 9 q14 9 24 23 l49 -58 Z" /><glyph glyph-name="fi" unicode="&#xfb01;" d="M399 0 l0 398 l-177 0 l0 -398 l-127 0 l0 398 l-87 0 l0 99 l87 0 l0 18 q0 111 59 167 q59 56 186 56 q43 0 79.5 -5 q36.5 -5 74.5 -14 l-22 -106 q-28 9 -60.5 14.5 q-32.5 5.5 -61.5 5.5 q-69 0 -98.5 -28 q-29.5 -28 -29.5 -82 l0 -26 l304 0 l0 -497 l-127 0 Z" /><glyph glyph-name="fl" unicode="&#xfb02;" d="M399 0 l0 628 q-36 6 -70 6 q-54 0 -80.5 -22.5 q-26.5 -22.5 -26.5 -72.5 l0 -42 l109 0 l0 -99 l-109 0 l0 -398 l-127 0 l0 398 l-87 0 l0 99 l87 0 l0 48 q0 43 13.5 78.5 q13.5 35.5 43 61 q29.5 25.5 76 39.5 q46.5 14 112.5 14 q38 0 86.5 -4.5 q48.5 -4.5 99.5 -12.5 l0 -721 l-127 0 Z" /><glyph glyph-name="germandbls" unicode="ß" d="M576 157 q0 -38 -15 -69 q-15 -31 -42.5 -53 q-27.5 -22 -65.5 -34 q-38 -12 -84 -12 q-67 0 -106 14 l7 105 q20 -9 44 -14.5 q24 -5.5 47 -5.5 q45 0 64 17 q19 17 19 39 q0 22 -13 36.5 q-13 14.5 -33 27 q-20 12.5 -43 26 q-23 13.5 -43 31.5 q-20 18 -33 44 q-13 26 -13 65 q0 44 17.5 69.5 q17.5 25.5 39 45.5 q21.5 20 39 39.5 q17.5 19.5 17.5 51.5 q0 29 -20 43.5 q-20 14.5 -55 14.5 q-51 0 -79 -33 q-28 -33 -28 -105 l0 -500 l-128 0 l0 494 q0 66 19 112.5 q19 46.5 52 75.5 q33 29 76.5 42 q43.5 13 92.5 13 q46 0 83.5 -10 q37.5 -10 64 -29.5 q26.5 -19.5 41 -47 q14.5 -27.5 14.5 -61.5 q0 -48 -18 -74.5 q-18 -26.5 -40 -44.5 q-22 -18 -40 -35 q-18 -17 -18 -46 q0 -21 13.5 -36 q13.5 -15 33.5 -28 q20 -13 43 -26.5 q23 -13.5 43 -32.5 q20 -19 33.5 -45 q13.5 -26 13.5 -64 Z" /><glyph glyph-name="acute.cap" unicode="&#xf6c9;" d="M103 716 l-21 70 l207 75 l29 -92 l-215 -53 Z" /><glyph glyph-name="acute" unicode="´" d="M152 560 l-47 69 l169 125 l59 -86 l-181 -108 Z" /><glyph glyph-name="grave.cap" unicode="&#xf6ce;" d="M278 716 l-216 53 l30 92 l207 -75 l-21 -70 Z" /><glyph glyph-name="cedilla" unicode="¸" d="M256 -40 q39 -54 30.5 -102 q-8.5 -48 -50.5 -92 l-96 0 q36 43 41 79.5 q5 36.5 -31 81.5 l106 33 l0 0 Z" /><glyph glyph-name="dieresis.cap" unicode="&#xf6cb;" d="M436 785 q0 -28 -19.5 -47 q-19.5 -19 -47.5 -19 q-28 0 -47 19 q-19 19 -19 47 q0 28 19 47 q19 19 47 19 q28 0 47.5 -19 q19.5 -19 19.5 -47 ZM221 785 q0 -28 -19.5 -47 q-19.5 -19 -47.5 -19 q-28 0 -47.5 19 q-19.5 19 -19.5 47 q0 28 19.5 47 q19.5 19 47.5 19 q28 0 47.5 -19 q19.5 -19 19.5 -47 Z" /><glyph glyph-name="dieresis" unicode="¨" d="M232 648 q0 -29 -20 -49 q-20 -20 -49 -20 q-29 0 -49 20 q-20 20 -20 49 q0 29 20 49 q20 20 49 20 q29 0 49 -20 q20 -20 20 -49 ZM434 648 q0 -29 -20 -49 q-20 -20 -49 -20 q-29 0 -49 20 q-20 20 -20 49 q0 29 20 49 q20 20 49 20 q29 0 49 -20 q20 -20 20 -49 Z" /><glyph glyph-name="macron.cap" unicode="&#xf6d0;" d="M60 741 l0 81 l293 0 l0 -81 l-293 0 Z" /><glyph glyph-name="macron" unicode="¯&#x2c9;" d="M63 600 l0 92 l269 0 l0 -92 l-269 0 Z" /><glyph glyph-name="circumflex" unicode="&#x2c6;" d="M315 560 l-104 81 l-103 -81 l-49 58 l153 136 l153 -135 l-50 -59 Z" /><glyph glyph-name="tilde" unicode="&#x2dc;" d="M414 666 q-45 -89 -122 -89 q-25 0 -42 8 q-17 8 -30 17.5 q-13 9.5 -25 17.5 q-12 8 -26 8 q-31 0 -55 -45 l-61 47 q44 89 122 89 q25 0 41.5 -8.5 q16.5 -8.5 30 -17.5 q13.5 -9 25 -17 q11.5 -8 25.5 -8 q32 0 56 45 l61 -47 l0 0 Z" /><glyph glyph-name="caron.cap" unicode="&#xf6ca;" d="M210 715 l-166 82 l31 68 l138 -56 l134 55 l28 -63 l-165 -86 Z" /><glyph glyph-name="caron" unicode="&#x2c7;" d="M210 560 l-153 134 l50 60 l104 -82 l103 82 l50 -59 l-154 -135 Z" /><glyph glyph-name="breve" unicode="&#x2d8;" d="M322 720 q0 -30 -8 -58 q-8 -28 -24.5 -49 q-16.5 -21 -43 -33.5 q-26.5 -12.5 -62.5 -12.5 q-36 0 -62 12.5 q-26 12.5 -42 34 q-16 21.5 -23.5 49 q-7.5 27.5 -7.5 57.5 l82 0 q0 -27 14 -44 q14 -17 40 -17 q26 0 40 15.5 q14 15.5 14 45.5 l83 0 l0 0 Z" /><glyph glyph-name="dotaccent" unicode="&#x2d9;" d="M219 648 q0 -32 -23.5 -54.5 q-23.5 -22.5 -56.5 -22.5 q-33 0 -56.5 22.5 q-23.5 22.5 -23.5 54.5 q0 32 23.5 55 q23.5 23 56.5 23 q33 0 56.5 -22.5 q23.5 -22.5 23.5 -55.5 Z" /><glyph glyph-name="ring" unicode="&#x2da;" d="M235 660 q0 22 -15 37.5 q-15 15.5 -37 15.5 q-22 0 -37.5 -16 q-15.5 -16 -15.5 -37 q0 -22 15.5 -37.5 q15.5 -15.5 37.5 -15.5 q21 0 36.5 15.5 q15.5 15.5 15.5 37.5 ZM310 661 q0 -26 -10 -48 q-10 -22 -27.5 -38.5 q-17.5 -16.5 -40.5 -26 q-23 -9.5 -50 -9.5 q-26 0 -48 8.5 q-22 8.5 -40 24 q-18 15.5 -28.5 38.5 q-10.5 23 -10.5 50 q0 26 10.5 48.5 q10.5 22.5 27.5 38.5 q17 16 40.5 25.5 q23.5 9.5 49.5 9.5 q27 0 50 -9 q23 -9 40 -25 q17 -16 27 -38.5 q10 -22.5 10 -48.5 Z" /><glyph glyph-name="hungarumlaut.cap" unicode="&#xf6cf;" d="M119 713 l-39 57 l153 113 l51 -74 l-165 -96 ZM333 714 l-37 60 l166 100 l46 -77 l-175 -83 Z" /><glyph glyph-name="hungarumlaut" unicode="&#x2dd;" d="M122 560 l-60 51 l129 155 l74 -62 l-143 -144 ZM311 560 l-56 51 l143 147 l69 -67 l-156 -131 Z" /><glyph glyph-name="uni0326" unicode="&#x326;" d="M160 -47 q26 0 43.5 -18 q17.5 -18 17.5 -48 q0 -19 -8 -38 q-8 -19 -24.5 -35.5 q-16.5 -16.5 -43 -31 q-26.5 -14.5 -64.5 -24.5 l-21 46 q29 16 39.5 28 q10.5 12 10.5 26 q0 11 -4.5 20.5 q-4.5 9.5 -4.5 18.5 q0 22 16 39 q16 17 43 17 Z" /><glyph glyph-name="uni0315" unicode="&#x315;" d="M181 553 l-82 18 l50 205 l102 -22 l-70 -201 Z" /><glyph glyph-name="uni0312" unicode="&#x312;" d="M185 561 q-30 0 -47 23.5 q-17 23.5 -12.5 55.5 q4.5 32 37 65 q32.5 33 101.5 51 l21 -46 q-38 -20 -45.5 -37.5 q-7.5 -17.5 -0.5 -35.5 q10 -28 -5.5 -52 q-15.5 -24 -48.5 -24 Z" /><glyph glyph-name="ogonek" unicode="&#x2db;" d="M197 0 q-49 -24 -68.5 -48.5 q-19.5 -24.5 -19.5 -45.5 q0 -15 9.5 -23 q9.5 -8 23.5 -8 q14 0 28 9 q14 9 24 23 l49 -57 q-27 -37 -65.5 -55.5 q-38.5 -18.5 -82.5 -18.5 q-46 0 -75.5 22 q-29.5 22 -29.5 68 q0 39 23 77 q23 38 64 67 l120 -10 Z" /><glyph glyph-name="ff" unicode="&#xfb00;" d="M409 610 q-23 9 -45 12 q-22 3 -41 3 q-54 0 -77.5 -25 q-23.5 -25 -23.5 -72 l0 -31 l174 0 l0 41 q0 40 13 72 ZM667 625 q-15 5 -31.5 7 q-16.5 2 -30.5 2 q-42 0 -61.5 -22.5 q-19.5 -22.5 -19.5 -72.5 l0 -42 l116 0 l0 -99 l-116 0 l0 -398 l-128 0 l0 398 l-174 0 l0 -398 l-127 0 l0 398 l-87 0 l0 99 l87 0 l0 24 q0 47 13 85 q13 38 41 65.5 q28 27.5 72 42.5 q44 15 107 15 q37 0 73.5 -5.5 q36.5 -5.5 68.5 -16.5 q43 31 125 31 q20 0 40.5 -1.5 q20.5 -1.5 40.5 -6.5 l-9 -105 Z" /><glyph glyph-name="ffi" unicode="&#xfb03;" d="M414 608 q-25 11 -47 14 q-22 3 -44 3 q-54 0 -77.5 -25 q-23.5 -25 -23.5 -72 l0 -31 l174 0 l0 18 q0 24 4 48 q4 24 14 45 ZM700 0 l0 398 l-176 0 l0 -398 l-128 0 l0 398 l-174 0 l0 -398 l-127 0 l0 398 l-87 0 l0 99 l87 0 l0 24 q0 47 13 85.5 q13 38.5 41.5 65.5 q28.5 27 72.5 42 q44 15 107 15 q42 0 82 -7.5 q40 -7.5 72 -19.5 q28 17 68 27 q40 10 94 10 q43 0 80 -5 q37 -5 78 -13 l-23 -107 q-31 9 -64 14.5 q-33 5.5 -61 5.5 q-69 0 -100 -28.5 q-31 -28.5 -31 -82.5 l0 -26 l304 0 l0 -497 l-128 0 Z" /><glyph glyph-name="ffl" unicode="&#xfb04;" d="M409 611 q-23 9 -44.5 11.5 q-21.5 2.5 -41.5 2.5 q-54 0 -77.5 -25 q-23.5 -25 -23.5 -72 l0 -31 l174 0 l0 48 q0 37 13 66 ZM700 0 l0 629 q-34 6 -69 6 q-54 0 -80.5 -23 q-26.5 -23 -26.5 -73 l0 -42 l109 0 l0 -99 l-109 0 l0 -398 l-128 0 l0 398 l-174 0 l0 -398 l-127 0 l0 398 l-87 0 l0 99 l87 0 l0 24 q0 47 13 85.5 q13 38.5 41.5 65.5 q28.5 27 72.5 42 q44 15 107 15 q42 0 81 -7 q39 -7 71 -19 q28 17 67.5 26.5 q39.5 9.5 93.5 9.5 q38 0 86.5 -4.5 q48.5 -4.5 99.5 -12.5 l0 -722 l-128 0 Z" /><glyph glyph-name="zero.oldstyle" unicode="&#xf730;" d="M439 259 q0 69 -33.5 113 q-33.5 44 -99.5 44 q-28 0 -53.5 -10.5 q-25.5 -10.5 -43.5 -31 q-18 -20.5 -29 -49.5 q-11 -29 -11 -66 q0 -34 8 -63.5 q8 -29.5 24.5 -51 q16.5 -21.5 41.5 -33.5 q25 -12 60 -12 q27 0 52 11 q25 11 43.5 31.5 q18.5 20.5 29.5 50 q11 29.5 11 67.5 ZM567 262 q0 -64 -22 -115 q-22 -51 -59.5 -86 q-37.5 -35 -87 -53.5 q-49.5 -18.5 -104.5 -18.5 q-52 0 -98 14 q-46 14 -81 46 q-35 32 -53.5 81.5 q-18.5 49.5 -19.5 120.5 q0 64 22 115 q22 51 59 86 q37 35 86 53.5 q49 18.5 102 18.5 q71 0 120 -22 q49 -22 78.5 -58.5 q29.5 -36.5 43.5 -84 q14 -47.5 14 -97.5 Z" /><glyph glyph-name="one.oldstyle" unicode="&#xf731;" d="M137 0 l0 392 l-102 -42 l-20 106 l154 58 l99 0 l0 -514 l-131 0 Z" /><glyph glyph-name="two.oldstyle" unicode="&#xf732;" d="M45 0 l0 104 l98 79 q37 27 62.5 48 q25.5 21 41.5 39.5 q16 18.5 23.5 35 q7.5 16.5 7.5 34.5 q0 33 -22 54 q-22 21 -66 21 q-32 0 -65 -11.5 q-33 -11.5 -54 -24.5 l-18 108 q35 16 77 26 q42 10 90 10 q96 0 147.5 -43.5 q51.5 -43.5 51.5 -115.5 q0 -56 -32 -103 q-32 -47 -94 -92 l-73 -59 l-1 -1 q48 3 99.5 3.5 q51.5 0.5 119.5 0.5 l0 -113 l-393 0 Z" /><glyph glyph-name="three.oldstyle" unicode="&#xf733;" d="M416 42 q0 -47 -18.5 -89 q-18.5 -42 -54 -73.5 q-35.5 -31.5 -90 -50 q-54.5 -18.5 -120.5 -18.5 q-26 0 -51 3.5 q-25 3.5 -47 8.5 l11 112 q18 -6 41.5 -10.5 q23.5 -4.5 49.5 -4.5 q67 0 104 30 q37 30 37 79 q0 31 -15 51.5 q-15 20.5 -43 32.5 q-28 12 -66 14.5 q-38 2.5 -85 -2.5 l0 103 q99 0 148 27.5 q49 27.5 49 79.5 q0 37 -25 58.5 q-25 21.5 -71 21.5 q-29 0 -58 -8 q-29 -8 -55 -22 l-12 107 q72 29 151 29 q52 0 91 -13 q39 -13 64 -35 q25 -22 37.5 -51.5 q12.5 -29.5 12.5 -62.5 q0 -54 -30.5 -94.5 q-30.5 -40.5 -79.5 -62.5 l0 -1 q60 -13 92.5 -56.5 q32.5 -43.5 32.5 -102.5 Z" /><glyph glyph-name="four.oldstyle" unicode="&#xf734;" d="M310 392 l-1 0 l-170 -279 q29 1 64.5 1.5 q35.5 0.5 59.5 0.5 l47 0 l0 277 ZM434 0 l0 -183 l-126 0 l0 183 l-271 0 l-21 104 l256 412 l162 0 l0 -401 l106 0 l0 -115 l-106 0 Z" /><glyph glyph-name="five.oldstyle" unicode="&#xf735;" d="M423 57 q0 -54 -22.5 -99 q-22.5 -45 -62 -77.5 q-39.5 -32.5 -94.5 -51 q-55 -18.5 -120 -18.5 q-20 0 -40.5 1.5 q-20.5 1.5 -39.5 4.5 l12 115 q32 -8 74 -8 q75 0 115.5 32 q40.5 32 40.5 84 q0 51 -42 82 q-42 31 -121 31 q-15 0 -30 -1 q-15 -1 -29 -2 l0 364 l338 0 l0 -125 l-217 1 l0 -133 q56 0 100.5 -14.5 q44.5 -14.5 75 -41 q30.5 -26.5 46.5 -63 q16 -36.5 16 -81.5 Z" /><glyph glyph-name="six.oldstyle" unicode="&#xf736;" d="M408 217 q0 56 -28 87 q-28 31 -76 31 q-27 0 -47.5 -9 q-20.5 -9 -34 -24.5 q-13.5 -15.5 -20.5 -35 q-7 -19.5 -7 -40.5 q0 -26 6.5 -49.5 q6.5 -23.5 19.5 -41 q13 -17.5 32.5 -27.5 q19.5 -10 46.5 -10 q48 0 78 32.5 q30 32.5 30 86.5 ZM543 231 q0 -53 -18.5 -97 q-18.5 -44 -52.5 -76.5 q-34 -32.5 -81 -50.5 q-47 -18 -104 -18 q-54 0 -97 18.5 q-43 18.5 -74 55 q-31 36.5 -47.5 90.5 q-16.5 54 -16.5 124 q0 102 26.5 181 q26.5 79 75 133.5 q48.5 54.5 116 82.5 q67.5 28 150.5 28 q11 0 28 -0.5 q17 -0.5 29 -1.5 l0 -113 q-16 2 -33 3.5 q-17 1.5 -33 1.5 q-88 0 -145 -49.5 q-57 -49.5 -79 -156.5 l1 -1 q21 27 59.5 43.5 q38.5 16.5 86.5 16.5 q98 0 153.5 -59 q55.5 -59 55.5 -155 Z" /><glyph glyph-name="seven.oldstyle" unicode="&#xf737;" d="M435 406 q-54 -125 -102.5 -274.5 q-48.5 -149.5 -82.5 -314.5 l-143 0 q35 154 82.5 301.5 q47.5 147.5 101.5 272.5 q-47 -1 -93.5 -1.5 q-46.5 -0.5 -94.5 -0.5 l-81 0 l0 125 l413 0 l0 -108 l0 0 Z" /><glyph glyph-name="eight.oldstyle" unicode="&#xf738;" d="M377 178 q0 36 -28 64.5 q-28 28.5 -81 54.5 l-1 0 q-40 -24 -64 -52.5 q-24 -28.5 -24 -61.5 q0 -39 27 -63 q27 -24 72 -24 q43 0 71 22.5 q28 22.5 28 59.5 ZM368 528 q0 32 -24 54 q-24 22 -67 22 q-43 0 -67 -22.5 q-24 -22.5 -24 -56.5 q0 -32 25 -56.5 q25 -24.5 71 -50.5 l1 0 q44 29 64.5 54 q20.5 25 20.5 56 ZM513 187 q0 -47 -19.5 -84.5 q-19.5 -37.5 -53 -62.5 q-33.5 -25 -78.5 -38 q-45 -13 -95 -13 q-52 0 -94 13 q-42 13 -70.5 37 q-28.5 24 -43.5 57 q-15 33 -15 73 q0 34 11 61.5 q11 27.5 28.5 49 q17.5 21.5 39.5 38.5 q22 17 43 31 l-1 1 q-53 31 -83 72 q-30 41 -30 97 q0 43 17 78 q17 35 47.5 59.5 q30.5 24.5 73 38 q42.5 13.5 92.5 13.5 q51 0 91 -12 q40 -12 68.5 -34 q28.5 -22 43.5 -53 q15 -31 15 -69 q0 -54 -29.5 -94 q-29.5 -40 -86.5 -78 q24 -14 47 -31.5 q23 -17.5 41.5 -39 q18.5 -21.5 29.5 -49 q11 -27.5 11 -61.5 Z" /><glyph glyph-name="nine.oldstyle" unicode="&#xf739;" d="M385 287 q0 54 -27.5 89.5 q-27.5 35.5 -78.5 35.5 q-49 0 -78 -33.5 q-29 -33.5 -29 -83.5 q0 -57 26.5 -87.5 q26.5 -30.5 78.5 -30.5 q48 0 78 31.5 q30 31.5 30 78.5 ZM530 230 q0 -97 -24 -175 q-24 -78 -71 -132 q-47 -54 -118 -83 q-71 -29 -164 -29 q-13 0 -31 1.5 q-18 1.5 -35 4.5 l0 117 q15 -5 35 -8 q20 -3 36 -3 q91 0 148.5 44 q57.5 44 77.5 155 l-1 1 q-22 -26 -58.5 -42.5 q-36.5 -16.5 -82.5 -16.5 q-47 0 -85 15.5 q-38 15.5 -64.5 43 q-26.5 27.5 -40.5 66.5 q-14 39 -14 87 q0 53 18 98 q18 45 51 78 q33 33 79.5 51.5 q46.5 18.5 101.5 18.5 q53 0 97.5 -17 q44.5 -17 76.5 -53 q32 -36 50 -91.5 q18 -55.5 18 -130.5 Z" /></font>
</defs>
</svg>
